<svg width="128" height="76" viewBox="0 0 128 76" fill="none" xmlns="http://www.w3.org/2000/svg">
<g clip-path="url(#clip0_96_456)">
<path d="M107.41 69.1973H60.1625" stroke="white" stroke-linecap="round" stroke-linejoin="round"/>
<path d="M1.86844 74.9731C1.95544 68.0641 1.94653 61.1521 1.95853 54.2451C1.96853 48.9821 1.96552 43.7111 1.87552 38.4451C1.84352 36.5371 1.88745 36.5591 3.90945 36.7281C4.57945 36.7841 5.26854 36.5841 5.94754 36.5831C17.2775 36.5731 28.6075 36.5731 39.9375 36.5831C40.9005 36.5831 41.8866 36.2901 42.9966 36.9341V48.6391" stroke="white" stroke-linecap="round" stroke-linejoin="round"/>
<path d="M3.22849 36.2364C3.15352 35.3103 3.295 34.3795 3.64157 33.5174C14.2186 33.5174 24.8695 33.5405 35.5195 33.4725C36.3395 33.4675 37.5544 34.3655 37.9904 33.1495C38.1792 32.3151 38.1666 31.4479 37.9536 30.6194C37.7346 29.4124 38.2805 28.1375 37.8825 26.7195C35.0685 26.7195 32.2346 26.7195 29.4006 26.7195C29.0703 26.7748 28.732 26.7588 28.4084 26.6726C28.0848 26.5863 27.7833 26.4319 27.5244 26.2195C25.5914 24.2925 23.0925 24.6325 20.7365 24.7565C19.9717 24.8403 19.2257 25.048 18.5276 25.3714C18.0956 25.5564 17.5496 25.7034 17.6736 26.3824" stroke="white" stroke-linecap="round" stroke-linejoin="round"/>
<path d="M39.9376 60.8705V72.5085H32.7994V49.2314H39.9376V60.5315" stroke="white" stroke-linecap="round" stroke-linejoin="round"/>
<path d="M43.3364 74.9737C43.4194 70.9877 43.9484 67.0387 44.2844 63.0737C44.5732 61.1638 44.7129 59.2343 44.7016 57.3027C44.5684 56.5431 44.7399 55.7615 45.1794 55.1277C44.3438 53.8117 43.6658 52.4021 43.1594 50.9277H58.4785C58.7145 51.7057 58.1666 52.2507 57.9016 52.6807C57.3928 53.5514 57.0691 54.5176 56.9509 55.519C56.8327 56.5205 56.9225 57.5356 57.2145 58.5007C57.4057 59.907 57.5233 61.3222 57.5666 62.7407C57.9366 66.0667 58.0835 69.4177 58.2785 72.7607C58.3225 73.5167 58.8785 74.1777 58.6325 74.9687" stroke="white" stroke-linecap="round" stroke-linejoin="round"/>
<path d="M5.09668 54.5853C5.01556 55.0918 4.96137 55.6022 4.93457 56.1144C4.9219 61.155 4.9219 66.1957 4.93457 71.2363C4.93457 71.6293 4.74649 72.0714 5.15649 72.5104H12.3166V49.3184H4.92358V54.2454" stroke="white" stroke-linecap="round" stroke-linejoin="round"/>
<path d="M54.2134 21.4543C54.3264 21.3413 54.5004 21.2472 54.5444 21.1112C55.1694 19.1622 55.1294 19.1863 53.0234 19.2223C51.4364 19.3523 49.8399 19.308 48.2625 19.0902C47.9871 19.0223 47.6983 19.0326 47.4285 19.1201C47.1587 19.2075 46.9187 19.3686 46.7356 19.5852C47.1836 20.2942 47.0694 21.3053 47.8274 21.7093H54.1274C54.4444 25.3563 54.7554 28.9273 55.0664 32.4983" stroke="white" stroke-linecap="round" stroke-linejoin="round"/>
<path d="M27.3616 26.5518C24.3642 26.7732 21.3568 26.8259 18.3535 26.7098C14.6145 26.7598 10.8746 26.7217 6.96655 26.7217V33.1788" stroke="white" stroke-linecap="round" stroke-linejoin="round"/>
<path d="M98.4015 37.9326C97.9763 38.1394 97.5146 38.2603 97.0426 38.2886C92.6806 38.2606 88.3184 38.2766 83.9564 38.2656C83.6126 38.2385 83.2715 38.1841 82.9364 38.1026" stroke="white" stroke-linecap="round" stroke-linejoin="round"/>
<path d="M56.5934 50.5079C56.401 49.9592 56.2813 49.3877 56.2375 48.8079C56.0441 45.1813 55.8197 41.5566 55.5644 37.9339C55.4254 35.9949 55.3795 35.9979 56.7035 32.9209H45.4604C45.3459 33.2124 45.3133 33.5296 45.3661 33.8383C45.419 34.1469 45.5554 34.4352 45.7604 34.6719C46.7834 36.1719 46.4964 37.7499 46.1894 39.2859C45.9777 40.8109 45.8537 42.3467 45.8176 43.8859C45.5118 46.0785 45.3627 48.2901 45.3715 50.5039" stroke="white" stroke-linecap="round" stroke-linejoin="round"/>
<path d="M43.8466 41.6729H0.678619" stroke="white" stroke-linecap="round" stroke-linejoin="round"/>
<path d="M63.5615 46.0908C62.9275 46.9795 62.6186 48.0593 62.6865 49.1489C62.7435 54.4719 62.7145 59.7959 62.7075 65.1199C62.7887 65.6917 62.7318 66.2746 62.5415 66.8198" stroke="white" stroke-linecap="round" stroke-linejoin="round"/>
<path d="M113.528 44.0516C112.961 44.0876 112.393 44.0836 111.828 44.0396C109.176 43.6576 107.586 45.1776 106.228 47.1126C105.968 47.5152 105.843 47.9903 105.872 48.4686C105.89 54.3016 105.881 60.1356 105.89 65.9686C105.917 66.2561 105.971 66.5404 106.053 66.8176" stroke="white" stroke-linecap="round" stroke-linejoin="round"/>
<path d="M79.8776 44.3916C78.2026 46.7856 79.1676 49.4916 79.0776 52.0396C78.9046 56.9606 79.0275 61.8916 79.0275 66.8196" stroke="white" stroke-linecap="round" stroke-linejoin="round"/>
<path d="M72.7396 44.3916C72.6786 45.5516 73.8487 45.9156 74.3517 46.7186C74.7606 47.3379 74.9698 48.0676 74.9515 48.8096C74.9515 54.2462 74.9515 59.6833 74.9515 65.1206C74.8706 65.6925 74.9279 66.2754 75.1185 66.8206" stroke="white" stroke-linecap="round" stroke-linejoin="round"/>
<path d="M89.7345 40.993C89.4225 40.583 88.9723 40.653 88.5443 40.653H79.1784C79.1044 40.985 79.0035 41.173 79.0375 41.33C79.2475 42.296 78.3804 43.767 79.7284 44.142C80.9644 44.486 81.1034 42.779 82.1684 42.264C83.7684 43.88 85.7134 45.507 85.1684 48.472C85.0901 49.2614 85.0828 50.0563 85.1464 50.847" stroke="white" stroke-linecap="round" stroke-linejoin="round"/>
<path d="M68.8306 46.7695C68.8306 52.8862 68.8306 59.0029 68.8306 65.1196C68.9118 65.6914 68.8548 66.2743 68.6646 66.8196" stroke="white" stroke-linecap="round" stroke-linejoin="round"/>
<path d="M101.971 45.9209C101.542 48.9149 101.871 51.9209 101.817 54.9259C101.75 58.8889 101.8 62.8539 101.8 66.8189" stroke="white" stroke-linecap="round" stroke-linejoin="round"/>
<path d="M87.5244 53.5654C87.5244 57.4168 87.5244 61.2677 87.5244 65.1184C87.6054 65.6902 87.5487 66.2731 87.3586 66.8184" stroke="white" stroke-linecap="round" stroke-linejoin="round"/>
<path d="M99.7615 53.5654C99.7615 57.4168 99.7615 61.2677 99.7615 65.1184C99.8428 65.6902 99.7858 66.2731 99.5955 66.8184" stroke="white" stroke-linecap="round" stroke-linejoin="round"/>
<path d="M93.3025 53.5654C93.3025 57.4168 93.3025 61.2677 93.3025 65.1184C93.2212 65.6902 93.2781 66.2731 93.4685 66.8184" stroke="white" stroke-linecap="round" stroke-linejoin="round"/>
<path d="M85.3165 53.5654V66.8224" stroke="white" stroke-linecap="round" stroke-linejoin="round"/>
<path d="M95.5125 53.5654V66.8224" stroke="white" stroke-linecap="round" stroke-linejoin="round"/>
<path d="M81.0676 53.5654C81.0676 57.4168 81.0676 61.2677 81.0676 65.1184C80.9863 65.6902 81.0433 66.2731 81.2336 66.8184" stroke="white" stroke-linecap="round" stroke-linejoin="round"/>
<path d="M45.3755 54.9248H56.5926" stroke="white" stroke-linecap="round" stroke-linejoin="round"/>
<path d="M82.2554 38.1035C80.3464 38.5035 78.3894 38.0985 76.3074 38.3665V43.7105" stroke="white" stroke-linecap="round" stroke-linejoin="round"/>
<path d="M104.519 43.7115V38.3685C102.493 38.1155 100.594 38.4785 98.7405 38.1045" stroke="white" stroke-linecap="round" stroke-linejoin="round"/>
<path d="M47.7554 21.9639C47.6424 22.1909 47.4304 22.4169 47.4304 22.6429C47.4304 25.9429 46.9636 29.2129 46.7356 32.4979" stroke="white" stroke-linecap="round" stroke-linejoin="round"/>
<path d="M79.3664 51.1875H101.46" stroke="white" stroke-linecap="round" stroke-linejoin="round"/>
<path d="M85.1465 45.5807C86.7805 44.2157 88.5834 43.0378 89.7464 41.1728C89.8016 41.0433 89.8936 40.9329 90.011 40.8553C90.1285 40.7777 90.2663 40.7363 90.407 40.7363C90.5478 40.7363 90.6854 40.7777 90.8028 40.8553C90.9202 40.9329 91.0123 41.0433 91.0674 41.1728C91.8934 42.7968 93.4505 43.6908 94.7115 44.8438C95.0517 45.1087 95.3199 45.4548 95.4915 45.8504C95.6631 46.246 95.7325 46.6784 95.6934 47.1078C95.6414 48.3518 95.6805 49.5988 95.6805 50.8448" stroke="white" stroke-linecap="round" stroke-linejoin="round"/>
<path d="M66.6245 36.2354C65.5145 36.5994 64.4403 37.0647 63.4155 37.6253C62.403 38.2498 61.6007 39.1634 61.1123 40.2482C60.6239 41.333 60.4718 42.5392 60.6755 43.7113" stroke="white" stroke-linecap="round" stroke-linejoin="round"/>
<path d="M15.4646 42.0127C15.4646 44.4477 15.4586 46.8837 15.4646 49.3187C15.4646 49.9007 15.3026 50.5277 15.7996 51.0187" stroke="white" stroke-linecap="round" stroke-linejoin="round"/>
<path d="M124.403 48.2982C120.896 47.9242 117.378 48.2281 113.867 48.1281" stroke="white" stroke-linecap="round" stroke-linejoin="round"/>
<path d="M54.8936 36.2354H46.7356" stroke="white" stroke-linecap="round" stroke-linejoin="round"/>
<path d="M82.2564 32.8374C81.6244 30.4014 82.7264 28.7574 84.6284 27.3904C88.8744 24.3404 93.3425 24.9454 97.0435 27.9084C97.7756 28.4717 98.3156 29.2477 98.5894 30.13C98.8631 31.0123 98.8572 31.9576 98.5725 32.8364" stroke="white" stroke-linecap="round" stroke-linejoin="round"/>
<path d="M101.631 45.2413C102.115 43.7683 101.622 42.2963 101.887 40.6153C98.1174 40.8303 94.5955 40.2483 91.0935 40.9943" stroke="white" stroke-linecap="round" stroke-linejoin="round"/>
<path d="M16.3134 54.416C12.8054 54.085 9.28855 54.267 5.77655 54.285C4.59555 54.291 3.37646 53.956 2.20746 54.416" stroke="white" stroke-linecap="round" stroke-linejoin="round"/>
<path d="M15.2946 60.7023C11.4946 60.7023 7.70357 60.6943 3.90857 60.7093C3.28457 60.7093 2.66245 60.8154 2.03845 60.8714" stroke="white" stroke-linecap="round" stroke-linejoin="round"/>
<path d="M42.1466 60.7025C38.4646 60.7025 34.7815 60.6966 31.0995 60.7096C30.587 60.7366 30.0762 60.7907 29.5694 60.8716" stroke="white" stroke-linecap="round" stroke-linejoin="round"/>
<path d="M29.5704 54.2461H42.1466" stroke="white" stroke-linecap="round" stroke-linejoin="round"/>
<path d="M119.135 42.1826C118.807 42.4257 118.466 42.6507 118.113 42.8566C115.389 44.2706 114.137 46.2666 114.805 49.5056C115.099 50.9346 114.557 52.5466 114.887 54.0756" stroke="white" stroke-linecap="round" stroke-linejoin="round"/>
<path d="M119.135 40.4824C119.016 41.0235 119.086 41.589 119.332 42.0854C119.578 42.5818 119.986 42.9794 120.488 43.2124C121.096 43.5455 121.667 43.9438 122.188 44.4004C122.654 44.7921 123.022 45.2868 123.264 45.8453C123.505 46.4038 123.614 47.0108 123.58 47.6184C123.431 49.827 123.479 52.0445 123.726 54.2444" stroke="white" stroke-linecap="round" stroke-linejoin="round"/>
<path d="M98.4016 30.799C96.3066 30.899 94.2015 30.599 92.1125 30.966C91.6595 31.046 91.4455 30.605 91.0935 30.459" stroke="white" stroke-linecap="round" stroke-linejoin="round"/>
<path d="M89.7335 30.459C89.3815 30.605 89.1675 31.046 88.7135 30.966C86.6255 30.596 84.5194 30.9 82.4244 30.799" stroke="white" stroke-linecap="round" stroke-linejoin="round"/>
<path d="M107.41 67.1585C104.01 67.1015 100.609 66.9586 97.2094 67.0116C93.2424 67.0786 89.2765 67.0285 85.3095 67.0525C80.9482 67.0785 76.5859 67.1119 72.2226 67.1526C68.2006 67.1896 64.1784 67.1606 60.1564 67.1606" stroke="white" stroke-linecap="round" stroke-linejoin="round"/>
<path d="M126.953 64.9495C126.006 64.6895 125.337 63.4715 124.038 64.4035C123.492 64.7373 123.056 65.2255 122.786 65.8065C122.517 66.3876 122.425 67.0355 122.523 67.6685C122.56 68.2905 122.564 68.9141 122.534 69.5365" stroke="white" stroke-linecap="round" stroke-linejoin="round"/>
<path d="M116.076 69.5376C116.076 68.5746 116.067 67.6116 116.076 66.6496C116.051 66.3231 116.094 65.9951 116.203 65.6861C116.311 65.3772 116.483 65.0941 116.706 64.8546C116.929 64.6151 117.2 64.4245 117.5 64.2947C117.801 64.165 118.125 64.0989 118.452 64.1006C119.04 64.2143 119.58 64.5021 120.002 64.9265C120.424 65.3509 120.708 65.8924 120.819 66.4806C120.881 67.4966 120.832 68.5186 120.832 69.5376" stroke="white" stroke-linecap="round" stroke-linejoin="round"/>
<path d="M109.619 65.2895C111.397 63.8335 112.183 63.7255 113.357 64.7805C113.613 65.0136 113.811 65.3051 113.931 65.6304C114.052 65.9556 114.093 66.3051 114.05 66.6495C113.996 67.6095 114.037 68.5745 114.037 69.5375" stroke="white" stroke-linecap="round" stroke-linejoin="round"/>
<path d="M110.638 59.3394C110.638 58.3204 110.592 57.2973 110.653 56.2823C110.719 55.8363 110.614 55.3817 110.359 55.0096C110.105 54.6376 109.718 54.3757 109.279 54.2764V74.9714" stroke="white" stroke-linecap="round" stroke-linejoin="round"/>
<path d="M74.9476 53.2266H68.8294" stroke="white" stroke-linecap="round" stroke-linejoin="round"/>
<path d="M52.5194 4.46387C53.0724 5.82787 52.8624 7.31285 53.1954 8.71185C53.3744 9.46385 52.7205 10.4598 53.8685 10.9448C53.9495 10.9788 53.9385 11.3929 53.8685 11.5969C53.3877 13.2062 53.3842 14.9205 53.8585 16.5319C54.0425 17.2969 53.7155 18.1318 54.0485 18.9058" stroke="white" stroke-linecap="round" stroke-linejoin="round"/>
<path d="M53.1945 10.5811C51.4095 11.0521 49.5294 10.4991 47.6354 10.8181C48.1664 12.0181 48.5625 12.7871 48.1925 14.0081C47.7315 15.5281 47.9824 17.263 47.9254 18.908" stroke="white" stroke-linecap="round" stroke-linejoin="round"/>
<path d="M81.7455 34.877H74.6076V43.7119" stroke="white" stroke-linecap="round" stroke-linejoin="round"/>
<path d="M99.2505 34.877H106.032C106.563 36.596 105.753 38.287 106.558 39.804" stroke="white" stroke-linecap="round" stroke-linejoin="round"/>
<path d="M60.1625 53.3955C60.9925 52.6735 62.0016 53.0284 62.8786 53.0954C64.7452 53.2864 66.627 53.2716 68.4904 53.0514" stroke="white" stroke-linecap="round" stroke-linejoin="round"/>
<path d="M101.801 53.2267C92.9626 53.1907 84.1234 53.3856 75.2874 53.0566" stroke="white" stroke-linecap="round" stroke-linejoin="round"/>
<path d="M49.1154 4.80371C48.3664 6.60971 49.1705 8.60371 48.4355 10.4107" stroke="white" stroke-linecap="round" stroke-linejoin="round"/>
<path d="M74.2685 39.8033C72.9265 38.0033 70.9594 37.1234 69.0004 36.2354" stroke="white" stroke-linecap="round" stroke-linejoin="round"/>
<path d="M112.167 36.2354C111.177 37.0884 109.839 37.1693 108.735 37.8823C106.505 39.3233 105.986 41.3083 106.219 43.7113" stroke="white" stroke-linecap="round" stroke-linejoin="round"/>
<path d="M68.4894 69.5371V74.9741" stroke="white" stroke-linecap="round" stroke-linejoin="round"/>
<path d="M125.933 59.3436C126.084 57.7346 125.499 55.9936 126.871 54.5566C127.545 56.1666 127.257 57.8647 127.272 59.5137C127.286 61.2677 127.259 63.024 127.189 64.7827C127.119 66.4697 127.169 68.1827 127.2 69.8757C127.231 71.5687 127.2 73.2756 127.294 74.9756" stroke="white" stroke-linecap="round" stroke-linejoin="round"/>
<path d="M125.764 54.9253C125.567 54.6328 125.28 54.4126 124.947 54.2976C124.614 54.1827 124.252 54.1794 123.917 54.2883C123.527 54.4842 123.212 54.802 123.02 55.1933C122.828 55.5847 122.768 56.0282 122.851 56.4563C122.915 57.417 122.924 58.3807 122.876 59.3423" stroke="white" stroke-linecap="round" stroke-linejoin="round"/>
<path d="M98.7416 40.3132C98.6705 38.2726 98.7272 36.2296 98.9115 34.1962C99.0505 33.1482 98.5936 32.6592 97.5536 32.8442C94.9736 33.3042 92.4644 32.4822 89.9044 32.4622C86.7234 32.4372 83.5276 34.3461 83.0756 37.5901C83.0586 37.7111 83.0194 38.1901 82.3944 38.0641C81.7834 37.2541 82.1844 36.1891 82.0944 35.2151C81.9194 33.3861 80.4346 32.5042 78.5126 32.7902C77.969 32.8184 77.4439 32.9964 76.9952 33.3046C76.5466 33.6127 76.192 34.039 75.9706 34.5362" stroke="white" stroke-linecap="round" stroke-linejoin="round"/>
<path d="M94.8325 33.1777C96.1665 34.3967 97.5905 35.5488 98.0615 37.4258" stroke="white" stroke-linecap="round" stroke-linejoin="round"/>
<path d="M109.619 69.877H126.953" stroke="white" stroke-linecap="round" stroke-linejoin="round"/>
<path d="M79.0264 43.8818C76.8914 44.3368 74.7135 44.0338 72.5645 44.1268C70.3235 44.2268 68.0346 44.1638 65.7706 44.0498C65.5489 44.0272 65.3265 44.0836 65.1424 44.2092C64.9583 44.3347 64.8244 44.5212 64.7645 44.7358C64.3645 45.9818 63.3984 45.9608 62.3714 45.9288C61.2394 45.8938 60.1055 45.9208 58.9715 45.9208" stroke="white" stroke-linecap="round" stroke-linejoin="round"/>
<path d="M53.1935 12.793H48.7745" stroke="white" stroke-linecap="round" stroke-linejoin="round"/>
<path d="M95.8526 45.4108L98.7395 42.0107C99.4755 42.9927 100.089 43.8968 100.792 44.7258C101.135 45.15 101.577 45.4836 102.079 45.6974C102.581 45.9111 103.128 45.9985 103.671 45.9518C104.577 45.7956 105.506 45.8444 106.389 46.0947" stroke="white" stroke-linecap="round" stroke-linejoin="round"/>
<path d="M78.6866 46.0909C77.2837 45.8148 75.8404 45.8148 74.4376 46.0909" stroke="white" stroke-linecap="round" stroke-linejoin="round"/>
<path d="M118.796 38.6143C117.647 37.3443 115.921 37.1044 114.547 36.2354" stroke="white" stroke-linecap="round" stroke-linejoin="round"/>
<path d="M58.6324 48.6385V44.0214C60.7309 43.9648 62.8309 44.0316 64.9215 44.2215" stroke="white" stroke-linecap="round" stroke-linejoin="round"/>
<path d="M123.215 49.6591C121.415 48.7661 120.484 49.3311 120.506 51.3591C120.398 52.324 120.452 53.3 120.666 54.2471" stroke="white" stroke-linecap="round" stroke-linejoin="round"/>
<path d="M110.639 55.0943C111.517 54.5823 112.302 53.5614 113.393 54.8944C113.509 55.0411 113.595 55.2093 113.646 55.3894C113.697 55.5694 113.711 55.7577 113.688 55.9433C113.713 57.0753 113.697 58.2083 113.697 59.3433" stroke="white" stroke-linecap="round" stroke-linejoin="round"/>
<path d="M119.817 55.0946C119.163 54.7476 118.664 53.7946 117.793 54.2736C117.387 54.4999 117.065 54.8509 116.874 55.2746C116.684 55.6982 116.635 56.1719 116.735 56.6256C116.797 57.5296 116.805 58.4366 116.758 59.3416" stroke="white" stroke-linecap="round" stroke-linejoin="round"/>
<path d="M122.704 54.9261C122.507 54.6338 122.22 54.4136 121.887 54.2987C121.553 54.1838 121.192 54.1804 120.857 54.2891C120.467 54.485 120.152 54.8027 119.96 55.1941C119.768 55.5855 119.708 56.029 119.791 56.4571C119.855 57.4178 119.864 58.3815 119.816 59.3431" stroke="white" stroke-linecap="round" stroke-linejoin="round"/>
<path d="M113.358 32.3281V35.7281" stroke="white" stroke-linecap="round" stroke-linejoin="round"/>
<path d="M67.6406 32.3281C67.8096 33.5661 68.1736 34.8282 67.1306 35.8962" stroke="white" stroke-linecap="round" stroke-linejoin="round"/>
<path d="M85.8245 33.0062C84.8172 32.8088 83.7872 32.7533 82.7645 32.8412C82.1975 32.8112 81.9126 33.1172 81.9156 33.6852" stroke="white" stroke-linecap="round" stroke-linejoin="round"/>
<path d="M101.801 30.9688C101.759 31.9517 101.741 32.7758 103.155 32.8998C103.573 32.9632 103.962 33.1547 104.267 33.4481C104.573 33.7414 104.779 34.1221 104.86 34.5378" stroke="white" stroke-linecap="round" stroke-linejoin="round"/>
<path d="M50.8144 0.725586V3.78357" stroke="white" stroke-linecap="round" stroke-linejoin="round"/>
<path d="M66.2805 44.3916C66.5075 44.6756 66.7156 44.9766 66.9626 45.2386C68.7976 47.1736 69.7925 46.9646 71.0385 44.3916" stroke="white" stroke-linecap="round" stroke-linejoin="round"/>
<path d="M101.802 32.498L99.0815 33.688" stroke="white" stroke-linecap="round" stroke-linejoin="round"/>
<path d="M91.7736 25.363C91.8991 25.1116 91.9621 24.8337 91.9574 24.5527C91.9527 24.2718 91.8803 23.9961 91.7465 23.749H89.0815C88.9478 23.9962 88.8757 24.2718 88.871 24.5527C88.8663 24.8337 88.9293 25.1115 89.0546 25.363" stroke="white" stroke-linecap="round" stroke-linejoin="round"/>
<path d="M38.2375 33.5166C38.5775 33.5736 38.9155 33.6556 39.2575 33.6826C41.6355 33.8686 41.6364 33.8656 41.6364 36.2356" stroke="white" stroke-linecap="round" stroke-linejoin="round"/>
<path d="M108.429 44.2205C106.342 43.9728 104.237 43.9158 102.141 44.0505" stroke="white" stroke-linecap="round" stroke-linejoin="round"/>
<path d="M102.141 53.0566H107.749" stroke="white" stroke-linecap="round" stroke-linejoin="round"/>
<path d="M109.789 44.3916C110.037 45.4536 111.323 45.8236 111.488 46.9406" stroke="white" stroke-linecap="round" stroke-linejoin="round"/>
<path d="M113.868 55.0942C114.831 53.7252 115.793 54.1942 116.756 55.0942" stroke="white" stroke-linecap="round" stroke-linejoin="round"/>
<path d="M120.495 49.998C119.816 49.826 119.524 48.906 118.421 49.412C117.204 49.971 117.69 50.798 117.631 51.529C117.451 52.389 117.562 53.2845 117.945 54.075" stroke="white" stroke-linecap="round" stroke-linejoin="round"/>
<path d="M112.847 45.9209L111.317 46.0909" stroke="white" stroke-linecap="round" stroke-linejoin="round"/>
<path d="M115.056 49.6627C115.245 49.5144 115.461 49.4053 115.693 49.342C115.924 49.2786 116.166 49.2624 116.403 49.2941C116.641 49.3258 116.87 49.4048 117.077 49.5265C117.283 49.6483 117.463 49.8102 117.606 50.0027" stroke="white" stroke-linecap="round" stroke-linejoin="round"/>
<path d="M90.4134 20.4346V23.4926" stroke="white" stroke-linecap="round" stroke-linejoin="round"/>
</g>
<defs>
<clipPath id="clip0_96_456">
<rect width="127.643" height="75.373" fill="white" transform="translate(0.178497 0.225586)"/>
</clipPath>
</defs>
</svg>
