<svg width="126" height="48" viewBox="0 0 126 48" fill="none" xmlns="http://www.w3.org/2000/svg">
<g clip-path="url(#clip0_96_651)">
<path fill-rule="evenodd" clip-rule="evenodd" d="M53.4948 0.598633H53.3281V1.84196H53.4948V0.598633ZM49.8164 13.6836H49.6497V14.1319H49.8164V13.6836ZM53.433 17.6087C52.2763 17.6087 51.3346 18.5504 51.3346 19.707C51.3346 20.8637 52.2763 21.8054 53.433 21.8054C54.5896 21.8054 55.533 20.8637 55.533 19.707C55.533 18.5504 54.5913 17.6087 53.433 17.6087ZM53.433 21.6404C52.368 21.6404 51.5013 20.7737 51.5013 19.7087C51.5013 18.6437 52.368 17.777 53.433 17.777C54.498 17.777 55.3663 18.6437 55.3663 19.7087C55.3663 20.7737 54.4996 21.6404 53.433 21.6404ZM67.1871 27.2269H66.5221C66.4305 27.2269 66.3555 27.1519 66.3555 27.0602V25.6136C66.3555 25.3369 66.5805 25.1136 66.8555 25.1136C67.1305 25.1136 67.3538 25.3386 67.3538 25.6136V27.0602C67.3538 27.1519 67.2788 27.2269 67.1871 27.2269ZM66.8555 25.4452C66.7638 25.4452 66.6888 25.5202 66.6888 25.6119V26.8919H67.0205V25.6119C67.0205 25.5202 66.9471 25.4452 66.8555 25.4452ZM85.6732 27.2269H85.0082H85.0065C84.9148 27.2269 84.8398 27.1519 84.8398 27.0602V25.6136C84.8398 25.3369 85.0632 25.1136 85.3398 25.1136C85.6165 25.1136 85.8398 25.3386 85.8398 25.6136V27.0602C85.8398 27.1519 85.7648 27.2269 85.6732 27.2269ZM85.3415 25.4452C85.2498 25.4452 85.1748 25.5202 85.1748 25.6119H85.1765V26.8919H85.5082V25.6119C85.5082 25.5202 85.4332 25.4452 85.3415 25.4452ZM86.7917 27.2269H86.1267H86.125C86.0333 27.2269 85.9583 27.1519 85.9583 27.0602V25.6136C85.9583 25.3369 86.1817 25.1136 86.4583 25.1136C86.735 25.1136 86.9583 25.3386 86.9583 25.6136V27.0602C86.9583 27.1519 86.8833 27.2269 86.7917 27.2269ZM86.46 25.4452C86.3683 25.4452 86.2933 25.5202 86.2933 25.6119H86.295V26.8919H86.6267V25.6119C86.6267 25.5202 86.5517 25.4452 86.46 25.4452ZM87.2451 27.2269H87.9102C88.0018 27.2269 88.0768 27.1519 88.0768 27.0602V25.6136C88.0768 25.3386 87.8535 25.1136 87.5768 25.1136C87.3002 25.1136 87.0768 25.3369 87.0768 25.6136V27.0602C87.0768 27.1519 87.1518 27.2269 87.2435 27.2269H87.2451ZM87.4118 25.6119C87.4118 25.5202 87.4868 25.4452 87.5785 25.4452C87.6701 25.4452 87.7451 25.5202 87.7451 25.6119V26.8919H87.4135V25.6119H87.4118ZM84.8411 30.3187C84.8411 30.0423 85.0657 29.8191 85.3403 29.8187C85.6166 29.8191 85.8395 30.0439 85.8395 30.3187V31.7653C85.8395 31.857 85.7645 31.932 85.6728 31.932H85.0078C84.9161 31.932 84.8411 31.857 84.8411 31.7653V30.3187ZM85.1761 31.5987H85.5078H85.5095V30.3187C85.5095 30.227 85.4345 30.152 85.3428 30.152C85.2512 30.152 85.1761 30.227 85.1761 30.3187V31.5987ZM86.4588 29.8187C86.1842 29.8191 85.9596 30.0423 85.9596 30.3187V31.7653C85.9596 31.857 86.0346 31.932 86.1263 31.932H86.7913C86.883 31.932 86.958 31.857 86.958 31.7653V30.3187C86.958 30.0439 86.7351 29.8191 86.4588 29.8187ZM86.293 31.5987V30.3187C86.293 30.227 86.368 30.152 86.4596 30.152C86.5513 30.152 86.6263 30.227 86.6263 30.3187V31.5987H86.6246H86.293ZM87.0768 30.3187C87.0768 30.0423 87.3014 29.8191 87.576 29.8187C87.8523 29.8191 88.0751 30.0439 88.0751 30.3187V31.7653C88.0751 31.857 88.0002 31.932 87.9085 31.932H87.2435C87.1518 31.932 87.0768 31.857 87.0768 31.7653V30.3187ZM87.4118 31.5987H87.7435H87.7451V30.3187C87.7451 30.227 87.6701 30.152 87.5785 30.152C87.4868 30.152 87.4118 30.227 87.4118 30.3187V31.5987ZM85.3403 34.5237C85.0657 34.5242 84.8411 34.7473 84.8411 35.0237V36.4704C84.8411 36.5621 84.9161 36.6371 85.0078 36.6371H85.6728C85.7645 36.6371 85.8395 36.5621 85.8395 36.4704V35.0237C85.8395 34.749 85.6166 34.5242 85.3403 34.5237ZM85.5078 36.3037H85.1761V35.0237C85.1761 34.9321 85.2512 34.8571 85.3428 34.8571C85.4345 34.8571 85.5095 34.9321 85.5095 35.0237V36.3037H85.5078ZM85.9596 35.0237C85.9596 34.7473 86.1842 34.5242 86.4588 34.5237C86.7351 34.5242 86.958 34.749 86.958 35.0237V36.4704C86.958 36.5621 86.883 36.6371 86.7913 36.6371H86.1263C86.0346 36.6371 85.9596 36.5621 85.9596 36.4704V35.0237ZM86.293 35.0237V36.3037H86.6246H86.6263V35.0237C86.6263 34.9321 86.5513 34.8571 86.4596 34.8571C86.368 34.8571 86.293 34.9321 86.293 35.0237ZM87.576 34.5237C87.3014 34.5242 87.0768 34.7473 87.0768 35.0237V36.4704C87.0768 36.5621 87.1518 36.6371 87.2435 36.6371H87.9085C88.0002 36.6371 88.0751 36.5621 88.0751 36.4704V35.0237C88.0751 34.749 87.8523 34.5242 87.576 34.5237ZM87.7435 36.3037H87.4118V35.0237C87.4118 34.9321 87.4868 34.8571 87.5785 34.8571C87.6701 34.8571 87.7451 34.9321 87.7451 35.0237V36.3037H87.7435ZM67.6397 27.2269H68.3047C68.3964 27.2269 68.4714 27.1519 68.4714 27.0602V25.6136C68.4714 25.3386 68.248 25.1136 67.9714 25.1136C67.6947 25.1136 67.4714 25.3369 67.4714 25.6136V27.0602C67.4714 27.1519 67.5463 27.2269 67.638 27.2269H67.6397ZM67.8064 25.6119C67.8064 25.5202 67.8814 25.4452 67.973 25.4452C68.0647 25.4452 68.1397 25.5202 68.1397 25.6119V26.8919H67.808V25.6119H67.8064ZM69.4232 27.2269H68.7582H68.7565C68.6648 27.2269 68.5898 27.1519 68.5898 27.0602V25.6136C68.5898 25.3369 68.8132 25.1136 69.0898 25.1136C69.3665 25.1136 69.5898 25.3386 69.5898 25.6136V27.0602C69.5898 27.1519 69.5148 27.2269 69.4232 27.2269ZM69.0915 25.4452C68.9998 25.4452 68.9248 25.5202 68.9248 25.6119H68.9265V26.8919H69.2582V25.6119C69.2582 25.5202 69.1832 25.4452 69.0915 25.4452ZM66.8555 29.8187C66.5805 29.8187 66.3555 30.042 66.3555 30.3187V31.7653C66.3555 31.857 66.4305 31.932 66.5221 31.932H67.1871C67.2788 31.932 67.3538 31.857 67.3538 31.7653V30.3187C67.3538 30.0437 67.1305 29.8187 66.8555 29.8187ZM67.0205 31.5987H66.6888V30.3187C66.6888 30.227 66.7638 30.152 66.8555 30.152C66.9471 30.152 67.0205 30.227 67.0205 30.3187V31.5987ZM67.4714 30.3187C67.4714 30.0423 67.6959 29.8191 67.9705 29.8187C68.2468 29.8191 68.4697 30.0439 68.4697 30.3187V31.7653C68.4697 31.857 68.3947 31.932 68.303 31.932H67.638C67.5463 31.932 67.4714 31.857 67.4714 31.7653V30.3187ZM67.8064 31.5987H68.138H68.1397V30.3187C68.1397 30.227 68.0647 30.152 67.973 30.152C67.8814 30.152 67.8064 30.227 67.8064 30.3187V31.5987ZM69.089 29.8187C68.8144 29.8191 68.5898 30.0423 68.5898 30.3187V31.7653C68.5898 31.857 68.6648 31.932 68.7565 31.932H69.4215C69.5132 31.932 69.5882 31.857 69.5882 31.7653V30.3187C69.5882 30.0439 69.3653 29.8191 69.089 29.8187ZM69.2565 31.5987H68.9248V30.3187C68.9248 30.227 68.9998 30.152 69.0915 30.152C69.1832 30.152 69.2582 30.227 69.2582 30.3187V31.5987H69.2565ZM66.3555 35.0237C66.3555 34.7471 66.5805 34.5237 66.8555 34.5237C67.1305 34.5237 67.3538 34.7487 67.3538 35.0237V36.4704C67.3538 36.5621 67.2788 36.6371 67.1871 36.6371H66.5221C66.4305 36.6371 66.3555 36.5621 66.3555 36.4704V35.0237ZM66.6888 36.3037H67.0205V35.0237C67.0205 34.9321 66.9471 34.8571 66.8555 34.8571C66.7638 34.8571 66.6888 34.9321 66.6888 35.0237V36.3037ZM67.9705 34.5237C67.6959 34.5242 67.4714 34.7473 67.4714 35.0237V36.4704C67.4714 36.5621 67.5463 36.6371 67.638 36.6371H68.303C68.3947 36.6371 68.4697 36.5621 68.4697 36.4704V35.0237C68.4697 34.749 68.2468 34.5242 67.9705 34.5237ZM68.138 36.3037H67.8064V35.0237C67.8064 34.9321 67.8814 34.8571 67.973 34.8571C68.0647 34.8571 68.1397 34.9321 68.1397 35.0237V36.3037H68.138ZM68.5898 35.0237C68.5898 34.7473 68.8144 34.5242 69.089 34.5237C69.3653 34.5242 69.5882 34.749 69.5882 35.0237V36.4704C69.5882 36.5621 69.5132 36.6371 69.4215 36.6371H68.7565C68.6648 36.6371 68.5898 36.5621 68.5898 36.4704V35.0237ZM68.9248 36.3037H69.2565H69.2582V35.0237C69.2582 34.9321 69.1832 34.8571 69.0915 34.8571C68.9998 34.8571 68.9248 34.9321 68.9248 35.0237V36.3037ZM96.6888 25.9687H96.5221V26.5287H96.6888V25.9687ZM101.453 25.9687H101.62V26.5287H101.453V25.9687ZM100.138 34.7069C100.23 34.7069 100.305 34.6319 100.305 34.5402V33.8619C100.305 33.1819 99.7519 32.6285 99.0719 32.6285C98.3919 32.6285 97.8385 33.1819 97.8385 33.8619V34.5402C97.8385 34.6319 97.9135 34.7069 98.0052 34.7069H100.138ZM99.9719 33.8619V34.3735H99.2385V32.9769C99.6552 33.0552 99.9719 33.4219 99.9719 33.8619ZM98.1702 33.8619C98.1702 33.4219 98.4869 33.0552 98.9035 32.9769V34.3735H98.1702V33.8619ZM108.146 38.5454H106.913C106.821 38.5454 106.746 38.4704 106.746 38.3787V36.4271C106.746 36.3354 106.821 36.2604 106.913 36.2604H108.146C108.238 36.2604 108.313 36.3354 108.313 36.4271V38.3787C108.313 38.4704 108.238 38.5454 108.146 38.5454ZM107.696 38.212H107.979V36.5937H107.696V38.212ZM107.363 36.5937H107.079V38.212H107.363V36.5937ZM110.743 38.5454H111.977C112.068 38.5454 112.143 38.4704 112.143 38.3787V36.4271C112.143 36.3354 112.068 36.2604 111.977 36.2604H110.743C110.652 36.2604 110.577 36.3354 110.577 36.4271V38.3787C110.577 38.4704 110.652 38.5454 110.743 38.5454ZM111.81 38.212H111.527V36.5937H111.81V38.212ZM110.91 36.5937H111.193V38.212H110.91V36.5937ZM111.977 42.4103H110.743C110.652 42.4103 110.577 42.3353 110.577 42.2436V40.292C110.577 40.2003 110.652 40.1253 110.743 40.1253H111.977C112.068 40.1253 112.143 40.2003 112.143 40.292V42.2436C112.143 42.3353 112.068 42.4103 111.977 42.4103ZM111.527 42.077H111.81V40.4586H111.527V42.077ZM111.193 40.4586H110.91V42.077H111.193V40.4586ZM98.4452 29.832C98.4185 29.7704 98.3185 29.7704 98.2919 29.832L97.8469 30.862C97.8352 30.887 97.8385 30.917 97.8535 30.9404C97.8685 30.9637 97.8952 30.9787 97.9235 30.9787H98.8119C98.8402 30.9787 98.8669 30.9654 98.8819 30.9404C98.8969 30.917 98.9002 30.887 98.8885 30.862L98.4435 29.832H98.4452ZM98.0502 30.812L98.3685 30.0754L98.6869 30.812H98.0519H98.0502ZM99.8228 29.8319L100.268 30.8619C100.28 30.8869 100.276 30.9169 100.261 30.9402C100.246 30.9652 100.219 30.9785 100.191 30.9785H99.3011C99.2728 30.9785 99.2461 30.9635 99.2311 30.9402C99.2161 30.9169 99.2128 30.8869 99.2245 30.8619L99.6695 29.8319C99.6828 29.8019 99.7128 29.7819 99.7461 29.7819C99.7795 29.7819 99.8095 29.8019 99.8228 29.8319ZM99.7478 30.0752L99.4295 30.8119H100.066L99.7478 30.0752ZM113.607 25.9687H113.44V26.5287H113.607V25.9687ZM118.371 25.9687H118.538V26.5287H118.371V25.9687ZM117.057 34.7069C117.148 34.7069 117.223 34.6319 117.223 34.5402V33.8619C117.223 33.1819 116.67 32.6285 115.99 32.6285C115.31 32.6285 114.757 33.1819 114.757 33.8619V34.5402C114.757 34.6319 114.832 34.7069 114.923 34.7069H117.057ZM116.89 33.8619V34.3735H116.157V32.9769C116.573 33.0552 116.89 33.4219 116.89 33.8619ZM115.088 33.8619C115.088 33.4219 115.405 33.0552 115.822 32.9769V34.3735H115.088V33.8619ZM114.922 36.2604H117.057C117.149 36.2604 117.224 36.3354 117.224 36.4271V38.3787C117.224 38.4704 117.149 38.5454 117.057 38.5454H114.922C114.83 38.5454 114.755 38.4704 114.755 38.3787V36.4271C114.755 36.3354 114.83 36.2604 114.922 36.2604ZM115.822 36.5937H115.089V38.212H115.822V36.5937ZM116.157 38.212H116.89V36.5937H116.157V38.212ZM117.057 40.1253H114.922C114.83 40.1253 114.755 40.2003 114.755 40.292V42.2436C114.755 42.3353 114.83 42.4103 114.922 42.4103H117.057C117.149 42.4103 117.224 42.3353 117.224 42.2436V40.292C117.224 40.2003 117.149 40.1253 117.057 40.1253ZM115.089 40.4586H115.822V42.077H115.089V40.4586ZM116.89 42.077H116.157V40.4586H116.89V42.077ZM115.286 29.7819C115.32 29.7819 115.35 29.8019 115.363 29.8319H115.361L115.806 30.8619C115.818 30.8869 115.815 30.9169 115.8 30.9402C115.785 30.9652 115.758 30.9785 115.73 30.9785H114.841C114.813 30.9785 114.786 30.9635 114.771 30.9402C114.756 30.9169 114.753 30.8869 114.765 30.8619L115.21 29.8319C115.223 29.8019 115.253 29.7819 115.286 29.7819ZM115.286 30.0752L114.968 30.8119H114.97H115.605L115.286 30.0752ZM117.187 30.862L116.742 29.832C116.715 29.7704 116.615 29.7704 116.589 29.832L116.144 30.862C116.132 30.887 116.135 30.917 116.15 30.9404C116.165 30.9637 116.192 30.9787 116.22 30.9787H117.11C117.139 30.9787 117.165 30.9654 117.18 30.9404C117.195 30.9154 117.199 30.887 117.187 30.862ZM116.347 30.812L116.665 30.0754L116.984 30.812H116.347ZM104.315 34.8953H103.082C103.052 34.8953 103.025 34.8803 103.01 34.8553C102.995 34.8303 102.995 34.8003 103.008 34.7736L103.625 33.6286C103.64 33.6019 103.668 33.5853 103.699 33.5853C103.729 33.5853 103.757 33.6019 103.772 33.6286L104.389 34.7736C104.402 34.7986 104.402 34.8303 104.387 34.8553C104.372 34.8803 104.345 34.8953 104.315 34.8953ZM104.175 34.7303L103.699 33.8436L103.222 34.7303H104.175ZM106.914 34.8952H108.147C108.177 34.8952 108.204 34.8802 108.219 34.8552C108.234 34.8302 108.234 34.7985 108.221 34.7735L107.604 33.6285C107.576 33.5752 107.486 33.5752 107.457 33.6285L106.841 34.7735C106.827 34.7985 106.827 34.8302 106.842 34.8552C106.857 34.8802 106.884 34.8952 106.914 34.8952ZM107.531 33.8435L108.007 34.7302H107.054L107.531 33.8435ZM111.977 34.8953H110.743C110.713 34.8953 110.687 34.8803 110.672 34.8553C110.657 34.8303 110.657 34.8003 110.67 34.7736L111.287 33.6286C111.302 33.6019 111.33 33.5853 111.36 33.5853C111.39 33.5853 111.418 33.6019 111.433 33.6286L112.05 34.7736C112.063 34.7986 112.063 34.8303 112.048 34.8553C112.033 34.8803 112.007 34.8953 111.977 34.8953ZM111.837 34.7303L111.36 33.8436L110.883 34.7303H111.837ZM53.2669 18.1051H53.6003V19.5401H54.4286V19.8734H53.4336C53.3419 19.8734 53.2669 19.7984 53.2669 19.7068V18.1051ZM57.0495 13.6836H57.2161V14.1319H57.0495V13.6836ZM51.2721 23.6087H50.9388V25.1737H51.2721V23.6087ZM51.599 23.6087H51.7656V25.1737H51.599V23.6087ZM52.4245 23.6087H52.0911V25.1737H52.4245V23.6087ZM52.7513 23.6087H52.918V25.1737H52.7513V23.6087ZM53.5781 23.6087H53.2448V25.1737H53.5781V23.6087ZM53.9062 23.6087H54.0729V25.1737H53.9062V23.6087ZM54.7331 23.6087H54.3997V25.1737H54.7331V23.6087ZM55.0599 23.6087H55.2266V25.1737H55.0599V23.6087ZM55.8867 23.6087H55.5534V25.1737H55.8867V23.6087ZM51.3932 26.1735H51.9699C52.0616 26.1735 52.1366 26.2485 52.1366 26.3401V29.0285C52.1366 29.1201 52.0616 29.1951 51.9699 29.1951H51.3932C51.3016 29.1951 51.2266 29.1201 51.2266 29.0285V26.3401C51.2266 26.2485 51.3016 26.1735 51.3932 26.1735ZM51.5599 28.8618H51.8032V26.5068H51.5599V28.8618ZM53.1248 26.1735H52.5482C52.4565 26.1735 52.3815 26.2485 52.3815 26.3401V29.0285C52.3815 29.1201 52.4565 29.1951 52.5482 29.1951H53.1248C53.2165 29.1951 53.2915 29.1201 53.2915 29.0285V26.3401C53.2915 26.2485 53.2165 26.1735 53.1248 26.1735ZM52.9582 28.8618H52.7148V26.5068H52.9582V28.8618ZM53.7018 26.1735H54.2785C54.3702 26.1735 54.4452 26.2485 54.4452 26.3401V29.0285C54.4452 29.1201 54.3702 29.1951 54.2785 29.1951H53.7018C53.6102 29.1951 53.5352 29.1201 53.5352 29.0285V26.3401C53.5352 26.2485 53.6102 26.1735 53.7018 26.1735ZM53.8685 28.8618H54.1118V26.5068H53.8685V28.8618ZM55.4321 26.1735H54.8555C54.7638 26.1735 54.6888 26.2485 54.6888 26.3401V29.0285C54.6888 29.1201 54.7638 29.1951 54.8555 29.1951H55.4321C55.5238 29.1951 55.5988 29.1201 55.5988 29.0285V26.3401C55.5988 26.2485 55.5238 26.1735 55.4321 26.1735ZM55.2655 28.8618H55.0221V26.5068H55.2655V28.8618ZM51.3932 30.4703H51.9699C52.0616 30.4703 52.1366 30.5453 52.1366 30.637V33.3253C52.1366 33.417 52.0616 33.492 51.9699 33.492H51.3932C51.3016 33.492 51.2266 33.417 51.2266 33.3253V30.637C51.2266 30.5453 51.3016 30.4703 51.3932 30.4703ZM51.5599 33.1587H51.8032V30.8037H51.5599V33.1587ZM53.1248 30.4703H52.5482C52.4565 30.4703 52.3815 30.5453 52.3815 30.637V33.3253C52.3815 33.417 52.4565 33.492 52.5482 33.492H53.1248C53.2165 33.492 53.2915 33.417 53.2915 33.3253V30.637C53.2915 30.5453 53.2165 30.4703 53.1248 30.4703ZM52.9582 33.1587H52.7148V30.8037H52.9582V33.1587ZM53.7018 30.4703H54.2785C54.3702 30.4703 54.4452 30.5453 54.4452 30.637V33.3253C54.4452 33.417 54.3702 33.492 54.2785 33.492H53.7018C53.6102 33.492 53.5352 33.417 53.5352 33.3253V30.637C53.5352 30.5453 53.6102 30.4703 53.7018 30.4703ZM53.8685 33.1587H54.1118V30.8037H53.8685V33.1587ZM55.4321 30.4703H54.8555C54.7638 30.4703 54.6888 30.5453 54.6888 30.637V33.3253C54.6888 33.417 54.7638 33.492 54.8555 33.492H55.4321C55.5238 33.492 55.5988 33.417 55.5988 33.3253V30.637C55.5988 30.5453 55.5238 30.4703 55.4321 30.4703ZM55.2655 33.1587H55.0221V30.8037H55.2655V33.1587ZM51.9699 37.7886H51.3932C51.3016 37.7886 51.2266 37.7136 51.2266 37.6219V34.9336C51.2266 34.8419 51.3016 34.7669 51.3932 34.7669H51.9699C52.0616 34.7669 52.1366 34.8419 52.1366 34.9336V37.6219C52.1366 37.7136 52.0616 37.7886 51.9699 37.7886ZM51.8032 35.1002H51.5599V37.4552H51.8032V35.1002ZM125.5 45.4071H82.935V45.4104H81.9167V46.3621H125.5V46.6954H81.75C81.6583 46.6954 81.5833 46.6204 81.5833 46.5287V45.2437C81.5833 45.1521 81.6583 45.0771 81.75 45.0771H82.7683V41.3004C82.7683 41.2687 82.78 41.2404 82.795 41.2154C82.2583 40.7621 80.6983 39.6071 77.51 38.3654L77.6317 38.0554L83.365 40.2887V37.5321H82.935V37.1987H83.365V32.9321H82.935V32.5987H83.365V28.3321H82.935V27.9987H83.365V26.0554H71.08V27.9987H71.42V28.3321H71.08V32.5987H71.42V32.9321H71.08V37.1987H71.42V37.5321H71.08V40.2804L76.7917 38.0571L76.9133 38.3671C73.6117 39.6521 72.0617 40.8387 71.5783 41.2571C71.5817 41.2721 71.5867 41.2871 71.5867 41.3021V45.0787H72.625C72.7167 45.0787 72.7917 45.1537 72.7917 45.2454V46.5304C72.7917 46.6221 72.7167 46.6971 72.625 46.6971H0.5V46.3637H72.4583V45.4121H47.4717C47.455 45.4171 47.4367 45.4204 47.4183 45.4204H37.6267C37.6083 45.4204 37.59 45.4171 37.5733 45.4121H6.75167H6.41833H0.5V45.0787H6.43333V44.0737C6.215 44.0387 6.01333 43.9387 5.855 43.7787C5.65667 43.5804 5.54833 43.3154 5.54833 43.0337C5.55 42.7687 5.655 41.7787 5.815 40.8887C6.11167 39.2337 6.37167 39.0037 6.60833 39.0037C6.84667 39.0037 7.105 39.2337 7.39667 40.8921C7.55167 41.7821 7.655 42.7737 7.655 43.0387C7.655 43.3204 7.545 43.5854 7.345 43.7837C7.18667 43.9421 6.985 44.0437 6.765 44.0771V45.0804H9.27167V44.0554C9.05333 44.0204 8.85167 43.9204 8.69333 43.7604C8.495 43.5621 8.38667 43.2971 8.38667 43.0154C8.38667 42.5004 8.79833 41.2837 9.44167 41.2837C10.085 41.2854 10.4917 42.5037 10.4917 43.0187C10.4917 43.5437 10.105 43.9771 9.60167 44.0571V45.0821H15.885L16.625 42.3271C14.235 41.6421 12.045 40.4171 10.2267 38.7154L10.2167 38.7054C9.86667 38.3154 9.92167 37.9321 10.1333 37.7254C10.365 37.4987 10.81 37.4437 11.1817 37.7904C12.825 39.3287 14.805 40.4404 16.9633 41.0687L17.1167 40.4954C16.9483 40.4121 16.8067 40.2804 16.71 40.1137C16.5817 39.8904 16.5467 39.6304 16.6133 39.3821C16.7333 38.9304 17.1583 38.6404 17.6067 38.6704L17.6883 38.3687C16.7167 38.0921 15.79 37.7054 14.9267 37.2187L14.77 37.4904C14.9217 37.6171 15.0317 37.7854 15.0833 37.9787C15.15 38.2271 15.115 38.4871 14.9867 38.7104C14.8583 38.9321 14.65 39.0921 14.4017 39.1587C14.3183 39.1804 14.2333 39.1921 14.15 39.1921C13.9833 39.1921 13.8183 39.1487 13.67 39.0621C13.4483 38.9337 13.2883 38.7254 13.2217 38.4771C13.155 38.2287 13.19 37.9687 13.3183 37.7454C13.555 37.3354 14.0517 37.1671 14.4833 37.3237L14.64 37.0537C13.7733 36.5354 12.9733 35.9187 12.2533 35.2171L12.0283 35.4421C12.2917 35.8187 12.2567 36.3404 11.9217 36.6754C11.74 36.8571 11.4967 36.9571 11.24 36.9571C10.9817 36.9571 10.74 36.8571 10.5583 36.6754C10.375 36.4937 10.275 36.2521 10.275 35.9937C10.275 35.7354 10.3767 35.4937 10.5583 35.3121C10.74 35.1287 10.9817 35.0287 11.24 35.0287C11.44 35.0287 11.63 35.0921 11.7917 35.2054L12.015 34.9821C11.3133 34.2637 10.6967 33.4621 10.1783 32.5954L9.90667 32.7521C9.97333 32.9371 9.985 33.1371 9.93333 33.3304C9.86667 33.5787 9.70833 33.7871 9.485 33.9154C9.33667 34.0021 9.17167 34.0454 9.005 34.0454C8.92 34.0454 8.83667 34.0337 8.75333 34.0121C8.505 33.9454 8.29667 33.7854 8.16833 33.5621C8.03833 33.3387 8.005 33.0787 8.07167 32.8304C8.13833 32.5821 8.29833 32.3737 8.52167 32.2454C8.93167 32.0087 9.44667 32.1104 9.74167 32.4621L10.0117 32.3054C9.52333 31.4354 9.13333 30.5037 8.85667 29.5237L8.55667 29.6037C8.575 29.7987 8.53333 29.9954 8.43333 30.1687C8.305 30.3904 8.09667 30.5504 7.84833 30.6171C7.765 30.6387 7.68 30.6504 7.59667 30.6504C7.43 30.6504 7.265 30.6054 7.11667 30.5204C6.895 30.3921 6.735 30.1837 6.66833 29.9354C6.53167 29.4221 6.83667 28.8937 7.35 28.7554C7.80833 28.6321 8.27833 28.8637 8.47167 29.2804L8.76833 29.2004C8.525 28.2421 8.39167 27.2421 8.37833 26.2121H8.06833C7.98833 26.6637 7.595 27.0087 7.12 27.0087C6.58833 27.0087 6.15667 26.5771 6.15667 26.0454C6.15667 25.5137 6.58833 25.0821 7.12 25.0821C7.595 25.0821 7.98833 25.4271 8.06833 25.8787H8.37833C8.39167 24.8487 8.525 23.8487 8.76833 22.8904L8.47 22.8104C8.38833 22.9887 8.25333 23.1387 8.08 23.2387C7.93167 23.3254 7.76667 23.3687 7.6 23.3687C7.515 23.3687 7.43167 23.3571 7.34833 23.3354C7.1 23.2687 6.89167 23.1104 6.76333 22.8871C6.63333 22.6637 6.6 22.4037 6.66667 22.1554C6.80333 21.6421 7.335 21.3371 7.84667 21.4737C8.305 21.5971 8.59667 22.0321 8.55667 22.4887L8.85667 22.5687C9.13333 21.5887 9.52167 20.6571 10.0117 19.7871L9.74 19.6304C9.61333 19.7821 9.445 19.8921 9.25167 19.9437C9.16833 19.9654 9.08333 19.9771 9 19.9771C8.83333 19.9771 8.66833 19.9321 8.52 19.8471C8.29833 19.7187 8.13833 19.5104 8.07167 19.2621C8.005 19.0137 8.04 18.7537 8.16833 18.5304C8.435 18.0704 9.025 17.9121 9.485 18.1771C9.89667 18.4137 10.065 18.9087 9.90833 19.3404L10.1783 19.4971C10.6967 18.6304 11.3133 17.8304 12.015 17.1104L11.79 16.8854C11.63 16.9987 11.44 17.0621 11.2383 17.0621C10.98 17.0621 10.7383 16.9621 10.5567 16.7804C10.375 16.5987 10.275 16.3571 10.275 16.0987C10.275 15.8404 10.3767 15.5987 10.5583 15.4171C10.935 15.0421 11.545 15.0421 11.9217 15.4171C12.1033 15.5987 12.2033 15.8421 12.2033 16.0987C12.2033 16.2987 12.1417 16.4904 12.0283 16.6504L12.2533 16.8754C12.9717 16.1737 13.7733 15.5571 14.64 15.0387L14.4833 14.7671C14.3767 14.8071 14.265 14.8271 14.155 14.8271C13.8217 14.8271 13.4967 14.6537 13.3183 14.3454C13.1883 14.1221 13.155 13.8621 13.2217 13.6137C13.2883 13.3654 13.4483 13.1571 13.6717 13.0287C14.1317 12.7637 14.7217 12.9221 14.9883 13.3821C15.225 13.7937 15.1233 14.3071 14.7717 14.6021L14.9283 14.8721C15.7983 14.3837 16.73 13.9937 17.71 13.7171L17.63 13.4171C17.6208 13.4176 17.6114 13.4183 17.602 13.4191C17.5824 13.4206 17.5625 13.4221 17.5433 13.4221C17.3767 13.4221 17.2117 13.3771 17.0633 13.2921C16.8417 13.1637 16.6817 12.9554 16.615 12.7071C16.4783 12.1937 16.7833 11.6654 17.2967 11.5271C17.8083 11.3904 18.3383 11.6954 18.4767 12.2087C18.5983 12.6671 18.3683 13.1371 17.9517 13.3304L18.0317 13.6271C18.99 13.3837 19.99 13.2504 21.02 13.2371V12.9271C20.5667 12.8487 20.2217 12.4537 20.2217 11.9787C20.2217 11.7204 20.3217 11.4787 20.5033 11.2971C20.685 11.1154 20.9283 11.0154 21.185 11.0154C21.7167 11.0154 22.1483 11.4471 22.1483 11.9787C22.1483 12.4537 21.8033 12.8471 21.3517 12.9271V13.2371C22.38 13.2504 23.38 13.3837 24.3383 13.6271L24.4183 13.3304C24.24 13.2471 24.09 13.1137 23.99 12.9404C23.86 12.7171 23.8267 12.4571 23.8933 12.2087C23.96 11.9604 24.1183 11.7521 24.3417 11.6237C24.565 11.4954 24.825 11.4604 25.0733 11.5271C25.5867 11.6637 25.8917 12.1937 25.755 12.7071C25.6867 12.9554 25.5283 13.1637 25.305 13.2921C25.1567 13.3787 24.9917 13.4221 24.825 13.4221C24.7967 13.4221 24.7667 13.4204 24.7383 13.4171L24.6583 13.7154C25.6383 13.9921 26.5717 14.3804 27.4417 14.8704L27.5983 14.6004C27.4467 14.4737 27.3367 14.3054 27.285 14.1121C27.2183 13.8637 27.2533 13.6037 27.3817 13.3804C27.51 13.1587 27.7183 12.9987 27.9667 12.9321C28.215 12.8654 28.475 12.9004 28.6983 13.0287C29.1583 13.2937 29.3167 13.8854 29.0517 14.3454C28.8733 14.6537 28.5483 14.8271 28.215 14.8271C28.105 14.8271 27.995 14.8054 27.8883 14.7671L27.7333 15.0371C28.6 15.5554 29.4 16.1721 30.12 16.8737L30.3433 16.6504C30.23 16.4904 30.1667 16.3004 30.1667 16.0987C30.1667 15.8404 30.2667 15.5987 30.4483 15.4171C30.825 15.0404 31.435 15.0404 31.8117 15.4171C32.1867 15.7937 32.1867 16.4054 31.8117 16.7804C31.6233 16.9687 31.3767 17.0621 31.13 17.0621C30.9367 17.0621 30.7433 17.0021 30.5783 16.8871L30.355 17.1104C31.0567 17.8287 31.6733 18.6304 32.1917 19.4971L32.46 19.3421C32.3917 19.1571 32.3817 18.9571 32.4333 18.7621C32.5 18.5137 32.6583 18.3054 32.8817 18.1771C33.3417 17.9121 33.9333 18.0704 34.1983 18.5304C34.4633 18.9904 34.305 19.5804 33.845 19.8471C33.6967 19.9337 33.5317 19.9771 33.365 19.9771C33.28 19.9771 33.1967 19.9654 33.1133 19.9437C32.9183 19.8904 32.7517 19.7821 32.625 19.6304L32.355 19.7854C32.8433 20.6571 33.2333 21.5887 33.51 22.5687L33.8083 22.4887C33.79 22.2921 33.8317 22.0954 33.9317 21.9221C34.06 21.7004 34.2683 21.5404 34.5167 21.4737C35.0283 21.3354 35.5583 21.6421 35.6967 22.1554C35.7633 22.4037 35.7283 22.6637 35.6 22.8871C35.4717 23.1087 35.2633 23.2687 35.015 23.3354C34.9317 23.3571 34.8467 23.3687 34.7633 23.3687C34.5967 23.3687 34.4317 23.3237 34.2833 23.2387C34.11 23.1387 33.9767 22.9887 33.8933 22.8104L33.5983 22.8887C33.8417 23.8471 33.975 24.8471 33.9883 25.8771H34.2967C34.3767 25.4254 34.77 25.0804 35.245 25.0804C35.7767 25.0804 36.2083 25.5121 36.2083 26.0437C36.2083 26.5754 35.7767 27.0071 35.245 27.0071C34.77 27.0071 34.3767 26.6621 34.2967 26.2104H33.9883C33.975 27.2404 33.8417 28.2404 33.5983 29.1987L33.8933 29.2771C33.9767 29.0987 34.11 28.9487 34.2833 28.8487C34.5067 28.7187 34.7667 28.6854 35.015 28.7521C35.2633 28.8204 35.4717 28.9787 35.6 29.2021C35.7283 29.4254 35.7617 29.6854 35.695 29.9337C35.6283 30.1821 35.47 30.3904 35.2467 30.5187C35.0983 30.6054 34.9333 30.6487 34.7667 30.6487C34.6833 30.6487 34.6 30.6371 34.5167 30.6154C34.2683 30.5487 34.06 30.3887 33.9317 30.1654C33.8317 29.9904 33.79 29.7937 33.8083 29.5987L33.51 29.5187C33.2333 30.4987 32.845 31.4304 32.355 32.3004L32.6233 32.4554C32.9183 32.1037 33.4317 32.0021 33.8433 32.2387C34.0667 32.3671 34.2267 32.5754 34.2933 32.8237C34.36 33.0721 34.325 33.3321 34.1967 33.5554C34.0683 33.7771 33.86 33.9371 33.6117 34.0037C33.5283 34.0254 33.4433 34.0371 33.36 34.0371C33.1933 34.0371 33.0283 33.9921 32.88 33.9071C32.6583 33.7787 32.4983 33.5704 32.4317 33.3221C32.38 33.1271 32.39 32.9271 32.4583 32.7421L32.19 32.5871C31.6717 33.4537 31.055 34.2537 30.3533 34.9737L30.5767 35.1971C30.7367 35.0837 30.9283 35.0204 31.1283 35.0204C31.3867 35.0204 31.6283 35.1204 31.81 35.3021C31.9917 35.4837 32.0917 35.7254 32.0917 35.9837C32.0917 36.2421 31.99 36.4837 31.8083 36.6654C31.6267 36.8471 31.3833 36.9471 31.1267 36.9471C30.8683 36.9471 30.6267 36.8471 30.445 36.6654C30.2633 36.4837 30.1633 36.2404 30.1633 35.9837C30.1633 35.7837 30.2267 35.5921 30.34 35.4321L30.1167 35.2087C29.3983 35.9104 28.5967 36.5271 27.73 37.0454L27.885 37.3137C28.315 37.1571 28.8117 37.3271 29.0483 37.7371C29.1783 37.9604 29.2117 38.2204 29.145 38.4687C29.0767 38.7171 28.9183 38.9237 28.695 39.0521C28.5467 39.1387 28.3817 39.1821 28.215 39.1821C28.1317 39.1821 28.0483 39.1704 27.965 39.1487C27.7167 39.0821 27.5083 38.9237 27.38 38.7004C27.25 38.4771 27.2167 38.2171 27.2833 37.9687C27.335 37.7737 27.445 37.6071 27.5967 37.4804L27.44 37.2104C26.5833 37.6921 25.6633 38.0771 24.6983 38.3537L24.7817 38.6604C25.2217 38.6421 25.635 38.9304 25.7533 39.3737C25.82 39.6221 25.785 39.8821 25.6567 40.1054C25.565 40.2671 25.43 40.3921 25.27 40.4754L25.4267 41.0554C27.5783 40.4271 29.55 39.3171 31.19 37.7837C31.3883 37.5821 31.6517 37.5054 31.9083 37.5771C32.1467 37.6454 32.335 37.8354 32.3867 38.0621C32.4383 38.2921 32.35 38.5287 32.1433 38.7121C30.3333 40.4071 28.15 41.6287 25.7683 42.3154L26.5133 45.0754H37.4133C36.975 43.5471 36.7133 41.6787 36.61 39.6504L36.5883 39.6204L36.6083 39.6071C36.2567 32.5904 37.7767 23.6771 40.33 20.2304C41.0283 19.2887 41.7683 18.8121 42.535 18.8121C43.3017 18.8121 44.0433 19.2887 44.74 20.2304C47.255 23.6271 48.7683 32.3321 48.475 39.2987C49.0633 39.0971 49.63 38.8821 50.1783 38.6554H50.0683V38.4887H50.335V34.2954H50.0683V34.1287H50.335V29.9354H50.0683V29.7687H50.335V23.3487H50.1933C50.1017 23.3487 50.0267 23.2737 50.0267 23.1821V22.4704H49.7467C49.655 22.4704 49.58 22.3954 49.58 22.3037V17.1187C49.58 17.0571 49.615 17.0054 49.6633 16.9771V14.4037H49.83V16.9521H50.0267V15.2087C50.0267 15.1904 50.03 15.1721 50.0367 15.1537L51.3733 11.3787C51.3733 11.3721 51.37 11.3604 51.37 11.3604V9.57044C51.37 9.55211 51.3717 9.53377 51.3783 9.51711L52.1667 7.18544L52.325 7.23877L52.1683 7.18377L52.245 6.96544C52.5933 5.99044 53.24 4.17711 53.24 2.32877H53.5733C53.5733 4.1702 54.2168 5.97688 54.5644 6.95282L54.5683 6.96377L54.6467 7.18377H54.6433L55.4533 9.51544C55.46 9.53377 55.4633 9.55211 55.4633 9.57044V11.3321L56.855 15.1537C56.8617 15.1721 56.865 15.1904 56.865 15.2104V16.9537H57.0633V14.4054H57.23V16.9787C57.2783 17.0087 57.3133 17.0587 57.3133 17.1204V22.3054C57.3133 22.3971 57.2383 22.4721 57.1467 22.4721H56.865V23.1837C56.865 23.2754 56.79 23.3504 56.6983 23.3504H56.5567V29.7704H56.6983V29.9371H56.5567V34.1304H56.6983V34.2971H56.5567V34.9671C58.395 33.5371 59.8233 32.0404 60.9 30.7037C63.6617 27.2721 64.7383 24.1671 64.88 23.7321H64.46V23.3987H64.8883V20.6221H64.7467C64.6883 20.6221 64.6333 20.5921 64.6033 20.5404C64.5733 20.4887 64.5717 20.4271 64.6 20.3754L65.3717 18.9421C65.43 18.8337 65.6067 18.8337 65.665 18.9421L66.4367 20.3754C66.465 20.4271 66.4633 20.4904 66.4333 20.5404C66.4033 20.5904 66.3483 20.6221 66.29 20.6221H66.1483V23.3987H66.3117L67.7833 16.7121C67.8 16.6354 67.8667 16.5804 67.945 16.5804C68.0217 16.5804 68.0883 16.6337 68.1067 16.7087L69.6533 23.3971H69.8283V20.6204H69.6867C69.6283 20.6204 69.5733 20.5904 69.5433 20.5387C69.5133 20.4871 69.5117 20.4254 69.54 20.3737L70.3117 18.9404C70.34 18.8854 70.3967 18.8521 70.4583 18.8521C70.52 18.8521 70.5767 18.8871 70.605 18.9404L71.3767 20.3737C71.405 20.4254 71.4033 20.4887 71.3733 20.5387C71.3433 20.5887 71.2883 20.6204 71.23 20.6204H71.0883V23.3971H71.4283V23.7304H71.0883V24.3454H83.3733V23.7304H82.9433V23.3971H83.3733V20.6204H83.2317C83.1733 20.6204 83.1183 20.5904 83.0883 20.5387C83.0583 20.4871 83.0567 20.4254 83.085 20.3737L83.8567 18.9404C83.885 18.8854 83.9417 18.8521 84.0033 18.8521C84.065 18.8521 84.1217 18.8871 84.15 18.9404L84.9217 20.3737C84.95 20.4254 84.9483 20.4887 84.9183 20.5387C84.8883 20.5887 84.8333 20.6204 84.775 20.6204H84.6333V23.3971H84.795L86.2667 16.7104C86.2833 16.6337 86.35 16.5787 86.4283 16.5787C86.505 16.5787 86.5717 16.6321 86.59 16.7071L88.1367 23.3954H88.3117V20.6187H88.17C88.1117 20.6187 88.0567 20.5871 88.0267 20.5371C87.9967 20.4871 87.995 20.4237 88.0233 20.3721L88.795 18.9387C88.8533 18.8304 89.03 18.8304 89.0883 18.9387L89.86 20.3721C89.8883 20.4237 89.8867 20.4871 89.8567 20.5371C89.8267 20.5871 89.7717 20.6187 89.7133 20.6187H89.5717V23.3954H89.9117V23.7287H89.58C89.7217 24.1637 90.7983 27.2687 93.56 30.7004C94.2283 31.5287 95.03 32.4204 95.9817 33.3171V28.4154C95.9817 28.3237 96.0567 28.2487 96.1483 28.2487H96.525V26.9687H96.6917V28.2487H97.0683C97.16 28.2487 97.235 28.3237 97.235 28.4154V30.5621L97.94 28.4071C97.9617 28.3387 98.0267 28.2921 98.0983 28.2921H100.048C100.12 28.2921 100.185 28.3387 100.207 28.4071L100.912 30.5621V28.4154C100.912 28.3237 100.987 28.2487 101.078 28.2487H101.455V26.9687H101.622V28.2487H101.998C102.09 28.2487 102.165 28.3237 102.165 28.4154V32.3787H112.898V28.4154C112.898 28.3237 112.973 28.2487 113.065 28.2487H113.442V26.9687H113.608V28.2487H113.985C114.077 28.2487 114.152 28.3237 114.152 28.4154V30.5621L114.857 28.4071C114.878 28.3387 114.943 28.2921 115.015 28.2921H116.965C117.037 28.2921 117.102 28.3387 117.123 28.4071L117.828 30.5621V28.4154C117.828 28.3237 117.903 28.2487 117.995 28.2487H118.372V26.9687H118.538V28.2487H118.915C119.007 28.2487 119.082 28.3237 119.082 28.4154V45.0737H125.5V45.4071ZM27.7583 37.7771C27.6833 37.8537 27.625 37.9487 27.5967 38.0554C27.585 38.0987 27.5783 38.1437 27.5767 38.1871H27.995L27.7583 37.7771ZM28.0433 38.8287C28.2067 38.8721 28.3767 38.8504 28.5217 38.7654V38.7671C28.6667 38.6837 28.7717 38.5471 28.815 38.3854C28.8183 38.3754 28.8183 38.3654 28.82 38.3554H27.5933C27.6067 38.4171 27.6267 38.4787 27.66 38.5354C27.745 38.6804 27.88 38.7854 28.0433 38.8287ZM28.7517 37.9037C28.635 37.7021 28.4233 37.5887 28.205 37.5887H28.2067C28.1533 37.5887 28.1 37.5954 28.0483 37.6087L28.3517 38.1354L28.2633 38.1871H28.8333C28.8283 38.0887 28.8017 37.9921 28.7517 37.9037ZM32.7283 32.9871H32.8767L32.7467 32.9121C32.745 32.9183 32.7432 32.9246 32.7414 32.9309C32.7361 32.9496 32.7308 32.9683 32.7283 32.9871ZM33.04 33.6171C33.185 33.7021 33.355 33.7237 33.5183 33.6804L33.52 33.6787C33.6817 33.6354 33.8183 33.5321 33.9017 33.3854C33.945 33.3137 33.9717 33.2337 33.9817 33.1537H33.3083L33.2733 33.2154L33.1667 33.1537H32.7333C32.7367 33.1804 32.74 33.2071 32.7467 33.2337C32.79 33.3971 32.8933 33.5321 33.04 33.6171ZM33.67 32.5237C33.5717 32.4671 33.4633 32.4404 33.3567 32.4404V32.4421C33.1917 32.4421 33.0317 32.5054 32.9117 32.6237L33.4383 32.9271L33.4033 32.9871H33.9767C33.9733 32.9604 33.97 32.9337 33.9633 32.9071C33.92 32.7437 33.8167 32.6087 33.67 32.5237ZM34.5967 30.2887C34.76 30.3321 34.93 30.3087 35.075 30.2254C35.22 30.1404 35.325 30.0054 35.3683 29.8421C35.375 29.8154 35.3783 29.7888 35.3817 29.7622L34.7383 29.7621L34.7183 29.8404L34.4283 29.7621H34.135C34.145 29.8421 34.1717 29.9204 34.2133 29.9937C34.2983 30.1404 34.4333 30.2454 34.5967 30.2887ZM34.7583 29.0471C34.65 29.0471 34.5417 29.0754 34.445 29.1321L34.4433 29.1304C34.3467 29.1854 34.2717 29.2654 34.2167 29.3587L34.8017 29.5154L34.7817 29.5937H35.3833C35.3733 29.5137 35.3467 29.4354 35.305 29.3621C35.22 29.2171 35.085 29.1121 34.9217 29.0687C34.8683 29.0537 34.8133 29.0471 34.7583 29.0471ZM34.445 22.9437C34.59 23.0287 34.76 23.0504 34.9233 23.0071L34.9217 23.0054C35.085 22.9621 35.2217 22.8587 35.305 22.7121C35.3433 22.6454 35.3683 22.5737 35.38 22.4987H34.7867L34.8033 22.5587L34.2183 22.7154C34.2733 22.8087 34.3483 22.8887 34.445 22.9437ZM34.76 21.7671C34.7067 21.7671 34.6517 21.7737 34.5967 21.7887L34.5983 21.7904C34.435 21.8337 34.2983 21.9371 34.215 22.0837C34.17 22.1621 34.1433 22.2471 34.135 22.3337H34.3617L34.7183 22.2387L34.7433 22.3337H35.3867C35.3833 22.3004 35.3783 22.2671 35.37 22.2354C35.2933 21.9537 35.0383 21.7671 34.76 21.7671ZM33.1917 19.6154C33.3533 19.6587 33.5233 19.6354 33.67 19.5521C33.84 19.4537 33.9433 19.2871 33.9733 19.1071H33.4133L33.4383 19.1504L32.9133 19.4537C32.9917 19.5287 33.085 19.5871 33.1917 19.6154ZM33.3533 18.3737C33.2467 18.3737 33.1383 18.4021 33.04 18.4587V18.4571C32.895 18.5421 32.79 18.6771 32.7467 18.8404C32.7383 18.8737 32.7333 18.9054 32.73 18.9387H33.135L33.2717 18.8587L33.3167 18.9387H33.98C33.9717 18.8537 33.945 18.7687 33.9 18.6887C33.7833 18.4871 33.5717 18.3737 33.3533 18.3737ZM32.8467 19.1071H32.735C32.7383 19.1254 32.7433 19.1454 32.7483 19.1637L32.8467 19.1071ZM28.35 13.9421L28.0483 14.4654C28.315 14.5354 28.6067 14.4237 28.7517 14.1737C28.8 14.0904 28.825 13.9987 28.8317 13.9087H28.2917L28.35 13.9421ZM28.2067 13.2271C28.1533 13.2271 28.0983 13.2337 28.0433 13.2487L28.045 13.2504C27.8817 13.2937 27.745 13.3971 27.6617 13.5437C27.625 13.6054 27.6033 13.6737 27.59 13.7421H28.8233C28.79 13.5671 28.6867 13.4071 28.5217 13.3121C28.4233 13.2554 28.3167 13.2271 28.2067 13.2271ZM27.58 13.9071C27.5833 13.9454 27.5883 13.9837 27.5983 14.0204L27.6 14.0187C27.6283 14.1271 27.685 14.2204 27.7617 14.2971L27.9867 13.9071H27.58ZM24.8117 11.8204C24.7033 11.8204 24.595 11.8487 24.4983 11.9054C24.3533 11.9904 24.2483 12.1254 24.205 12.2887C24.2033 12.2954 24.2025 12.3025 24.2017 12.3096C24.2008 12.3167 24.2 12.3237 24.1983 12.3304H25.43C25.3833 12.1021 25.2167 11.9054 24.9767 11.8421C24.9217 11.8271 24.8667 11.8204 24.8117 11.8204ZM24.1883 12.4971C24.195 12.5904 24.22 12.6837 24.2683 12.7671L24.27 12.7687C24.355 12.9137 24.49 13.0187 24.6533 13.0621C24.8167 13.1054 24.9867 13.0821 25.1317 12.9987C25.2767 12.9137 25.3817 12.7787 25.425 12.6154C25.435 12.5754 25.44 12.5371 25.4433 12.4971H24.1883ZM18.1417 12.2904C18.0517 11.9537 17.7067 11.7537 17.37 11.8437C17.13 11.9087 16.9617 12.1037 16.9167 12.3321H18.1483C18.1467 12.3254 18.1458 12.3183 18.145 12.3112C18.1442 12.3042 18.1433 12.2971 18.1417 12.2904ZM16.925 12.6154C16.9683 12.7787 17.0717 12.9137 17.2183 12.9987L17.22 12.9971C17.365 13.0821 17.535 13.1037 17.6983 13.0604C17.965 12.9904 18.1433 12.7571 18.1617 12.4971H16.9067C16.9083 12.5371 16.915 12.5754 16.925 12.6154ZM14.7683 13.9071H14.3633L14.5883 14.2971C14.6933 14.1904 14.7567 14.0521 14.7683 13.9071ZM14.14 13.2254C14.0333 13.2254 13.925 13.2537 13.8267 13.3104V13.3087C13.6817 13.3937 13.5767 13.5287 13.5333 13.6921C13.5304 13.701 13.5292 13.7105 13.528 13.7199C13.5272 13.7263 13.5264 13.7327 13.525 13.7387H14.7583C14.745 13.6704 14.7233 13.6037 14.6867 13.5404C14.57 13.3387 14.3583 13.2254 14.14 13.2254ZM13.515 13.9071C13.5217 13.9987 13.5467 14.0904 13.595 14.1721H13.5933C13.7383 14.4221 14.03 14.5337 14.2983 14.4637L13.9967 13.9404L14.055 13.9071H13.515ZM9.61333 19.1071H9.50333L9.6 19.1637C9.605 19.1437 9.61 19.1254 9.61333 19.1071ZM9.61833 18.9421C9.59833 18.7471 9.49 18.5654 9.30833 18.4604L9.31 18.4621C9.00833 18.2871 8.62167 18.3921 8.44833 18.6921C8.40333 18.7704 8.37667 18.8554 8.36833 18.9421H9.03333L9.07833 18.8621L9.215 18.9421H9.61833ZM8.67833 19.5521C8.82333 19.6371 8.99333 19.6587 9.15667 19.6154V19.6137C9.265 19.5854 9.35833 19.5287 9.435 19.4521L8.91167 19.1504L8.93667 19.1071H8.375C8.37616 19.114 8.37711 19.1212 8.37808 19.1284C8.37989 19.1419 8.38174 19.1557 8.385 19.1687C8.42833 19.3321 8.53167 19.4687 8.67833 19.5521ZM7.58833 21.7687C7.31 21.7687 7.05333 21.9537 6.97833 22.2354H6.98C6.97167 22.2687 6.96667 22.3004 6.96333 22.3337H7.60667L7.63167 22.2387L7.98833 22.3337H8.21333C8.18667 22.0821 8.01 21.8604 7.75167 21.7904C7.69667 21.7754 7.64167 21.7687 7.58833 21.7687ZM7.425 23.0071C7.58667 23.0504 7.75667 23.0271 7.90333 22.9437H7.90167C7.99833 22.8887 8.07333 22.8087 8.12833 22.7154L7.545 22.5587L7.56167 22.4987H6.96667C6.97833 22.5737 7.00333 22.6471 7.04167 22.7137C7.12667 22.8587 7.26167 22.9637 7.425 23.0071ZM7.58833 29.0471C7.53333 29.0471 7.48 29.0537 7.425 29.0687H7.42667C7.17333 29.1371 6.99833 29.3504 6.965 29.5954H7.56667L7.54667 29.5171L8.13167 29.3604C8.01833 29.1671 7.81167 29.0471 7.58833 29.0471ZM7.27333 30.2237C7.41833 30.3087 7.58833 30.3304 7.75167 30.2871V30.2854C7.915 30.2421 8.05167 30.1387 8.135 29.9921C8.17667 29.9187 8.20333 29.8404 8.21333 29.7604H7.92167L7.63167 29.8387L7.61167 29.7604H6.96667C6.97 29.7871 6.97333 29.8137 6.98 29.8404C7.02333 30.0037 7.12667 30.1387 7.27333 30.2237ZM8.99167 32.4404C8.885 32.4404 8.77667 32.4687 8.67833 32.5254V32.5221C8.53333 32.6071 8.42833 32.7421 8.385 32.9054C8.37833 32.9321 8.375 32.9587 8.37167 32.9854H8.945L8.91 32.9254L9.43667 32.6221C9.31667 32.5054 9.155 32.4404 8.99167 32.4404ZM8.83 33.6804C8.99167 33.7237 9.16167 33.7021 9.30833 33.6171V33.6187C9.48333 33.5171 9.59 33.3421 9.615 33.1554H9.18167L9.075 33.2171L9.04 33.1554H8.36667C8.37833 33.2354 8.405 33.3137 8.44667 33.3871C8.53167 33.5321 8.66667 33.6371 8.83 33.6804ZM9.47167 32.9871H9.61833C9.615 32.9621 9.60833 32.9371 9.60167 32.9121L9.47167 32.9871ZM14.3 37.6087C14.2483 37.5954 14.195 37.5887 14.1417 37.5887H14.14C13.9217 37.5887 13.71 37.7021 13.5933 37.9037C13.5417 37.9921 13.5167 38.0887 13.5117 38.1871H14.0833L13.995 38.1354L14.3 37.6087ZM13.8267 38.7654C13.9733 38.8504 14.1433 38.8721 14.305 38.8287V38.8271C14.4683 38.7837 14.605 38.6804 14.6883 38.5337C14.7217 38.4771 14.7417 38.4154 14.755 38.3537H13.5283C13.5289 38.3569 13.5292 38.3599 13.5296 38.3629C13.5303 38.3692 13.5311 38.3753 13.5333 38.3821C13.5767 38.5454 13.68 38.6821 13.8267 38.7654ZM14.3533 38.1871H14.77H14.7717C14.7633 38.0354 14.7 37.8904 14.59 37.7787L14.3533 38.1871ZM9.42833 41.6104C9.09667 41.6104 8.70667 42.5337 8.70667 43.0087H8.70833C8.70833 43.2021 8.78333 43.3821 8.91833 43.5187C9.05333 43.6554 9.235 43.7304 9.42667 43.7304C9.82333 43.7304 10.1467 43.4087 10.1467 43.0121C10.1467 42.5371 9.76 41.6104 9.42833 41.6104ZM6.595 39.3404C6.26167 39.6337 5.86833 42.4004 5.86833 43.0287L5.87 43.0271C5.87 43.2204 5.945 43.4004 6.08 43.5371C6.215 43.6737 6.39667 43.7487 6.58833 43.7487C6.78 43.7487 6.96 43.6737 7.09667 43.5387C7.23333 43.4037 7.30833 43.2221 7.30833 43.0304C7.31 42.4021 6.92667 39.6337 6.595 39.3404ZM84.0767 43.8071H83.1017V44.2654H89.74V43.8071H88.9367V43.6404H89.74V42.7237H87.175V42.5571H89.74V42.1604H89.05V41.9937H89.74V41.4637H83.1017V41.9937H84.4583V42.1604H83.1017V42.5571H85.2167V42.7237H83.1017V43.6404H84.0767V43.8071ZM95.9783 41.1304V40.6054H89.5667V41.1304H95.9783ZM100.91 31.7737H97.2317V31.7754V34.4287C97.5867 34.7237 97.96 35.0154 98.3483 35.3054H100.91V31.7737ZM105.41 35.6371H102.163V37.6787C102.408 37.8037 102.66 37.9271 102.915 38.0487V36.4271C102.915 36.3354 102.99 36.2604 103.082 36.2604H104.315C104.407 36.2604 104.482 36.3354 104.482 36.4271V38.3787C104.482 38.4704 104.407 38.5454 104.315 38.5454H104.017C104.467 38.7371 104.932 38.9187 105.41 39.0937V35.6371ZM117.828 35.6371H114.15V39.2521H117.828V35.6371ZM117.828 39.4187H114.15V43.1171H117.828V39.4187ZM114.15 35.3037H117.828V31.7721H114.15V35.3037ZM117.828 43.2837H114.15H114.148V45.0254H114.497V44.2871C114.497 44.1954 114.572 44.1204 114.663 44.1204H115.178C115.27 44.1204 115.345 44.1954 115.345 44.2871V45.0254H116.632V44.2871C116.632 44.1954 116.707 44.1204 116.798 44.1204H117.313C117.405 44.1204 117.48 44.1954 117.48 44.2871V45.0254H117.828V43.2837ZM114.83 45.0254H115.012V44.4537H114.83V45.0254ZM116.965 45.0254H117.147V44.4537H116.965V45.0254ZM105.778 39.2254V35.6371H105.577V39.1537C105.605 39.1636 105.633 39.1738 105.662 39.184C105.7 39.198 105.739 39.212 105.778 39.2254ZM105.778 40.2721V39.5804V39.5787C105.747 39.568 105.716 39.557 105.685 39.5459C105.649 39.5328 105.613 39.5197 105.577 39.5071V40.2721H105.778ZM107.438 45.0254H107.62V44.4537H107.438V45.0254ZM107.272 44.1187H107.785C107.877 44.1187 107.952 44.1937 107.952 44.2854V45.0237H109.015V43.2821H105.952V43.1154H109.015V41.4637H108.312V42.2421C108.312 42.3337 108.237 42.4087 108.145 42.4087H106.912C106.82 42.4087 106.745 42.3337 106.745 42.2421V41.4637H105.943V45.0237H107.105V44.2854C107.105 44.1937 107.18 44.1187 107.272 44.1187ZM103.608 45.0254H103.79V44.4537H103.608V45.0254ZM103.442 44.1187H103.957C104.048 44.1187 104.123 44.1937 104.123 44.2854V45.0237H105.41V43.2821H102.163V45.0237H103.275V44.2854C103.275 44.1937 103.35 44.1187 103.442 44.1187ZM100.048 45.0254H100.23V44.4537H100.048V45.0254ZM99.8817 44.1187H100.397H100.398C100.49 44.1187 100.565 44.1937 100.565 44.2854V45.0237H100.912V43.2821H97.2333V45.0237H97.58V44.2854C97.58 44.1937 97.655 44.1187 97.7467 44.1187H98.2617C98.3533 44.1187 98.4283 44.1937 98.4283 44.2854V45.0237H99.715V44.2854C99.715 44.1937 99.79 44.1187 99.8817 44.1187ZM97.9133 45.0254H98.095V44.4537H97.9133V45.0254ZM97.8367 41.4654H97.2317V43.1171H100.91V41.4654H100.305V42.2437C100.305 42.3354 100.23 42.4104 100.138 42.4104H98.0033C97.9117 42.4104 97.8367 42.3354 97.8367 42.2437V41.4654ZM99.9717 38.2121V36.8171V36.8154C99.8533 36.7421 99.7367 36.6687 99.6217 36.5937H99.615V38.2121H99.9717ZM98.17 36.5937V38.2121H98.9033V36.5937H98.17ZM99.28 36.5937H99.2367V38.2121H99.28V36.5937ZM97.8367 36.4271C97.8367 36.3354 97.9117 36.2604 98.0033 36.2604H99.1183C98.815 36.0554 98.5217 35.8471 98.2367 35.6371H97.2317V39.2521H99.2817V38.5454H98.0033C97.9117 38.5454 97.8367 38.4704 97.8367 38.3787V36.4271ZM99.2817 39.4187H97.2317H97.23V40.2721H97.84C97.8517 40.1904 97.9183 40.1254 98.0033 40.1254H99.2817V39.4187ZM98.9033 41.4654H98.17V42.0771H98.9033V41.4654ZM98.9033 41.1304V40.6054H98.17V41.1304H98.9033ZM99.97 41.4654H99.2367V42.0771H99.97V41.4654ZM99.2367 40.6071V41.1321H99.97V40.6071H99.2367ZM100.91 40.6054H100.305V41.1304H100.91V40.6054ZM100.138 40.1254C100.223 40.1254 100.292 40.1904 100.302 40.2721H100.91V39.4187H99.615V40.1254H100.138ZM97.8367 41.1304V40.6054H97.2317V41.1304H97.8367ZM99.615 39.2521H100.91V37.3787C100.705 37.2621 100.503 37.1437 100.305 37.0237V38.3787C100.305 38.4704 100.23 38.5454 100.138 38.5454H99.615V39.2521ZM100.305 36.4271V36.6304C100.503 36.7521 100.705 36.8721 100.91 36.9921V35.6371H98.8067C99.1017 35.8471 99.4067 36.0554 99.7217 36.2604H100.138C100.23 36.2604 100.305 36.3354 100.305 36.4271ZM101.453 41.4654H101.243V45.0254H101.453V41.4654ZM101.83 45.0254V41.4654H101.62V45.0254H101.83ZM105.41 41.1304V40.6054H104.482V41.1304H105.41ZM107.363 41.4654H107.08V42.0771H107.363V41.4654ZM107.98 41.4654H107.697V42.0771H107.98V41.4654ZM107.697 40.6071V41.1321H107.98V40.6071H107.697ZM109.017 40.6054H108.313V41.1304H109.017V40.6054ZM109.33 40.6054H109.183V41.1304H109.33V40.6054ZM107.363 41.1304V40.6054H107.08V41.1304H107.363ZM105.945 41.1321H106.747V40.6071H105.945V41.1321ZM105.577 41.1321H105.778V40.6071H105.577V41.1321ZM105.577 41.4654V45.0254H105.778V41.4654H105.577ZM103.865 41.1321H104.148V40.6071H103.865V41.1321ZM104.148 42.0771V41.4654H103.865V42.0771H104.148ZM103.532 41.1304V40.6054H103.248V41.1304H103.532ZM103.532 42.0771V41.4654H103.248V42.0771H103.532ZM104.315 42.4104H103.082C102.99 42.4104 102.915 42.3354 102.915 42.2437V41.4654H102.163V43.1171H105.41V41.4654H104.482V42.2437C104.482 42.3354 104.407 42.4104 104.315 42.4104ZM109.183 41.4654V45.0254H109.385V41.4654H109.183ZM109.385 40.2421V35.6371H109.183V40.1971C109.252 40.2121 109.317 40.2271 109.385 40.2421ZM106.75 40.2721C106.762 40.1904 106.828 40.1254 106.913 40.1254H107.533C106.988 39.9737 106.458 39.8104 105.943 39.6354V40.2721H106.75ZM104.478 40.2721H105.408V39.4471C104.632 39.1687 103.89 38.8671 103.185 38.5454H103.137V40.1254H104.315C104.4 40.1254 104.468 40.1904 104.478 40.2721ZM104.148 38.2121V36.5937H103.865V38.2121H104.148ZM103.262 38.2121H103.532L103.533 36.5937H103.25V38.2054C103.253 38.2087 103.262 38.2121 103.262 38.2121ZM102.915 41.1304V40.6054H102.163V41.1304H102.915ZM101.62 41.1321H101.83V40.6071H101.62V41.1321ZM101.243 41.1321H101.453V40.6071H101.243V41.1321ZM96.6883 41.1321H96.8983V40.6071H96.6883V41.1321ZM96.8983 45.0254V41.4654H96.6883V45.0254H96.8983ZM96.3117 45.0254H96.5217V41.4654H96.3117V45.0254ZM111.27 45.0254H111.452V44.4537H111.27V45.0254ZM111.785 44.2871V45.0254H112.897V43.2837H109.552V45.0254H110.937V44.2871C110.937 44.1954 111.012 44.1204 111.103 44.1204H111.618C111.71 44.1204 111.785 44.1954 111.785 44.2871ZM109.552 43.1171H112.897V35.6404H109.552V40.2854C109.617 40.3071 109.663 40.3671 109.663 40.4404V41.2987C109.663 41.3704 109.617 41.4304 109.552 41.4537V43.1171ZM109.183 35.3037H109.383V34.3121L109.285 34.0521L109.183 34.3321V35.3037ZM105.945 39.2837C106.912 39.6154 107.937 39.9087 109.017 40.1587V35.6371H105.945V39.2837ZM105.577 35.3037H105.777V34.3121L105.678 34.0521L105.577 34.3321V35.3037ZM102.805 40.2721V38.3654C102.587 38.2637 102.373 38.1587 102.163 38.0521V40.2721H102.805ZM101.62 40.2721H101.83V37.8804C101.795 37.8621 101.76 37.8433 101.725 37.8246C101.69 37.8058 101.655 37.7871 101.62 37.7687V40.2721ZM101.243 40.2721H101.453V37.6821C101.383 37.6437 101.313 37.6037 101.243 37.5654V40.2721ZM97.2317 35.3037H97.795C97.6033 35.1554 97.415 35.0071 97.2317 34.8571V35.3037ZM96.8983 40.2721V35.4704V34.5821C96.8633 34.5521 96.8283 34.5225 96.7933 34.4929C96.7583 34.4633 96.7233 34.4337 96.6883 34.4037V40.2721H96.8983ZM96.3117 40.2721H96.5217V34.2604C96.4882 34.2308 96.4555 34.2016 96.4229 34.1726C96.3858 34.1395 96.349 34.1066 96.3117 34.0737V40.2721ZM96.5217 41.1304V40.6054H96.3117V41.1304H96.5217ZM89.02 37.5287V41.1321H89.2333V37.5287H89.02ZM84.625 37.9537V41.1321H88.3067V37.9537H84.625ZM88.8533 32.9287H88.64V37.1954H88.8533V32.9287ZM89.2333 32.9287H89.02V37.1954H89.2333V32.9287ZM89.02 28.3287V32.5954H89.2333V28.3287H89.02ZM88.64 32.5954H88.8533V28.3287H88.64V32.5954ZM84.625 28.6271H88.3067V28.3287H84.625V28.6271ZM88.3067 28.7937H84.625V32.5954H88.3067V28.7937ZM88.3067 33.2421V32.9287H84.625V33.2421H88.3067ZM88.3067 33.4087H84.625V37.1954H88.3067V33.4087ZM88.3067 37.7871V37.5287H84.625V37.7871H88.3067ZM88.8533 37.5287H88.64V41.1321H88.8533V37.5287ZM91.8417 28.9187V40.2721H92.0783V29.2687C91.9967 29.1521 91.9183 29.0354 91.8417 28.9187ZM89.565 40.2721H91.675V40.2704V28.6621C90.5867 26.9804 89.92 25.5304 89.565 24.6554V27.9937H89.905V28.3271H89.565V32.5937H89.905V32.9271H89.565V37.1937H89.905V37.5271H89.565V40.2721ZM89.02 27.9954H89.2333V23.7287H89.02V27.9954ZM88.64 27.9954H88.8533V23.7287H88.64V27.9954ZM84.625 27.9954H88.3067V24.1721H84.625V27.9954ZM84.0783 27.9954H84.2917V23.7287H84.0783V27.9954ZM84.2917 32.5954V28.3287H84.0783V32.5954H84.2917ZM84.2917 37.1954V32.9287H84.0783V37.1954H84.2917ZM84.2917 41.1321V37.5287H84.0783V41.1321H84.2917ZM95.9783 41.4654H90.0733V45.0754H95.9783V41.4654ZM118.538 45.0254H118.748V28.5821H118.538V45.0254ZM118.372 28.5821H118.162V45.0254H118.372V28.5821ZM116.843 28.6254H115.135L114.213 31.4387H117.765L116.843 28.6254ZM113.817 45.0254V31.6071V28.5821H113.607V45.0254H113.817ZM113.44 28.5821H113.23V45.0254H113.44V28.5821ZM112.897 35.3054V32.7121H102.167V35.3054H105.413V34.3187C105.413 34.3087 105.415 34.3004 105.418 34.2904L105.602 33.7871C105.615 33.7537 105.645 33.7321 105.68 33.7321C105.715 33.7321 105.747 33.7537 105.758 33.7854L105.942 34.2687C105.945 34.2787 105.947 34.2887 105.947 34.2987V35.3054H109.018V34.3187C109.018 34.3139 109.019 34.3095 109.019 34.3051C109.02 34.3004 109.022 34.2956 109.023 34.2904L109.207 33.7871C109.22 33.7537 109.25 33.7321 109.285 33.7321C109.32 33.7321 109.352 33.7537 109.363 33.7854L109.547 34.2687C109.55 34.2787 109.552 34.2887 109.552 34.2987V35.3054H112.897ZM101.83 37.5037V32.5454V28.5821H101.62V37.3921C101.69 37.4304 101.76 37.4671 101.83 37.5037ZM101.453 28.5821H101.243V37.1821C101.313 37.2221 101.383 37.2621 101.453 37.3004V28.5821ZM99.925 28.6254H98.2167L97.295 31.4387H100.847L99.925 28.6254ZM96.8983 34.1454V31.6071V28.5821H96.6883V33.9621C96.7582 34.0236 96.8285 34.0855 96.8983 34.1454ZM96.5217 28.5821H96.3117V33.6254L96.5217 33.8154V28.5821ZM95.7833 40.2721H95.9783V40.2704V33.7704C95.9566 33.7504 95.9347 33.7303 95.9128 33.7103C95.8692 33.6703 95.8255 33.6304 95.7833 33.5904V40.2721ZM95.45 40.2721V33.2721C95.3933 33.2171 95.3383 33.1621 95.2833 33.1071V40.2721H95.45ZM95.1167 40.2721V32.9421H95.115C94.4183 32.2404 93.8117 31.5504 93.2867 30.8971C92.9733 30.5071 92.6833 30.1221 92.4117 29.7437V40.2721H95.1167ZM89.02 23.3954H89.2333V20.6187H89.02V23.3954ZM89.43 20.2837L88.9367 19.3687L88.4433 20.2837H89.43ZM88.8533 20.6187H88.64V23.3954H88.8533V20.6187ZM86.2117 23.3954H86.71V22.5571H86.2117V23.3954ZM86.1283 22.3904H86.7917C86.8383 22.3904 86.875 22.4271 86.875 22.4737V23.3954H87.3183V22.1371L86.46 21.5821L85.6017 22.1371V23.3954H86.045V22.4737C86.045 22.4271 86.0817 22.3904 86.1283 22.3904ZM87.6517 23.3954H87.7883L87.6517 22.8054V23.3954ZM87.4217 21.8071L86.425 17.5021L85.475 21.8221L86.37 21.2454C86.425 21.2104 86.495 21.2104 86.55 21.2454L87.4217 21.8071ZM85.2667 23.3971V22.7654L85.1283 23.3971H85.2667ZM88.3067 24.0054V23.7287H84.625V24.0054H88.3067ZM84.0783 23.3954H84.2917V20.6187H84.0783V23.3954ZM84.4883 20.2837L83.995 19.3687L83.5017 20.2837H84.4883ZM83.9117 20.6187H83.6983V23.3954H83.9117V20.6187ZM83.365 25.3137V24.6771H71.08V25.3137H83.365ZM70.5317 23.3954H70.745V20.6187H70.5317V23.3954ZM70.9417 20.2854L70.4483 19.3687L69.955 20.2854H70.9417ZM70.365 20.6187H70.1517V23.3954H70.365V20.6187ZM71.2533 41.9954V41.4654H64.615V41.9954H65.9717V42.1621H64.615V42.5587H66.73V42.7254H64.615V43.6421H65.5883V43.8087H64.615V44.2671H71.2533V43.8087H70.45V43.6421H71.2533V42.7254H68.6883V42.5587H71.2533V42.1621H70.5633V41.9954H71.2533ZM55.265 41.4654H55.0217V41.7521H55.265V41.4654ZM55.0217 40.6071V41.1321H55.265V40.6071H55.0217ZM54.1117 41.4654H53.8683V41.7521H54.1117V41.4654ZM53.8683 40.6071V41.1321H54.1117V40.6071H53.8683ZM52.9567 41.4654H52.7133V41.7521H52.9567V41.4654ZM52.7133 40.6071V41.1321H52.9567V40.6071H52.7133ZM51.8033 41.4654H51.56V41.7521H51.8033V41.4654ZM51.56 40.6071V41.1321H51.8033V40.6071H51.56ZM42.3217 24.2121L41.5767 23.1687L40.8317 24.2121L41.5767 25.2554L42.3217 24.2121ZM43.34 25.6387L42.5267 24.4987H42.525L42.2483 24.8871L47.935 32.8887C47.905 32.5687 47.87 32.2487 47.8333 31.9271L43.3683 25.6687C43.3567 25.6604 43.3483 25.6504 43.34 25.6387ZM44.425 24.5004L43.6833 25.5387V25.5404L47.7467 31.2354C47.6267 30.3104 47.4867 29.4154 47.3267 28.5604L45.2633 25.6671C45.2533 25.6587 45.245 25.6504 45.2383 25.6404L44.425 24.5004ZM45.8783 25.1237L45.5817 25.5387L47.1717 27.7671C47.0867 27.3537 46.9967 26.9487 46.9017 26.5571L45.8783 25.1237ZM45.9806 24.9796L46.33 24.4887C46.4917 25.0037 46.6467 25.5471 46.7917 26.1171L45.9806 24.9796ZM44.6317 24.2087L45.3767 25.2521L46.1183 24.2121L45.3733 23.1687L44.6317 24.2087ZM41.3533 19.6104L44.4283 23.9221H44.43L44.7267 23.5071L41.7583 19.3471C41.6233 19.4154 41.4883 19.5037 41.3533 19.6104ZM43.4783 25.2504L44.22 24.2121L43.475 23.1687L42.7333 24.2071L43.4783 25.2504ZM39.8867 21.5637L41.0967 23.2671H41.0983L41.3767 22.8771L40.1283 21.1287C40.0467 21.2671 39.9667 21.4121 39.8867 21.5637ZM40.9944 23.4112L40.6283 23.9254L39.815 22.7854C39.7517 22.6971 39.6067 22.6971 39.5433 22.7854L39.0667 23.4537C39.3 22.8187 39.545 22.2421 39.8017 21.7321L40.9944 23.4112ZM39.6783 25.2554L40.4233 24.2121L39.6783 23.1687L38.9333 24.2121L39.6783 25.2554ZM39.6767 25.7087C39.6233 25.7087 39.5733 25.6821 39.5417 25.6387L39.54 25.6371L38.7133 24.4787C38.605 24.8237 38.5 25.1804 38.3983 25.5504L48.125 39.3204C48.2067 37.4237 48.1533 35.3521 47.9617 33.2187L42.1433 25.0304L41.71 25.6387C41.6467 25.7271 41.5017 25.7271 41.4383 25.6387L40.625 24.4987L39.8117 25.6387C39.7817 25.6821 39.73 25.7087 39.6767 25.7087ZM47.74 39.8804L48.0183 40.2721H48.075C48.0867 40.1054 48.0967 39.9354 48.1067 39.7654C47.985 39.8037 47.8633 39.8421 47.74 39.8804ZM46.3683 40.2721H47.61L47.4033 39.9837C47.065 40.0837 46.72 40.1804 46.3683 40.2721ZM47.6678 39.5542C47.7833 39.5184 47.8984 39.4828 48.0117 39.4454H48.01L38.3433 25.7604C38.2817 25.9904 38.2233 26.2254 38.165 26.4637L47.535 39.5954C47.5793 39.5816 47.6236 39.5679 47.6678 39.5542ZM45.1967 40.2104C45.8867 40.0571 46.555 39.8854 47.1983 39.6971H47.1967L38.0617 26.8937C37.8733 27.7154 37.7017 28.5837 37.5517 29.4904L45.1967 40.2104ZM45.445 41.1304L45.1133 40.6654V41.1304H45.445ZM47.8483 40.6054H45.48L45.4817 40.6071L45.8567 41.1321H48.0067L48.0317 40.8621L47.8483 40.6054ZM47.6433 43.6421C47.7783 42.9671 47.8867 42.2371 47.97 41.4654H46.0917L47.6433 43.6421ZM50.3233 41.4654H48.3067C48.165 42.7921 47.9467 44.0154 47.6433 45.0754H50.3233V41.4654ZM48.3833 40.6071C48.37 40.7837 48.355 40.9587 48.3383 41.1321H50.3217V40.6071H48.3833ZM51.2267 40.6054H50.6567V41.1304H51.2267V40.6054ZM52.8825 37.36C52.9079 37.3461 52.9332 37.3323 52.9583 37.3187V35.1004H52.715V37.4504C52.771 37.4207 52.827 37.3902 52.8825 37.36ZM53.1233 37.7887H52.7883H52.7867C52.415 37.9871 52.0317 38.1804 51.6367 38.3671V38.4871H54.8267V37.7837C54.7483 37.7704 54.6867 37.7054 54.6867 37.6221V36.6821C54.6648 36.6957 54.6429 36.7095 54.6208 36.7233C54.5621 36.7601 54.5027 36.7974 54.4433 36.8337V37.6221C54.4433 37.7137 54.3683 37.7887 54.2767 37.7887H53.7C53.6083 37.7887 53.5333 37.7137 53.5333 37.6221V37.3787C53.4534 37.4254 53.3717 37.4704 53.29 37.5154V37.6221C53.29 37.7137 53.215 37.7887 53.1233 37.7887ZM53.8683 36.7954C53.95 36.7471 54.0317 36.6971 54.1117 36.6471V35.0987H53.8683V36.7954ZM54.1117 37.4554V37.0404C54.0627 37.07 54.0131 37.099 53.9632 37.1281C53.9316 37.1465 53.9 37.165 53.8683 37.1837V37.4554H54.1117ZM55.1434 35.982C55.1838 35.9541 55.2242 35.9262 55.265 35.8987V35.1004H55.0217V36.0654C55.0625 36.0379 55.103 36.01 55.1434 35.982ZM53.8683 40.2721H54.1117V39.3971H53.8683V40.2721ZM53.7017 39.0637H54.2783H54.28C54.3717 39.0637 54.4467 39.1387 54.4467 39.2304V40.2721H54.69V39.2304C54.69 39.1471 54.75 39.0821 54.83 39.0687V38.6537H51.64V39.0637H51.9717C52.0633 39.0637 52.1383 39.1387 52.1383 39.2304V40.2721H52.3817V39.2304C52.3817 39.1387 52.4567 39.0637 52.5483 39.0637H53.125C53.2167 39.0637 53.2917 39.1387 53.2917 39.2304V40.2721H53.535V39.2304C53.535 39.1387 53.61 39.0637 53.7017 39.0637ZM52.715 40.2721H52.9583V39.3971H52.715V40.2721ZM51.8033 39.3971H51.6383V40.2721H51.8033V39.3971ZM55.265 39.3971H55.1617V40.2721H55.265V39.3971ZM55.1617 39.0637H55.4317C55.5233 39.0637 55.5983 39.1387 55.5983 39.2304V40.2721H56.21V38.6537H55.1617V39.0637ZM55.1617 37.7887V38.4871H56.21V35.6354C56.0117 35.7837 55.8067 35.9304 55.5983 36.0754V37.6221C55.5983 37.7137 55.5233 37.7887 55.4317 37.7887H55.1617ZM55.1617 37.4554H55.265V36.3037C55.23 36.3271 55.1967 36.3504 55.1617 36.3737V37.4554ZM51.305 38.6537H51.0133V38.6521C50.895 38.7054 50.7767 38.7587 50.6567 38.8104V40.2721H51.2267V39.2304C51.2267 39.1704 51.2583 39.1221 51.305 39.0921V38.6537ZM52.38 40.6054H52.1367V41.1304H52.38V40.6054ZM53.535 40.6054H53.2917V41.1304H53.535V40.6054ZM54.6883 40.6054H54.445V41.1304H54.6883V40.6054ZM56.21 40.6054H55.5983V41.1304H56.21V40.6054ZM64.8767 40.6054H56.5433V41.1304H64.8767V40.6054ZM66.1367 27.9954H69.8183V24.1721H66.1367V27.9954ZM66.1367 37.9537V41.1321H69.8183V37.9537H66.1367ZM65.21 37.5271V40.4387V41.1304H65.4233V37.5271H65.21ZM65.59 32.5954H65.8033V28.3287H65.59V32.5954ZM65.59 37.1954H65.8033V32.9287H65.59V37.1954ZM65.21 32.5954H65.4233V28.3287H65.21V32.5954ZM65.4233 37.1954V32.9287H65.21V37.1954H65.4233ZM65.8033 37.5287H65.59V41.1321H65.8033V37.5287ZM66.1367 37.7854H69.8183V37.5271H66.1367V37.7854ZM66.1367 33.4087V37.1954H69.8183V33.4087H66.1367ZM66.1367 33.2421H69.8183V32.9287H66.1367V33.2421ZM66.1367 28.7937V32.5954H69.8183V28.7937H66.1367ZM66.1367 28.6271H69.8183V28.3287H66.1367V28.6271ZM65.59 27.9954H65.8033V23.7287H65.59V27.9954ZM65.21 27.9954H65.4233V23.7287H65.21V27.9954ZM64.4483 27.9954H64.8767V24.6571C64.5233 25.5321 63.855 26.9804 62.7683 28.6637V40.2737H64.8767V37.5287H64.4483V37.1954H64.8767V32.9287H64.4483V32.5954H64.8767V28.3287H64.4483V27.9954ZM62.365 40.2721H62.6017V28.9171C62.525 29.0337 62.4467 29.1504 62.365 29.2687V40.2721ZM64.2817 45.0754V41.4654H56.5433V45.0754H64.2817ZM70.1517 37.5287V41.1321H70.365V37.5287H70.1517ZM70.1517 32.9287V37.1954H70.365V32.9287H70.1517ZM70.1517 28.3287V32.5954H70.365V28.3287H70.1517ZM70.1517 23.7287V27.9954H70.365V23.7287H70.1517ZM67.7233 23.3954H68.2217V22.5571H67.7233V23.3954ZM67.64 22.3904H68.305C68.3517 22.3904 68.3883 22.4271 68.3883 22.4737V23.3954H68.8317V22.1371L67.9733 21.5821L67.1133 22.1371V23.3954H67.5567V22.4737C67.5567 22.4271 67.5933 22.3904 67.64 22.3904ZM69.165 23.3954H69.3017L69.165 22.8054V23.3954ZM67.9392 17.5058L68.935 21.8071L68.0633 21.2454C68.0083 21.2104 67.9383 21.2104 67.8833 21.2454L66.9883 21.8221L67.9392 17.5058ZM66.78 23.3954V22.7637L66.6417 23.3954H66.78ZM69.8183 24.0054V23.7287H66.1367V24.0054H69.8183ZM65.59 23.3954H65.8033V20.6187H65.59V23.3954ZM66 20.2837L65.5067 19.3687L65.0133 20.2837H66ZM65.4233 20.6187H65.21V23.3954H65.4233V20.6187ZM62.0317 29.7437C61.76 30.1221 61.47 30.5071 61.1567 30.8971C60.64 31.5404 60.0433 32.2187 59.36 32.9104V40.2721H62.0317V29.7437ZM59.1933 40.2721V33.0754C59.1284 33.1402 59.0632 33.2056 58.995 33.2721V40.2721H59.1933ZM58.66 40.2721V33.5921C58.0217 34.1921 57.3167 34.7954 56.5433 35.3854V38.4871H56.685V38.6537H56.5433V40.2721H58.66ZM56.4267 22.1337H56.9667V17.2821H56.4267V22.1337ZM52.945 16.9487H52.3483V16.1137C52.3517 16.1021 52.3517 16.0887 52.3517 16.0771C52.3517 15.9137 52.4833 15.7821 52.6467 15.7821C52.81 15.7821 52.9417 15.9137 52.9417 16.0771C52.9417 16.0887 52.9417 16.1021 52.945 16.1137V16.9487ZM50.7817 18.9571C50.985 18.2354 51.4733 17.6337 52.12 17.2821H50.7817V18.9571ZM50.78 16.9487H51.3783L51.3767 16.9471V16.1104C51.3733 16.0987 51.3733 16.0871 51.3733 16.0754C51.3733 15.9121 51.2417 15.7804 51.0783 15.7804C50.915 15.7804 50.7833 15.9121 50.7833 16.0754C50.7833 16.0871 50.7817 16.0987 50.78 16.1103V16.9487ZM52.1183 22.1337C51.4733 21.7821 50.985 21.1804 50.78 20.4587V22.1337H52.1183ZM53.4317 17.2804C52.095 17.2804 51.0067 18.3687 51.0067 19.7071C51.0067 21.0454 52.0933 22.1337 53.4317 22.1337C54.77 22.1337 55.8583 21.0454 55.8583 19.7071C55.8583 18.3687 54.7683 17.2804 53.4317 17.2804ZM56.0833 16.9487H55.4867V16.1137C55.49 16.1021 55.49 16.0888 55.49 16.0771C55.49 15.9137 55.6217 15.7821 55.785 15.7821C55.9483 15.7821 56.08 15.9137 56.08 16.0771C56.08 16.0887 56.08 16.1021 56.0833 16.1137V16.9487ZM56.095 17.2821H55.32H54.7483C55.4033 17.6371 55.895 18.2521 56.095 18.9854V17.2821ZM54.5133 16.9487H53.9167V16.1121C53.9183 16.1004 53.92 16.0887 53.92 16.0771C53.92 15.9137 54.0517 15.7821 54.215 15.7821C54.3783 15.7821 54.51 15.9137 54.51 16.0771C54.51 16.0887 54.51 16.1004 54.5133 16.1121V16.9487ZM56.0933 22.1321V20.4287C55.8933 21.1621 55.4017 21.7754 54.7467 22.1321H56.0933ZM55.1167 11.1887V9.73211H51.6933V11.1887H51.8767V10.2788C51.8767 10.0438 52.0683 9.85377 52.3017 9.85377C52.535 9.85377 52.7267 10.0438 52.7267 10.2788V11.1887H52.97V10.2788C52.97 10.0438 53.16 9.85377 53.395 9.85377C53.63 9.85377 53.82 10.0438 53.82 10.2788V11.1887H54.0633V10.2788C54.0633 10.0438 54.2533 9.85377 54.4883 9.85377C54.7233 9.85377 54.9133 10.0438 54.9133 10.2788V11.1887H55.1167ZM53.4433 4.35044C53.4267 4.26377 53.41 4.17544 53.3933 4.08544H53.3917C53.3886 4.10113 53.3856 4.11693 53.3825 4.13279C53.3739 4.17758 53.3653 4.2228 53.3567 4.26711L52.8783 9.39877H53.8367L53.4433 4.35044ZM53.3017 11.1887H53.485V10.2788C53.485 10.2288 53.4433 10.1871 53.3933 10.1871C53.3433 10.1871 53.3017 10.2288 53.3017 10.2788V11.1887ZM54.395 10.2788V11.1887H54.5783V10.2788C54.5783 10.2288 54.5367 10.1871 54.4867 10.1871C54.4367 10.1871 54.395 10.2288 54.395 10.2788ZM52.2083 11.1887H52.3917V10.2788C52.3917 10.2288 52.35 10.1871 52.3 10.1871C52.25 10.1871 52.2083 10.2288 52.2083 10.2788V11.1887ZM52.3867 11.5221H51.6617L50.4167 15.0371H51.7717L52.3867 11.5221ZM53.35 11.5221H52.555L51.94 15.0371H53.35V11.5221ZM54.2917 11.5221H53.5167V15.0371H54.925L54.2917 11.5221ZM54.4617 11.5237L55.095 15.0387H56.4483L55.1667 11.5237H54.4617ZM54.3177 7.28877H54.315L55.0483 9.40044H54.005L53.6917 5.38211C53.88 6.06211 54.0883 6.64711 54.2417 7.07377L54.3177 7.28877ZM52.545 7.07377L52.4683 7.29044H52.47L51.7567 9.40044H52.7133L53.0833 5.42377C52.8967 6.08544 52.695 6.65544 52.545 7.07377ZM56.52 15.3721H50.355V16.9487H50.455V16.0771C50.455 16.0637 50.4567 16.0504 50.46 16.0371C50.48 15.7087 50.755 15.4487 51.0867 15.4487C51.4183 15.4487 51.6917 15.7087 51.7133 16.0354C51.7167 16.0487 51.7183 16.0621 51.7183 16.0771V16.9487H52.0217V16.0771C52.0217 16.0621 52.0233 16.0471 52.0267 16.0337C52.0483 15.7071 52.3217 15.4471 52.6533 15.4471C52.985 15.4471 53.2583 15.7071 53.28 16.0337C53.2833 16.0487 53.285 16.0621 53.285 16.0771V16.9487H53.5883V16.0771C53.5883 16.0621 53.59 16.0487 53.5933 16.0354C53.6133 15.7071 53.8883 15.4471 54.22 15.4471C54.5517 15.4471 54.825 15.7071 54.8467 16.0354C54.85 16.0487 54.8517 16.0637 54.8517 16.0771V16.9487H55.155V16.0771C55.155 16.0621 55.1567 16.0471 55.16 16.0337C55.1817 15.7071 55.455 15.4471 55.7867 15.4471C56.1183 15.4471 56.3917 15.7071 56.4133 16.0337C56.4167 16.0487 56.4183 16.0621 56.4183 16.0771V16.9487H56.52V15.3721ZM50.4467 17.2821H49.9V22.1337H50.4467V17.2821ZM56.5183 23.0121V22.4671H50.3467V23.0121H56.5183ZM56.2117 23.3454H50.6567V29.7654H56.2117V23.3454ZM56.2117 29.9321H50.6567V34.1254H56.2117V29.9321ZM56.21 34.2954V35.2171C56.01 35.3671 55.8067 35.5171 55.5983 35.6654V34.9337C55.5983 34.8421 55.5233 34.7671 55.4317 34.7671H54.855C54.7633 34.7671 54.6883 34.8421 54.6883 34.9337V36.2837C54.6474 36.3105 54.6069 36.3368 54.5664 36.3631C54.5261 36.3893 54.4858 36.4155 54.445 36.4421V34.9337C54.445 34.8421 54.37 34.7671 54.2783 34.7671H53.7017C53.61 34.7671 53.535 34.8421 53.535 34.9337V36.9937C53.455 37.0404 53.3733 37.0871 53.2917 37.1337V34.9354C53.2917 34.8437 53.2167 34.7687 53.125 34.7687H52.5483C52.4567 34.7687 52.3817 34.8437 52.3817 34.9354V37.6237V37.6287C51.83 37.9137 51.255 38.1887 50.6567 38.4487V34.2954H56.21ZM50.3233 40.2737V38.9504H50.3217C49.72 39.2004 49.095 39.4354 48.445 39.6537C48.435 39.8621 48.4217 40.0687 48.4083 40.2737H50.3233ZM45.97 23.4321C45.5117 22.1837 45.0017 21.1604 44.4583 20.4271L44.4567 20.4254C43.63 19.3071 42.7633 18.9237 41.9083 19.2737L44.825 23.3621L45.2367 22.7854C45.3 22.6971 45.445 22.6971 45.5083 22.7854L45.97 23.4321ZM41.1 19.8321C40.9267 20.0004 40.755 20.1971 40.585 20.4271L40.5867 20.4287C40.495 20.5504 40.405 20.6821 40.3167 20.8204L42.53 23.9221L43.2733 22.8787L41.1 19.8321ZM44.855 40.3021L37.4783 29.9587L37.4767 29.9571C37.38 30.5821 37.2933 31.2237 37.2167 31.8787L37.1967 32.0604L46.4933 45.0721H47.2967C47.39 44.7587 47.4733 44.4287 47.5517 44.0821L45.6833 41.4621H44.9467C44.855 41.4621 44.78 41.3871 44.78 41.2954V40.4371C44.78 40.3804 44.8117 40.3321 44.855 40.3021ZM46.2883 45.0737L37.1683 32.3104V32.3121C37.1367 32.6104 37.1067 32.9087 37.08 33.2071L45.5467 45.0737H46.2883ZM44.3867 45.0737H45.1383L37.0367 33.7187C37.0117 34.0304 36.9883 34.3421 36.97 34.6504L44.3867 45.0737ZM41.7433 45.0737H43.9767V45.0721L36.94 35.1821C36.885 36.2321 36.8667 37.2571 36.8833 38.2437L41.7433 45.0737ZM40.9417 45.0737H41.5383L36.89 38.5404C36.8967 38.8754 36.9083 39.2071 36.925 39.5321L40.9417 45.0737ZM36.9618 40.1513L40.53 45.0737H37.7483C37.3485 43.716 37.0852 42.0336 36.9618 40.1513ZM25.2717 41.7904C23.9533 42.1287 22.5783 42.3071 21.175 42.3071L21.1767 42.3087C19.78 42.3087 18.4117 42.1321 17.1 41.7971L17.0233 42.0854C18.3583 42.4371 19.745 42.6237 21.1767 42.6237C22.6083 42.6237 24.01 42.4354 25.35 42.0787L25.2717 41.7904ZM17.1867 41.4721L17.1433 41.6354H17.1417C18.44 41.9654 19.785 42.1404 21.175 42.1404C22.565 42.1404 23.9233 41.9637 25.2283 41.6304L25.1833 41.4671C23.8967 41.8121 22.5433 41.9937 21.175 41.9937C19.8067 41.9937 18.4683 41.8137 17.1867 41.4721ZM24.6567 42.5854C23.5283 42.8271 22.3617 42.9554 21.175 42.9554V42.9537C19.9933 42.9537 18.835 42.8271 17.7117 42.5887L17.0983 45.0587H25.27L24.6567 42.5854ZM25.4433 45.0604H26.1517L25.435 42.4004C25.2317 42.4537 25.0267 42.5054 24.82 42.5521L25.4433 45.0604ZM25.67 41.9921C28 41.3187 30.135 40.1221 31.9083 38.4637L31.9067 38.4654C32.0267 38.3587 32.075 38.2471 32.05 38.1371C32.0493 38.1341 32.0478 38.1311 32.0464 38.128C32.0445 38.1241 32.0426 38.12 32.0417 38.1154C30.21 39.8171 28.0017 41.0387 25.5933 41.7087L25.67 41.9921ZM31.8083 37.8987C31.7283 37.8754 31.57 37.8621 31.4133 38.0221H31.415C29.7333 39.5954 27.7117 40.7321 25.5067 41.3771L25.5517 41.5471C27.9417 40.8804 30.1333 39.6687 31.9483 37.9754C31.9083 37.9421 31.8617 37.9137 31.8083 37.8987ZM24.1867 39.5971H24.68L24.535 39.0587C24.3283 39.1604 24.1967 39.3704 24.1867 39.5971ZM24.8567 40.2521L24.725 39.7637V39.7621H24.2017C24.2025 39.7662 24.2029 39.77 24.2033 39.7737C24.2038 39.7775 24.2042 39.7812 24.205 39.7854C24.2483 39.9487 24.3517 40.0854 24.4983 40.1687C24.6083 40.2321 24.7333 40.2604 24.8567 40.2521ZM25.07 39.7637L25.1717 40.1404C25.2467 40.0871 25.3133 40.0204 25.36 39.9387C25.3933 39.8837 25.4133 39.8237 25.4267 39.7637H25.07ZM25.4433 39.5971C25.4417 39.5521 25.435 39.5054 25.4233 39.4604C25.3517 39.1954 25.1217 39.0171 24.8633 38.9971L25.025 39.5971H25.4433ZM24.46 37.5037L24.6033 38.0337V38.0321C25.5417 37.7637 26.4333 37.3904 27.2667 36.9221L26.9917 36.4471C26.1983 36.8921 25.35 37.2487 24.46 37.5037ZM20.5483 40.0387H21.0067V39.4987C20.9017 39.5271 20.805 39.5804 20.7267 39.6587C20.6233 39.7621 20.5633 39.8954 20.5483 40.0387ZM21.62 40.5504C21.715 40.4554 21.7733 40.3354 21.795 40.2054L21.7967 40.2037H20.555C20.5767 40.3337 20.635 40.4537 20.73 40.5487C20.8483 40.6687 21.0067 40.7337 21.175 40.7337C21.3433 40.7337 21.5017 40.6687 21.62 40.5504ZM21.34 39.4987V40.0387H21.7967C21.77 39.7787 21.585 39.5671 21.34 39.4987ZM23.925 36.7971L21.3417 27.2154V37.1371C22.2317 37.1254 23.0967 37.0087 23.925 36.7971ZM26.58 35.7337L21.7083 27.2954L24.2467 36.7071C25.0667 36.4704 25.8483 36.1421 26.58 35.7337ZM21.9539 27.0527L28.9017 34.0004C28.2867 34.5971 27.6067 35.1237 26.8683 35.5654L21.9539 27.0527ZM22.1906 26.8177L30.7033 31.7321C30.26 32.4704 29.7333 33.1521 29.1383 33.7654L22.1906 26.8177ZM31.855 29.0721L22.355 26.5271L30.87 31.4437C31.2867 30.7004 31.6183 29.9071 31.855 29.0721ZM32.275 26.2054H22.44L31.9433 28.7521C32.1483 27.9354 32.2617 27.0821 32.275 26.2054ZM31.9417 23.3254L22.44 25.8721H32.2733C32.2617 24.9954 32.1483 24.1421 31.9417 23.3254ZM30.87 20.6337L22.3533 25.5504H22.355L31.855 23.0054C31.6167 22.1704 31.285 21.3754 30.87 20.6337ZM22.1889 25.2581L29.1367 18.3104C29.7333 18.9237 30.26 19.6054 30.7017 20.3437L22.1889 25.2581ZM26.8683 16.5104L21.9517 25.0254L28.9017 18.0754C28.2883 17.4804 27.6067 16.9537 26.8683 16.5104ZM24.2067 15.3571L21.6433 24.8921L26.58 16.3421C25.8367 15.9254 25.0417 15.5937 24.2067 15.3571ZM21.3417 14.9387V24.7337L23.885 15.2704C23.07 15.0654 22.2183 14.9521 21.3417 14.9387ZM18.465 15.2704L21.0083 24.6987V14.9387C20.1317 14.9521 19.28 15.0654 18.465 15.2704ZM20.7185 24.9167L15.7683 16.3437C16.5117 15.9271 17.3067 15.5954 18.1417 15.3587L20.7185 24.9167ZM13.4467 18.0754L20.3967 25.0254L15.48 16.5104C14.7417 16.9521 14.06 17.4787 13.4467 18.0754ZM11.6467 20.3437L20.1617 25.2604L13.2117 18.3104C12.615 18.9237 12.09 19.6054 11.6467 20.3437ZM19.9927 25.5498L10.4967 23.0054C10.7333 22.1704 11.065 21.3771 11.4817 20.6354L19.9927 25.5498ZM10.0767 25.8721H19.9083L10.4083 23.3271C10.2033 24.1437 10.09 24.9954 10.0767 25.8721ZM10.4067 28.7521L19.9083 26.2054H10.075C10.0867 27.0821 10.2017 27.9354 10.4067 28.7521ZM19.9936 26.5279L11.4817 31.4421C11.0667 30.7004 10.735 29.9054 10.4983 29.0721L19.9936 26.5279ZM13.2117 33.7654L20.1617 26.8154L11.6467 31.7321C12.0883 32.4704 12.615 33.1521 13.2117 33.7654ZM15.48 35.5654L20.3967 27.0504L13.4467 34.0004C14.06 34.5954 14.7417 35.1221 15.48 35.5654ZM18.12 36.7121L20.6617 27.2587L20.66 27.2604L15.7683 35.7337C16.505 36.1454 17.2933 36.4754 18.12 36.7121ZM21.0083 37.1387V27.2587L18.4433 36.8021C19.265 37.0104 20.125 37.1254 21.0083 37.1387ZM23.9683 36.9587C23.1267 37.1737 22.2467 37.2921 21.3417 37.3054V37.3071V37.6321C22.275 37.6187 23.185 37.4971 24.0533 37.2737L23.9683 36.9587ZM26.6617 35.8771C25.9183 36.2937 25.1233 36.6271 24.2883 36.8671L24.3733 37.1821C25.2367 36.9337 26.0567 36.5887 26.825 36.1587L26.6617 35.8771ZM29.02 34.1204C28.395 34.7271 27.7017 35.2621 26.9517 35.7121L27.115 35.9937C27.89 35.5304 28.605 34.9771 29.25 34.3504L29.02 34.1204ZM30.8467 31.8154C30.3967 32.5654 29.8617 33.2587 29.255 33.8837L29.485 34.1137C30.1117 33.4704 30.6633 32.7537 31.1283 31.9787L30.8467 31.8154ZM32.015 29.1154C31.7733 29.9637 31.4367 30.7721 31.0133 31.5271H31.015L31.2967 31.6904C31.7333 30.9104 32.0817 30.0771 32.33 29.2004L32.015 29.1154ZM32.1037 28.7922L32.4183 28.8771C32.635 28.0204 32.7533 27.1254 32.7667 26.2037H32.4417C32.4283 27.0949 32.3135 27.9627 32.1037 28.7922ZM32.1033 23.2821C32.3133 24.1137 32.4283 24.9804 32.4417 25.8721V25.8704H32.7667C32.7533 24.9504 32.635 24.0537 32.4183 23.1971L32.1033 23.2821ZM32.0149 22.96C31.7732 22.1118 31.4366 21.3036 31.0133 20.5487L31.295 20.3854C31.7317 21.1637 32.08 21.9987 32.3283 22.8754L32.0149 22.96ZM29.2567 18.1921C29.8633 18.8171 30.3983 19.5104 30.8483 20.2604L31.13 20.0971C30.6667 19.3221 30.1133 18.6071 29.4867 17.9621L29.2567 18.1921ZM26.9517 16.3654C27.7017 16.8154 28.395 17.3504 29.02 17.9571L29.25 17.7271C28.6067 17.1004 27.89 16.5487 27.115 16.0837L26.9517 16.3654ZM24.25 15.1971C25.1 15.4387 25.9083 15.7754 26.6633 16.1987V16.1971L26.8267 15.9154C26.0467 15.4787 25.2117 15.1304 24.335 14.8821L24.25 15.1971ZM21.3417 14.7721C22.2317 14.7837 23.0983 14.9004 23.9283 15.1087V15.1104L24.0133 14.7954C23.1567 14.5787 22.2617 14.4604 21.3417 14.4471V14.7721ZM18.4217 15.1087C19.2517 14.9004 20.1183 14.7854 21.0083 14.7721V14.7704V14.4454C20.0883 14.4587 19.1933 14.5771 18.3367 14.7937L18.4217 15.1087ZM15.6867 16.1987C16.4417 15.7754 17.25 15.4387 18.1 15.1971L18.015 14.8821C17.1383 15.1321 16.3033 15.4804 15.5233 15.9171L15.6867 16.1987ZM13.3283 17.9571C13.9533 17.3504 14.6467 16.8154 15.3967 16.3654L15.2333 16.0837C14.4583 16.5471 13.7433 17.1004 13.0983 17.7271L13.3283 17.9571ZM11.5017 20.2621C11.9517 19.5104 12.4867 18.8187 13.0933 18.1937L12.8633 17.9637C12.2367 18.6071 11.685 19.3237 11.22 20.0987L11.5017 20.2621ZM10.335 22.9621C10.5767 22.1137 10.9133 21.3054 11.3367 20.5504H11.335L11.0533 20.3871C10.6167 21.1671 10.2683 22.0004 10.02 22.8771L10.335 22.9621ZM9.90833 25.8704C9.92167 24.9787 10.0367 24.1121 10.2467 23.2821L9.93167 23.1971C9.715 24.0537 9.59667 24.9504 9.58333 25.8704H9.90833ZM10.2467 28.7937C10.0367 27.9637 9.92167 27.0971 9.90833 26.2054H9.58333C9.59667 27.1254 9.715 28.0221 9.93167 28.8787L10.2467 28.7937ZM11.335 31.5254C10.9133 30.7721 10.5767 29.9637 10.335 29.1154L10.02 29.2004C10.2683 30.0754 10.6167 30.9104 11.0533 31.6887L11.335 31.5254ZM13.0933 33.8837C12.4867 33.2587 11.9517 32.5654 11.5017 31.8154L11.22 31.9787C11.685 32.7537 12.2367 33.4687 12.8633 34.1137L13.0933 33.8837ZM15.3983 35.7104C14.6467 35.2604 13.955 34.7254 13.33 34.1187L13.1 34.3487C13.7433 34.9754 14.46 35.5271 15.235 35.9921L15.3983 35.7104ZM18.0783 36.8721C17.2367 36.6321 16.435 36.2971 15.6867 35.8771L15.5233 36.1587C16.2967 36.5921 17.125 36.9387 17.9933 37.1871L18.0783 36.8721ZM21.0067 37.3054C20.1083 37.2921 19.235 37.1754 18.3983 36.9621L18.3133 37.2771C19.1767 37.4971 20.0783 37.6171 21.0067 37.6304V37.3054ZM21.0067 38.5121V37.9637C20.0483 37.9504 19.1183 37.8254 18.2267 37.5987L18.085 38.1287C19.02 38.3687 20 38.4987 21.0067 38.5121ZM24.1383 37.5954C23.2417 37.8254 22.305 37.9504 21.34 37.9637V37.9654V38.5137C22.3533 38.5004 23.34 38.3671 24.2817 38.1254L24.1383 37.5954ZM27.28 36.2821L27.555 36.7571C28.3967 36.2537 29.175 35.6537 29.8733 34.9737L29.485 34.5854C28.82 35.2321 28.08 35.8037 27.28 36.2821ZM30.4983 35.9004H30.8017L30.575 35.6737C30.535 35.7437 30.5083 35.8187 30.4983 35.9004ZM30.675 36.4304C30.7933 36.5504 30.9517 36.6154 31.12 36.6154H31.1217C31.29 36.6154 31.4483 36.5487 31.5667 36.4304C31.665 36.3321 31.725 36.2054 31.7433 36.0687H31.0383L31.0033 36.1037L30.9683 36.0687H30.4983C30.5167 36.2037 30.5767 36.3321 30.675 36.4304ZM31.565 35.5387C31.4467 35.4187 31.2883 35.3537 31.12 35.3537C31.01 35.3537 30.9033 35.3854 30.81 35.4387L31.2383 35.8671L31.2033 35.9021H31.7417C31.7233 35.7654 31.6633 35.6387 31.565 35.5387ZM29.7217 34.3487L30.11 34.7371C30.79 34.0387 31.39 33.2604 31.8933 32.4187L31.4183 32.1437C30.94 32.9454 30.3683 33.6837 29.7217 34.3487ZM31.585 31.8554L32.06 32.1304V32.1287C32.535 31.2837 32.9133 30.3787 33.1817 29.4271L32.6517 29.2854C32.395 30.1904 32.0367 31.0521 31.585 31.8554ZM32.74 28.9654L33.27 29.1071C33.5067 28.1771 33.635 27.2054 33.6483 26.2054H33.1C33.0867 27.1554 32.9633 28.0804 32.74 28.9654ZM34.635 26.2054C34.7083 26.4721 34.95 26.6687 35.24 26.6687C35.5667 26.6687 35.8333 26.4171 35.865 26.0987H35.24V26.2054H34.635ZM35.86 25.9321C35.8083 25.6337 35.5517 25.4071 35.24 25.4071V25.4087C34.95 25.4087 34.7083 25.6054 34.635 25.8721H35.24V25.9321H35.86ZM33.1017 25.8721H33.65C33.6367 24.8721 33.5083 23.9004 33.2717 22.9704L32.7417 23.1121C32.965 23.9971 33.0883 24.9221 33.1017 25.8721ZM32.6517 22.7904L33.1817 22.6487V22.6471C32.9133 21.6954 32.535 20.7904 32.06 19.9454L31.585 20.2204C32.035 21.0237 32.395 21.8854 32.6517 22.7904ZM31.4183 19.9321L31.8933 19.6571C31.39 18.8154 30.79 18.0371 30.11 17.3387L29.7217 17.7271C30.3683 18.3921 30.94 19.1321 31.4183 19.9321ZM30.8111 16.6377L31.2383 16.2104L31.2217 16.1937H31.74C31.72 16.3204 31.6617 16.4404 31.565 16.5371C31.3603 16.7418 31.0509 16.7737 30.8111 16.6377ZM31.5667 15.6471C31.4433 15.5237 31.2817 15.4621 31.12 15.4621C30.9583 15.4621 30.7967 15.5237 30.6733 15.6471C30.57 15.7521 30.51 15.8854 30.495 16.0287H30.9483L31.0017 15.9754L31.055 16.0287H31.745C31.73 15.8887 31.6733 15.7537 31.5667 15.6471ZM30.7833 16.1937H30.5C30.5117 16.2671 30.5383 16.3371 30.575 16.4021L30.7833 16.1937ZM29.485 17.4921L29.8733 17.1037C29.175 16.4237 28.3967 15.8237 27.555 15.3204L27.28 15.7954C28.0817 16.2737 28.82 16.8454 29.485 17.4921ZM26.9917 15.6287L27.2667 15.1537H27.265C26.42 14.6787 25.5133 14.3004 24.5617 14.0321L24.42 14.5621C25.325 14.8171 26.1867 15.1771 26.9917 15.6287ZM24.0983 14.4721L24.2417 13.9421H24.24C23.31 13.7054 22.34 13.5771 21.34 13.5637V14.1121C22.29 14.1254 23.2133 14.2487 24.0983 14.4721ZM21.3417 12.0554V12.5771C21.5817 12.5104 21.7633 12.3071 21.7967 12.0554H21.3417ZM21.795 11.8904C21.755 11.5821 21.4933 11.3421 21.1733 11.3421H21.1717C21.0033 11.3421 20.845 11.4087 20.7267 11.5271C20.6267 11.6271 20.5683 11.7537 20.55 11.8904H21.795ZM21.0083 12.0571H20.5517C20.5867 12.3087 20.7683 12.5121 21.0083 12.5787V12.0571ZM21.0083 14.1121V13.5637C20.0083 13.5771 19.0367 13.7054 18.1067 13.9421L18.25 14.4721C19.135 14.2487 20.0583 14.1254 21.0083 14.1121ZM17.9283 14.5621L17.785 14.0321C16.8333 14.3021 15.9267 14.6804 15.0817 15.1554L15.3567 15.6304C16.1617 15.1787 17.0233 14.8187 17.9283 14.5621ZM15.0683 15.7954L14.7933 15.3204C13.9517 15.8237 13.1733 16.4237 12.475 17.1037L12.8633 17.4921C13.5283 16.8454 14.2683 16.2737 15.0683 15.7954ZM11.8483 16.1937H11.565L11.7733 16.4021C11.81 16.3371 11.8367 16.2671 11.8483 16.1937ZM11.2267 15.4621C11.0667 15.4621 10.905 15.5237 10.7817 15.6471H10.7833C10.68 15.7504 10.62 15.8837 10.605 16.0271H11.295L11.3467 15.9754L11.3983 16.0271H11.8517C11.8367 15.8837 11.7767 15.7504 11.6733 15.6471C11.55 15.5237 11.3867 15.4621 11.2267 15.4621ZM10.7833 16.5387C10.9017 16.6587 11.06 16.7237 11.2283 16.7237H11.23C11.34 16.7237 11.4467 16.6921 11.54 16.6387L11.1117 16.2104L11.1283 16.1937H10.6083C10.63 16.3237 10.6883 16.4437 10.7833 16.5387ZM12.6283 17.7287L12.24 17.3404C11.56 18.0404 10.96 18.8171 10.4567 19.6587L10.9317 19.9337C11.4117 19.1321 11.9817 18.3937 12.6283 17.7287ZM10.765 20.2221L10.29 19.9471V19.9487C9.815 20.7937 9.43667 21.6987 9.16833 22.6504L9.69833 22.7921C9.955 21.8871 10.3133 21.0254 10.765 20.2221ZM9.61 23.1121L9.08 22.9704C8.84333 23.9004 8.715 24.8721 8.70167 25.8721H9.25C9.26333 24.9204 9.38667 23.9971 9.61 23.1121ZM7.71333 25.8704C7.64 25.6037 7.39833 25.4071 7.10833 25.4071V25.4054C6.79667 25.4054 6.53833 25.6337 6.48833 25.9304H7.10833V25.8704H7.71333ZM6.48333 26.0987C6.515 26.4171 6.78167 26.6687 7.10833 26.6687C7.39833 26.6687 7.64 26.4721 7.71333 26.2054H7.10833V26.0987H6.48333ZM9.25 26.2054H8.70167C8.715 27.2054 8.84333 28.1771 9.08 29.1071L9.61 28.9654C9.38667 28.0804 9.26333 27.1554 9.25 26.2054ZM9.69833 29.2854L9.16833 29.4271V29.4287C9.43667 30.3804 9.815 31.2854 10.29 32.1304L10.765 31.8554C10.315 31.0504 9.955 30.1904 9.69833 29.2854ZM10.9317 32.1437L10.4567 32.4187C10.96 33.2604 11.56 34.0387 12.24 34.7371L12.6283 34.3487C11.9817 33.6837 11.41 32.9437 10.9317 32.1437ZM11.5383 35.4387C11.445 35.3854 11.34 35.3537 11.2283 35.3537V35.3554C11.06 35.3554 10.9017 35.4204 10.7833 35.5404C10.685 35.6387 10.625 35.7654 10.6067 35.9021H11.145L11.11 35.8671L11.5383 35.4387ZM10.7833 36.4287C10.9017 36.5487 11.06 36.6137 11.2283 36.6137L11.23 36.6154C11.3983 36.6154 11.5567 36.5487 11.675 36.4304C11.7767 36.3287 11.8333 36.2004 11.8517 36.0671H11.3817L11.3467 36.1021L11.3117 36.0671H10.6067C10.625 36.2037 10.6833 36.3304 10.7833 36.4287ZM11.5467 35.9004H11.85C11.8383 35.8221 11.8133 35.7454 11.7733 35.6737L11.5467 35.9004ZM12.865 34.5837L12.4767 34.9721C13.1767 35.6521 13.9533 36.2521 14.795 36.7554L15.07 36.2804C14.2683 35.8021 13.53 35.2304 12.865 34.5837ZM15.3583 36.4471L15.0833 36.9221H15.085C15.925 37.3937 16.8233 37.7704 17.7667 38.0387L17.9083 37.5087C17.01 37.2521 16.1567 36.8954 15.3583 36.4471ZM18.145 39.7637H17.645L17.5133 40.2521C17.8 40.2621 18.065 40.0754 18.1417 39.7871C18.1433 39.7787 18.145 39.7637 18.145 39.7637ZM17.8317 39.0704L17.69 39.5971H18.16C18.15 39.3771 18.0267 39.1754 17.8317 39.0704ZM17.5083 38.9954C17.24 39.0071 16.9983 39.1887 16.925 39.4604H16.9267C16.915 39.5054 16.9083 39.5521 16.9067 39.5971H17.3467L17.5083 38.9954ZM16.92 39.7637C16.935 39.8237 16.955 39.8837 16.9867 39.9387L16.985 39.9404C17.0367 40.0287 17.1083 40.1004 17.1933 40.1537L17.2983 39.7637H16.92ZM17.4283 40.5806C17.4644 40.5838 17.4989 40.5871 17.5333 40.5871C17.9583 40.5871 18.3483 40.3021 18.465 39.8737C18.59 39.4087 18.35 38.9304 17.92 38.7421L17.9983 38.4504C18.9617 38.6971 19.97 38.8321 21.0067 38.8454V39.1554C20.8133 39.1887 20.6333 39.2787 20.4917 39.4221C20.31 39.6037 20.21 39.8454 20.21 40.1037C20.21 40.3621 20.31 40.6037 20.4917 40.7854C20.6733 40.9671 20.915 41.0671 21.1717 41.0671H21.1733C21.43 41.0671 21.6717 40.9671 21.8533 40.7854C22.035 40.6037 22.1367 40.3604 22.1367 40.1037C22.1367 39.6287 21.7917 39.2354 21.34 39.1554V38.8454C22.3833 38.8321 23.3983 38.6971 24.3683 38.4471L24.445 38.7337C24.0033 38.9154 23.755 39.4004 23.8817 39.8737C23.9483 40.1221 24.1083 40.3304 24.3317 40.4587C24.48 40.5437 24.645 40.5887 24.8117 40.5887C24.855 40.5887 24.9 40.5854 24.945 40.5787L25.0983 41.1437C23.8383 41.4821 22.5233 41.6587 21.1767 41.6587C19.83 41.6587 18.5283 41.4821 17.275 41.1487L17.4283 40.5806ZM16.865 41.3837C14.6533 40.7404 12.6267 39.6037 10.9417 38.0271V38.0287C10.7217 37.8237 10.475 37.8387 10.355 37.9571C10.325 37.9854 10.3067 38.0204 10.295 38.0571L10.385 37.9604C12.2083 39.6654 14.4133 40.8854 16.82 41.5521L16.865 41.3837ZM10.2883 38.0954C10.275 38.2037 10.3283 38.3354 10.4467 38.4687C12.225 40.1304 14.365 41.3271 16.7 41.9971L16.7767 41.7121C14.3517 41.0404 12.1283 39.8121 10.2883 38.0954ZM17.5483 42.5554C17.3433 42.5104 17.1383 42.4587 16.935 42.4054V42.4037L16.2217 45.0587H16.9267L17.5483 42.5554ZM50.6567 41.4637V45.0737H56.2083V41.4637H55.5967V41.9171C55.5967 42.0087 55.5217 42.0837 55.43 42.0837H54.8533C54.7617 42.0837 54.6867 42.0087 54.6867 41.9171V41.4637H54.4433V41.9171C54.4433 42.0087 54.3683 42.0837 54.2767 42.0837H53.7C53.6083 42.0837 53.5333 42.0087 53.5333 41.9171V41.4637H53.29V41.9171C53.29 42.0087 53.215 42.0837 53.1233 42.0837H52.5467C52.455 42.0837 52.38 42.0087 52.38 41.9171V41.4637H52.1367V41.9171C52.1367 42.0087 52.0617 42.0837 51.97 42.0837H51.3933C51.3017 42.0837 51.2267 42.0087 51.2267 41.9171V41.4637H50.6567ZM64.615 44.4321V45.0737H71.2533V44.4321H64.615ZM72.8377 39.9519C71.8581 40.5469 71.3678 40.9843 71.215 41.1321H71.08V40.6354L72.8377 39.9519ZM70.5317 41.1321H70.745V37.5287H70.5317V41.1321ZM70.5317 37.1954H70.745V32.9287H70.5317V37.1954ZM70.5317 32.5954H70.745V28.3287H70.5317V32.5954ZM70.5317 23.7287V27.9954H70.745V23.7287H70.5317ZM71.0783 25.6487V25.8854H83.3633V25.6487H71.0783ZM83.6983 23.7287V25.4821V27.9954H83.9117V23.7287H83.6983ZM83.9117 28.3287H83.6983V32.5954H83.9117V28.3287ZM83.9117 32.9287H83.6983V37.1954H83.9117V32.9287ZM83.9117 41.1321V37.5287H83.6983V41.1321H83.9117ZM83.365 41.1304V40.6421L83.3667 40.6404L81.575 39.9437C82.56 40.5437 83.055 40.9837 83.2083 41.1304H83.365ZM89.74 44.4321H83.1017V45.0737H89.74V44.4321Z" fill="white"/>
</g>
<defs>
<clipPath id="clip0_96_651">
<rect width="125" height="47" fill="white" transform="translate(0.5 0.598633)"/>
</clipPath>
</defs>
</svg>
