<svg width="128" height="76" viewBox="0 0 128 76" fill="none" xmlns="http://www.w3.org/2000/svg">
<g clip-path="url(#clip0_96_750)">
<g clip-path="url(#clip1_96_750)">
<path d="M115.064 71.6321H114.413V64.5501H111.523V63.2041H104.659V21.9961H114.135V22.6461H105.31V62.5521H112.173V63.8961H115.062L115.064 71.6321Z" fill="white"/>
<path d="M121.923 10.9023H113.807V11.5523H121.923V10.9023Z" fill="white"/>
<path d="M102.756 63.8997V62.5537H108.756V63.2047H103.405V64.5507H100.515V71.6347H99.8645V63.9027L102.756 63.8997Z" fill="white"/>
<path d="M121.924 11.0898H121.273V71.6318H121.924V11.0898Z" fill="white"/>
<path d="M114.458 11.0898H113.807V62.1558H114.458V11.0898Z" fill="white"/>
<path d="M126.891 51.0997H126.24V40.4577L125.728 39.9457V38.4207H124.374V36.9357L121.369 33.9307L121.829 33.4707L125.029 36.6707V37.7707H126.384V39.6777L126.896 40.1897L126.891 51.0997Z" fill="white"/>
<path d="M124.283 23.6816V25.7886H121.601V26.4386H124.934V24.3326H126.24V26.4396H128.02V71.6316H128.67V25.7886H126.89V23.6816H124.283Z" fill="white"/>
<path d="M110.339 64.2598H104.652V64.7028H110.339V64.2598Z" fill="white"/>
<path d="M113.17 65.71H102.038V66.153H113.17V65.71Z" fill="white"/>
<path d="M113.17 67.1592H102.038V67.6022H113.17V67.1592Z" fill="white"/>
<path d="M113.17 68.6094H102.038V69.0524H113.17V68.6094Z" fill="white"/>
<path d="M113.17 70.0596H102.038V70.5026H113.17V70.0596Z" fill="white"/>
<path d="M107.241 24.0078H106.879V61.9138H107.241V24.0078Z" fill="white"/>
<path d="M108.543 24.0078H108.182V61.9138H108.543V24.0078Z" fill="white"/>
<path d="M109.845 24.0078H109.484V61.9138H109.845V24.0078Z" fill="white"/>
<path d="M111.148 24.0078H110.786V61.9138H111.148V24.0078Z" fill="white"/>
<path d="M112.451 24.0078H112.089V61.9138H112.451V24.0078Z" fill="white"/>
<path d="M116.483 13.1699H115.909V14.6149H116.483V13.1699Z" fill="white"/>
<path d="M117.866 13.1699H117.292V14.6149H117.866V13.1699Z" fill="white"/>
<path d="M116.483 16H115.909V17.445H116.483V16Z" fill="white"/>
<path d="M117.866 16H117.292V17.445H117.866V16Z" fill="white"/>
<path d="M116.483 18.8291H115.909V20.2741H116.483V18.8291Z" fill="white"/>
<path d="M117.866 18.8291H117.292V20.2741H117.866V18.8291Z" fill="white"/>
<path d="M116.483 21.6592H115.909V23.1042H116.483V21.6592Z" fill="white"/>
<path d="M117.866 21.6592H117.292V23.1042H117.866V21.6592Z" fill="white"/>
<path d="M116.483 24.4883H115.909V25.9333H116.483V24.4883Z" fill="white"/>
<path d="M117.866 24.4883H117.292V25.9333H117.866V24.4883Z" fill="white"/>
<path d="M116.483 27.3184H115.909V28.7634H116.483V27.3184Z" fill="white"/>
<path d="M117.866 27.3184H117.292V28.7634H117.866V27.3184Z" fill="white"/>
<path d="M116.483 30.1484H115.909V31.5934H116.483V30.1484Z" fill="white"/>
<path d="M117.866 30.1484H117.292V31.5934H117.866V30.1484Z" fill="white"/>
<path d="M116.483 32.9775H115.909V34.4225H116.483V32.9775Z" fill="white"/>
<path d="M117.866 32.9775H117.292V34.4225H117.866V32.9775Z" fill="white"/>
<path d="M116.483 35.8076H115.909V37.2526H116.483V35.8076Z" fill="white"/>
<path d="M117.866 35.8076H117.292V37.2526H117.866V35.8076Z" fill="white"/>
<path d="M116.483 38.6377H115.909V40.0827H116.483V38.6377Z" fill="white"/>
<path d="M117.866 38.6377H117.292V40.0827H117.866V38.6377Z" fill="white"/>
<path d="M116.483 41.4668H115.909V42.9118H116.483V41.4668Z" fill="white"/>
<path d="M117.866 41.4668H117.292V42.9118H117.866V41.4668Z" fill="white"/>
<path d="M116.483 44.2969H115.909V45.7419H116.483V44.2969Z" fill="white"/>
<path d="M117.866 44.2969H117.292V45.7419H117.866V44.2969Z" fill="white"/>
<path d="M116.483 47.126H115.909V48.571H116.483V47.126Z" fill="white"/>
<path d="M117.866 47.126H117.292V48.571H117.866V47.126Z" fill="white"/>
<path d="M116.483 49.9561H115.909V51.4011H116.483V49.9561Z" fill="white"/>
<path d="M117.866 49.9561H117.292V51.4011H117.866V49.9561Z" fill="white"/>
<path d="M116.483 52.7852H115.909V54.2302H116.483V52.7852Z" fill="white"/>
<path d="M117.866 52.7852H117.292V54.2302H117.866V52.7852Z" fill="white"/>
<path d="M116.483 55.6152H115.909V57.0602H116.483V55.6152Z" fill="white"/>
<path d="M117.866 55.6152H117.292V57.0602H117.866V55.6152Z" fill="white"/>
<path d="M116.483 58.4443H115.909V59.8893H116.483V58.4443Z" fill="white"/>
<path d="M117.866 58.4443H117.292V59.8893H117.866V58.4443Z" fill="white"/>
<path d="M116.483 61.2744H115.909V62.7194H116.483V61.2744Z" fill="white"/>
<path d="M117.866 61.2744H117.292V62.7194H117.866V61.2744Z" fill="white"/>
<path d="M116.483 64.1045H115.909V65.5495H116.483V64.1045Z" fill="white"/>
<path d="M117.866 64.1045H117.292V65.5495H117.866V64.1045Z" fill="white"/>
<path d="M116.483 66.9336H115.909V68.3786H116.483V66.9336Z" fill="white"/>
<path d="M117.866 66.9336H117.292V68.3786H117.866V66.9336Z" fill="white"/>
<path d="M116.483 69.7637H115.909V71.2087H116.483V69.7637Z" fill="white"/>
<path d="M117.866 69.7637H117.292V71.2087H117.866V69.7637Z" fill="white"/>
<path d="M127.062 27.5H122.672V28.042H127.062V27.5Z" fill="white"/>
<path d="M127.062 28.7637H122.672V29.3057H127.062V28.7637Z" fill="white"/>
<path d="M127.062 30.0273H122.672V30.5693H127.062V30.0273Z" fill="white"/>
<path d="M127.062 31.292H122.672V31.834H127.062V31.292Z" fill="white"/>
<path d="M127.062 32.5566H122.672V33.0986H127.062V32.5566Z" fill="white"/>
<path d="M127.062 33.8203H125.391V34.3623H127.062V33.8203Z" fill="white"/>
<path d="M127.062 35.085H125.391V35.627H127.062V35.085Z" fill="white"/>
<path d="M123.339 39.4951H122.883V40.4171H123.339V39.4951Z" fill="white"/>
<path d="M123.339 43.4805H122.883V44.4025H123.339V43.4805Z" fill="white"/>
<path d="M123.339 45.4727H122.883V46.3947H123.339V45.4727Z" fill="white"/>
<path d="M123.339 47.4648H122.883V48.3868H123.339V47.4648Z" fill="white"/>
<path d="M123.339 51.4492H122.883V52.3712H123.339V51.4492Z" fill="white"/>
<path d="M123.339 53.4424H122.883V54.3644H123.339V53.4424Z" fill="white"/>
<path d="M123.339 55.4346H122.883V56.3566H123.339V55.4346Z" fill="white"/>
<path d="M123.339 59.4199H122.883V60.3419H123.339V59.4199Z" fill="white"/>
<path d="M123.339 61.4121H122.883V62.3341H123.339V61.4121Z" fill="white"/>
<path d="M123.339 63.4043H122.883V64.3263H123.339V63.4043Z" fill="white"/>
<path d="M123.339 67.3896H122.883V68.3116H123.339V67.3896Z" fill="white"/>
<path d="M123.339 69.3818H122.883V70.3038H123.339V69.3818Z" fill="white"/>
<path d="M124.563 39.4951H124.107V40.4171H124.563V39.4951Z" fill="white"/>
<path d="M124.563 41.4873H124.107V42.4093H124.563V41.4873Z" fill="white"/>
<path d="M124.563 43.4805H124.107V44.4025H124.563V43.4805Z" fill="white"/>
<path d="M124.563 47.4648H124.107V48.3868H124.563V47.4648Z" fill="white"/>
<path d="M124.563 49.458H124.107V50.38H124.563V49.458Z" fill="white"/>
<path d="M124.563 51.4492H124.107V52.3712H124.563V51.4492Z" fill="white"/>
<path d="M124.563 55.4346H124.107V56.3566H124.563V55.4346Z" fill="white"/>
<path d="M124.563 57.4277H124.107V58.3497H124.563V57.4277Z" fill="white"/>
<path d="M124.563 59.4199H124.107V60.3419H124.563V59.4199Z" fill="white"/>
<path d="M124.563 63.4043H124.107V64.3263H124.563V63.4043Z" fill="white"/>
<path d="M124.563 65.3965H124.107V66.3185H124.563V65.3965Z" fill="white"/>
<path d="M124.563 67.3896H124.107V68.3116H124.563V67.3896Z" fill="white"/>
<mask id="mask0_96_750" style="mask-type:luminance" maskUnits="userSpaceOnUse" x="5" y="-7" width="124" height="82">
<path d="M128.666 -6.77441H5.1785V74.8456H128.666V-6.77441Z" fill="white"/>
</mask>
<g mask="url(#mask0_96_750)">
<path d="M60.3335 25.3215L62.0215 16.1415L63.7095 25.3225L63.9875 23.6655C63.9928 23.6347 64.0029 23.605 64.0175 23.5775L62.4175 14.8945L62.0175 14.6055L61.6175 14.8955L60.0175 23.5775C60.0321 23.6054 60.0422 23.6354 60.0475 23.6665L60.3335 25.3215Z" fill="white"/>
<path d="M69.1795 44.5078H68.2105V44.8078C68.2105 44.8898 68.1779 44.9684 68.12 45.0263C68.062 45.0843 67.9834 45.1168 67.9015 45.1168H66.5255V45.1268H68.5615V45.6568H68.4065V46.2748H69.1785L69.1795 44.5078Z" fill="white"/>
<path d="M55.6365 45.6578H55.4815V45.1278H57.5165V45.1178H56.1405C56.0585 45.1178 55.9799 45.0853 55.922 45.0273C55.864 44.9694 55.8315 44.8908 55.8315 44.8088V44.5078H54.8625V46.2738H55.6345L55.6365 45.6578Z" fill="white"/>
<path d="M56.2565 72.0212V46.2752H57.4925V45.6572H55.6395V72.0202L56.2565 72.0212Z" fill="white"/>
<path d="M67.7875 72.0212H68.4055V45.6582H66.5525V46.2762H67.7885L67.7875 72.0212Z" fill="white"/>
<path d="M66.5535 59.623H65.9355V72.022H66.5535V59.623Z" fill="white"/>
<path d="M58.1105 59.623H57.4925V72.022H58.1105V59.623Z" fill="white"/>
<path d="M63.2295 60.2969H60.8155V64.4239H63.2295V60.2969ZM62.6115 63.8059H61.4325V60.9149H62.6115V63.8059Z" fill="white"/>
<path d="M66.5535 58.0938H65.9355V59.0038H58.1105V58.0938H57.4925V59.6217H66.5535V58.0938Z" fill="white"/>
<path d="M65.9345 52.1465V57.4765H58.1095V52.1465H57.4915V58.0945H66.5515V52.1465H65.9345Z" fill="white"/>
<path d="M57.4925 52.1466H66.5535V50.6016H65.9355V51.5286H58.1105V50.6016H57.4925V52.1466Z" fill="white"/>
<path d="M65.0225 32.3066V42.9316C65.2473 43.0552 65.455 43.2074 65.6405 43.3846V32.3066H65.0225Z" fill="white"/>
<path d="M59.0215 42.9316V32.3066H58.4035V43.3826C58.589 43.2056 58.7967 43.0533 59.0215 42.9296" fill="white"/>
<path d="M63.0615 30.6772C63.0615 30.7591 63.0289 30.8377 62.971 30.8957C62.913 30.9536 62.8344 30.9862 62.7525 30.9862H63.5635C63.4815 30.9862 63.4029 30.9536 63.345 30.8957C63.287 30.8377 63.2545 30.7591 63.2545 30.6772V30.3682H63.0615V30.6772Z" fill="white"/>
<path d="M59.0205 32.3062H66.2845V30.3682H65.3315V30.6772C65.3315 30.7591 65.2989 30.8377 65.241 30.8957C65.183 30.9536 65.1045 30.9862 65.0225 30.9862H65.6665V31.6862H58.3785V30.9862H59.0225C58.9405 30.9862 58.8619 30.9536 58.804 30.8957C58.7461 30.8377 58.7135 30.7591 58.7135 30.6772V30.3682H57.7605V32.3062H59.0205Z" fill="white"/>
<path d="M60.9835 30.6772V30.3682H60.7905V30.6772C60.7905 30.7591 60.7579 30.8377 60.7 30.8957C60.642 30.9536 60.5634 30.9862 60.4815 30.9862H61.2925C61.2105 30.9862 61.1319 30.9536 61.074 30.8957C61.016 30.8377 60.9835 30.7591 60.9835 30.6772Z" fill="white"/>
<path d="M57.9135 44.8101C57.9135 44.892 57.8809 44.9706 57.823 45.0286C57.765 45.0865 57.6864 45.1191 57.6045 45.1191H57.5215V45.1291C57.5042 45.258 57.4952 45.388 57.4945 45.5181V50.6031H66.5555V45.5181C66.5547 45.388 66.5457 45.258 66.5285 45.1291V45.1191H66.4455C66.3635 45.1191 66.2849 45.0865 66.227 45.0286C66.169 44.9706 66.1365 44.892 66.1365 44.8101V43.9961C65.867 43.5503 65.4848 43.1833 65.0285 42.9321C64.699 42.7466 64.3333 42.6343 63.9565 42.6031C63.4205 42.5661 63.0355 41.8541 62.8385 41.3301H62.1855C62.3615 41.8701 62.8855 43.1481 63.9135 43.2191C64.4765 43.2824 64.9959 43.5529 65.3704 43.9781C65.7449 44.4032 65.9477 44.9526 65.9395 45.5191V49.9861H58.1145V45.5191C58.1062 44.9526 58.3091 44.4032 58.6836 43.9781C59.0581 43.5529 59.5774 43.2824 60.1405 43.2191C61.1675 43.1481 61.6925 41.8701 61.8695 41.3301H61.2155C61.0155 41.8541 60.6335 42.5661 60.0975 42.6031C59.7207 42.6345 59.355 42.7467 59.0255 42.9321C58.5693 43.1836 58.1873 43.5505 57.9175 43.9961L57.9135 44.8101Z" fill="white"/>
<path d="M60.7935 45.2022V47.9502H63.2515V45.1902C63.2404 45.0389 63.1994 44.8914 63.131 44.756C63.0626 44.6206 62.9682 44.5001 62.853 44.4014C62.7378 44.3027 62.6043 44.2277 62.46 44.1808C62.3158 44.134 62.1637 44.1161 62.0125 44.1282C61.8613 44.1151 61.709 44.1328 61.5648 44.1802C61.4206 44.2276 61.2875 44.3038 61.1736 44.4041C61.0596 44.5044 60.9672 44.6267 60.9019 44.7637C60.8366 44.9007 60.7997 45.0506 60.7935 45.2022ZM62.6335 45.2112V47.3312H61.4105V45.2052C61.4105 45.1282 61.4455 44.7452 62.0105 44.7452C62.5485 44.7452 62.6225 45.0942 62.6315 45.2112" fill="white"/>
<path d="M66.1325 44.8103C66.1325 44.8923 66.165 44.9709 66.223 45.0288C66.2809 45.0868 66.3595 45.1193 66.4415 45.1193H67.9005C67.9824 45.1193 68.061 45.0868 68.119 45.0288C68.1769 44.9709 68.2095 44.8923 68.2095 44.8103V41.7633C68.2093 41.7185 68.1993 41.6743 68.1803 41.6337C68.1613 41.5931 68.1337 41.5572 68.0995 41.5283L68.1295 41.7113C68.137 41.7552 68.1349 41.8002 68.1233 41.8433C68.1118 41.8863 68.091 41.9263 68.0625 41.9605C68.034 41.9947 67.9984 42.0224 67.9581 42.0415C67.9179 42.0606 67.874 42.0708 67.8295 42.0713H67.5955V44.5003H66.7535V42.0713H66.5195C66.475 42.0706 66.4312 42.0604 66.391 42.0412C66.3509 42.022 66.3153 41.9944 66.2868 41.9602C66.2584 41.926 66.2376 41.8861 66.226 41.8431C66.2143 41.8002 66.2121 41.7552 66.2195 41.7113L66.2505 41.5283C66.2162 41.5572 66.1886 41.5931 66.1696 41.6337C66.1506 41.6743 66.1407 41.7185 66.1405 41.7633V44.8103H66.1325Z" fill="white"/>
<path d="M66.2835 41.9614C66.3125 41.9956 66.3487 42.0231 66.3895 42.042C66.4302 42.0608 66.4746 42.0705 66.5195 42.0704H67.8285C67.873 42.0699 67.9169 42.0597 67.9572 42.0406C67.9974 42.0215 68.033 41.9938 68.0615 41.9596C68.09 41.9254 68.1108 41.8854 68.1223 41.8424C68.1339 41.7994 68.136 41.7543 68.1285 41.7104L68.0985 41.5274L67.4745 37.7994C67.4621 37.7276 67.4247 37.6625 67.369 37.6156C67.3133 37.5687 67.2428 37.543 67.17 37.543C67.0971 37.543 67.0266 37.5687 66.9709 37.6156C66.9152 37.6625 66.8779 37.7276 66.8655 37.7994L66.2415 41.5274L66.2105 41.7104C66.2031 41.7548 66.2054 41.8002 66.2174 41.8435C66.2293 41.8869 66.2505 41.9271 66.2795 41.9614M67.1695 39.7214L67.4595 41.4534H66.8795L67.1695 39.7214Z" fill="white"/>
<path d="M56.1445 45.1183H57.6035C57.6854 45.1183 57.764 45.0858 57.822 45.0278C57.8799 44.9699 57.9125 44.8913 57.9125 44.8093V41.7623C57.9124 41.7176 57.9025 41.6735 57.8835 41.6331C57.8645 41.5927 57.8368 41.5569 57.8025 41.5283L57.8335 41.7113C57.8408 41.7552 57.8386 41.8002 57.827 41.8431C57.8154 41.8861 57.7946 41.926 57.7661 41.9602C57.7376 41.9944 57.7021 42.022 57.6619 42.0412C57.6218 42.0604 57.578 42.0706 57.5335 42.0713H57.2995V44.5003H56.4575V42.0713H56.2245C56.1796 42.0714 56.1352 42.0616 56.0944 42.0427C56.0537 42.0239 56.0175 41.9963 55.9885 41.9621C55.9594 41.9278 55.9382 41.8876 55.9263 41.8443C55.9144 41.801 55.9121 41.7556 55.9195 41.7113L55.9505 41.5283C55.9162 41.557 55.8886 41.5928 55.8696 41.6332C55.8506 41.6736 55.8407 41.7177 55.8405 41.7623V44.8093C55.8405 44.8913 55.873 44.9699 55.931 45.0278C55.9889 45.0858 56.0675 45.1183 56.1495 45.1183" fill="white"/>
<path d="M55.9845 41.9614C56.0135 41.9957 56.0497 42.0232 56.0905 42.042C56.1312 42.0608 56.1756 42.0705 56.2205 42.0704H57.5295C57.574 42.0698 57.6178 42.0595 57.6579 42.0403C57.6981 42.0211 57.7336 41.9935 57.7621 41.9593C57.7906 41.9251 57.8114 41.8852 57.823 41.8422C57.8346 41.7993 57.8368 41.7543 57.8295 41.7104L57.7985 41.5275L57.1785 37.7984C57.1661 37.7267 57.1288 37.6616 57.073 37.6146C57.0173 37.5677 56.9468 37.542 56.874 37.542C56.8012 37.542 56.7306 37.5677 56.6749 37.6146C56.6192 37.6616 56.5819 37.7267 56.5695 37.7984L55.9455 41.5275L55.9145 41.7104C55.9071 41.7548 55.9095 41.8002 55.9214 41.8435C55.9333 41.8869 55.9555 41.9271 55.9845 41.9614ZM56.8745 39.7215L57.1635 41.4534H56.5845L56.8745 39.7215Z" fill="white"/>
<path d="M63.5255 41.0222C63.4623 40.6703 63.2774 40.3519 63.0032 40.1226C62.729 39.8932 62.3829 39.7676 62.0255 39.7676C61.668 39.7676 61.3219 39.8932 61.0477 40.1226C60.7735 40.3519 60.5887 40.6703 60.5255 41.0222C60.5255 41.1041 60.558 41.1827 60.616 41.2407C60.6739 41.2986 60.7525 41.3312 60.8345 41.3312H63.2215C63.3034 41.3312 63.382 41.2986 63.44 41.2407C63.4979 41.1827 63.5305 41.1041 63.5305 41.0222M61.2545 40.7132C61.353 40.6061 61.4727 40.5207 61.6059 40.4623C61.7391 40.4038 61.883 40.3737 62.0285 40.3737C62.1739 40.3737 62.3179 40.4038 62.4511 40.4623C62.5843 40.5207 62.7039 40.6061 62.8025 40.7132H61.2545Z" fill="white"/>
<path d="M62.0215 33.8662C61.5055 33.8662 61.001 34.0192 60.572 34.3059C60.1429 34.5926 59.8085 35.0001 59.6111 35.4768C59.4136 35.9535 59.3619 36.4781 59.4626 36.9842C59.5633 37.4903 59.8118 37.9552 60.1766 38.3201C60.5415 38.6849 61.0064 38.9334 61.5125 39.0341C62.0186 39.1347 62.5432 39.0831 63.0199 38.8856C63.4966 38.6881 63.9041 38.3537 64.1908 37.9247C64.4775 37.4956 64.6305 36.9912 64.6305 36.4752C64.6297 35.7835 64.3545 35.1204 63.8654 34.6312C63.3763 34.1421 62.7132 33.867 62.0215 33.8662ZM62.0215 38.4662C61.6277 38.4662 61.2428 38.3494 60.9153 38.1307C60.5879 37.9119 60.3327 37.6009 60.182 37.2371C60.0313 36.8733 59.9919 36.473 60.0687 36.0868C60.1456 35.7006 60.3352 35.3458 60.6136 35.0674C60.8921 34.7889 61.2468 34.5993 61.633 34.5225C62.0193 34.4456 62.4196 34.4851 62.7834 34.6358C63.1472 34.7865 63.4582 35.0417 63.6769 35.3691C63.8957 35.6965 64.0125 36.0814 64.0125 36.4752C64.0117 37.003 63.8017 37.509 63.4285 37.8822C63.0552 38.2554 62.5493 38.4654 62.0215 38.4662Z" fill="white"/>
<path d="M59.0225 30.9855H60.4815C60.5634 30.9855 60.642 30.953 60.7 30.895C60.7579 30.8371 60.7905 30.7585 60.7905 30.6765V27.6295C60.7903 27.5847 60.7803 27.5405 60.7613 27.4999C60.7423 27.4593 60.7148 27.4234 60.6805 27.3945L60.7115 27.5785C60.7188 27.6224 60.7166 27.6674 60.705 27.7103C60.6934 27.7533 60.6726 27.7932 60.6441 27.8274C60.6156 27.8616 60.5801 27.8892 60.5399 27.9084C60.4998 27.9276 60.456 27.9378 60.4115 27.9385H60.1775V30.3675H59.3325V27.9385H59.0985C59.054 27.9378 59.0102 27.9276 58.97 27.9084C58.9299 27.8892 58.8943 27.8616 58.8659 27.8274C58.8374 27.7932 58.8166 27.7533 58.805 27.7103C58.7933 27.6674 58.7911 27.6224 58.7985 27.5785L58.8285 27.3945C58.7942 27.4234 58.7666 27.4593 58.7476 27.4999C58.7286 27.5405 58.7187 27.5847 58.7185 27.6295V30.6735C58.7185 30.7555 58.751 30.8341 58.809 30.892C58.8669 30.95 58.9455 30.9825 59.0275 30.9825" fill="white"/>
<path d="M58.8615 27.8286C58.8906 27.8627 58.9268 27.8902 58.9675 27.909C59.0082 27.9278 59.0526 27.9376 59.0975 27.9376H60.4065C60.4509 27.9368 60.4946 27.9266 60.5347 27.9075C60.5747 27.8883 60.6102 27.8608 60.6387 27.8267C60.6671 27.7927 60.6879 27.7529 60.6996 27.71C60.7113 27.6672 60.7137 27.6224 60.7065 27.5786L60.6755 27.3946L60.3285 25.3216L60.0515 23.6666C60.0462 23.6355 60.0361 23.6055 60.0215 23.5776C59.9922 23.5195 59.9453 23.4722 59.8875 23.4424C59.8297 23.4126 59.7639 23.4019 59.6997 23.4118C59.6354 23.4217 59.5759 23.4516 59.5297 23.4974C59.4835 23.5432 59.453 23.6024 59.4425 23.6666L58.8175 27.3946L58.7875 27.5776C58.78 27.6219 58.7822 27.6673 58.7942 27.7107C58.8061 27.7541 58.8274 27.7943 58.8565 27.8286M60.0365 27.3206H59.4565L59.7465 25.5886L60.0365 27.3206Z" fill="white"/>
<path d="M63.0605 30.6735V27.6295C63.0604 27.5847 63.0505 27.5404 63.0315 27.4998C63.0125 27.4592 62.9849 27.4233 62.9505 27.3945L62.9805 27.5775C62.988 27.6214 62.9859 27.6665 62.9744 27.7095C62.9628 27.7525 62.942 27.7925 62.9135 27.8267C62.885 27.861 62.8494 27.8886 62.8092 27.9077C62.7689 27.9268 62.725 27.937 62.6805 27.9375H62.4465V30.3665H61.6045V27.9375H61.3705C61.326 27.937 61.282 27.9268 61.2418 27.9077C61.2016 27.8886 61.166 27.861 61.1375 27.8267C61.1089 27.7925 61.0882 27.7525 61.0766 27.7095C61.0651 27.6665 61.063 27.6214 61.0705 27.5775L61.1015 27.3945C61.0671 27.4233 61.0394 27.4592 61.0204 27.4998C61.0013 27.5404 60.9915 27.5847 60.9915 27.6295V30.6735C60.9915 30.7555 61.0241 30.8341 61.082 30.892C61.1399 30.95 61.2185 30.9825 61.3005 30.9825H62.7595C62.8414 30.9825 62.92 30.95 62.978 30.892C63.0359 30.8341 63.0685 30.7555 63.0685 30.6735" fill="white"/>
<path d="M61.1325 27.8286C61.1615 27.8628 61.1977 27.8903 61.2384 27.9091C61.2792 27.928 61.3236 27.9377 61.3685 27.9376H62.6815C62.726 27.9371 62.7699 27.9269 62.8101 27.9078C62.8504 27.8887 62.886 27.861 62.9145 27.8268C62.943 27.7926 62.9638 27.7526 62.9753 27.7096C62.9869 27.6665 62.989 27.6215 62.9815 27.5776L62.9505 27.3946L62.3265 23.6666C62.3141 23.5948 62.2767 23.5297 62.221 23.4828C62.1653 23.4359 62.0948 23.4102 62.022 23.4102C61.9491 23.4102 61.8786 23.4359 61.8229 23.4828C61.7672 23.5297 61.7299 23.5948 61.7175 23.6666L61.0935 27.3956L61.0625 27.5786C61.0551 27.623 61.0574 27.6684 61.0693 27.7117C61.0813 27.755 61.1025 27.7953 61.1315 27.8296M62.0225 25.5896L62.3115 27.3216H61.7325L62.0225 25.5896Z" fill="white"/>
<path d="M65.1835 27.8285C65.1546 27.863 65.1185 27.8907 65.0777 27.9097C65.0369 27.9287 64.9925 27.9385 64.9475 27.9385H64.7135V30.3675H63.8725V27.9385H63.6385C63.594 27.9378 63.5502 27.9276 63.51 27.9084C63.4699 27.8892 63.4344 27.8616 63.4059 27.8274C63.3774 27.7932 63.3566 27.7533 63.345 27.7103C63.3334 27.6674 63.3311 27.6224 63.3385 27.5785L63.3685 27.3955C63.3342 27.4244 63.3066 27.4603 63.2876 27.5009C63.2686 27.5415 63.2587 27.5857 63.2585 27.6305V30.6735C63.2585 30.7555 63.2911 30.8341 63.349 30.892C63.4069 30.95 63.4855 30.9825 63.5675 30.9825H65.0255C65.1074 30.9825 65.186 30.95 65.244 30.892C65.3019 30.8341 65.3345 30.7555 65.3345 30.6735V27.6295C65.3344 27.5847 65.3244 27.5405 65.3054 27.4999C65.2864 27.4593 65.2588 27.4233 65.2245 27.3945L65.2545 27.5785C65.2619 27.6227 65.2595 27.668 65.2476 27.7111C65.2357 27.7543 65.2145 27.7944 65.1855 27.8285" fill="white"/>
<path d="M63.7105 25.3228L63.3635 27.3948L63.3325 27.5778C63.325 27.6217 63.3271 27.6667 63.3386 27.7097C63.3502 27.7527 63.3709 27.7928 63.3995 27.827C63.428 27.8612 63.4636 27.8888 63.5038 27.908C63.544 27.9271 63.5879 27.9373 63.6325 27.9378H64.9415C64.9859 27.9372 65.0297 27.9271 65.0699 27.908C65.11 27.8889 65.1456 27.8614 65.1741 27.8273C65.2026 27.7932 65.2234 27.7533 65.235 27.7104C65.2466 27.6675 65.2489 27.6226 65.2415 27.5788L65.2115 27.3948L64.5875 23.6668C64.5769 23.6027 64.5462 23.5436 64.5 23.4979C64.4537 23.4523 64.3942 23.4224 64.3299 23.4127C64.2657 23.4029 64.2 23.4137 64.1423 23.4436C64.0845 23.4734 64.0377 23.5207 64.0085 23.5788C63.994 23.6064 63.9839 23.6361 63.9785 23.6668L63.7105 25.3228ZM64.5825 27.3228H64.0025L64.2935 25.5908L64.5825 27.3228Z" fill="white"/>
<path d="M62.0225 14.6048L62.4225 14.8938L64.0855 16.1018L63.2975 13.6788L65.3585 12.1788H62.8105L62.0235 9.75684L61.2355 12.1788H58.6865L60.7475 13.6788L59.9605 16.1018L61.6235 14.8948L62.0225 14.6048ZM60.5885 12.7998H61.6885L62.0275 11.7588L62.3665 12.7998H63.4665L62.5795 13.4438L62.9185 14.4858L62.0325 13.8408L61.1455 14.4858L61.4845 13.4438L60.5885 12.7998Z" fill="white"/>
<path d="M48.8485 40.417H48.3315V41.885H48.8485V40.417Z" fill="white"/>
<path d="M48.8485 40.417H48.3315V41.885H48.8485V40.417Z" fill="white"/>
<path d="M10.2065 40.417H9.68948V41.885H10.2065V40.417Z" fill="white"/>
<path d="M10.2065 40.417H9.68948V41.885H10.2065V40.417Z" fill="white"/>
<path d="M10.2085 40.4174H21.7185V39.9004H9.28549V39.4594H20.9435V38.9434H8.76849V40.4174H10.2085Z" fill="white"/>
<path d="M10.2085 40.4174H21.7185V39.9004H9.28549V39.4594H20.9435V38.9434H8.76849V40.4174H10.2085Z" fill="white"/>
<path d="M37.5955 39.4594H49.2525V39.9004H36.8205V40.4174H49.7695V38.9434H37.5955V39.4594Z" fill="white"/>
<path d="M37.5955 39.4594H49.2525V39.9004H36.8205V40.4174H49.7695V38.9434H37.5955V39.4594Z" fill="white"/>
<path d="M50.8935 47.9648L51.1585 70.2058H51.6755L51.4105 47.9648H50.8935Z" fill="white"/>
<path d="M50.8935 47.9648L51.1585 70.2058H51.6755L51.4105 47.9648H50.8935Z" fill="white"/>
<path d="M49.1835 70.2068L49.4485 47.9658H48.9315L48.6665 70.2068H49.1835Z" fill="white"/>
<path d="M49.1835 70.2068L49.4485 47.9658H48.9315L48.6665 70.2068H49.1835Z" fill="white"/>
<path d="M51.1575 70.207H47.7915V72.007H52.5495V70.207H51.1575ZM52.0325 70.724V71.493H48.3085V70.724H52.0325Z" fill="white"/>
<path d="M51.1575 70.207H47.7915V72.007H52.5495V70.207H51.1575ZM52.0325 70.724V71.493H48.3085V70.724H52.0325Z" fill="white"/>
<path d="M49.4485 47.9661H52.1995V47.0381H51.6845V47.4501H48.6595V47.0381H48.1425V47.9661H49.4485Z" fill="white"/>
<path d="M49.4485 47.9661H52.1995V47.0381H51.6845V47.4501H48.6595V47.0381H48.1425V47.9661H49.4485Z" fill="white"/>
<path d="M40.8235 70.2068L41.0885 47.9658H40.5715L40.3065 70.2068H40.8235Z" fill="white"/>
<path d="M40.8235 70.2068L41.0885 47.9658H40.5715L40.3065 70.2068H40.8235Z" fill="white"/>
<path d="M42.5325 47.9648L42.7975 70.2058H43.3145L43.0495 47.9648H42.5325Z" fill="white"/>
<path d="M42.5325 47.9648L42.7975 70.2058H43.3145L43.0495 47.9648H42.5325Z" fill="white"/>
<path d="M42.7975 70.207H39.4315V72.007H44.1895V70.207H42.7975ZM43.6725 70.724V71.493H39.9485V70.724H43.6725Z" fill="white"/>
<path d="M42.7975 70.207H39.4315V72.007H44.1895V70.207H42.7975ZM43.6725 70.724V71.493H39.9485V70.724H43.6725Z" fill="white"/>
<path d="M43.3225 47.0371V47.4491H40.2985V47.0371H39.7815V47.9651H43.8385V47.0371H43.3225Z" fill="white"/>
<path d="M43.3225 47.0371V47.4491H40.2985V47.0371H39.7815V47.9651H43.8385V47.0371H43.3225Z" fill="white"/>
<path d="M34.1725 47.9648L34.4375 70.2058H34.9545L34.6895 47.9648H34.1725Z" fill="white"/>
<path d="M34.1725 47.9648L34.4375 70.2058H34.9545L34.6895 47.9648H34.1725Z" fill="white"/>
<path d="M32.4625 70.2068L32.7275 47.9658H32.2105L31.9455 70.2068H32.4625Z" fill="white"/>
<path d="M32.4625 70.2068L32.7275 47.9658H32.2105L31.9455 70.2068H32.4625Z" fill="white"/>
<path d="M34.4365 70.207H31.0705V72.007H35.8285V70.207H34.4365ZM35.3115 70.724V71.493H31.5875V70.724H35.3115Z" fill="white"/>
<path d="M34.4365 70.207H31.0705V72.007H35.8285V70.207H34.4365ZM35.3115 70.724V71.493H31.5875V70.724H35.3115Z" fill="white"/>
<path d="M34.9605 47.0371V47.4491H31.9385V47.0371H31.4215V47.9651H35.4785V47.0371H34.9605Z" fill="white"/>
<path d="M34.9605 47.0371V47.4491H31.9385V47.0371H31.4215V47.9651H35.4785V47.0371H34.9605Z" fill="white"/>
<path d="M24.1015 70.2068L24.3665 47.9658H23.8495L23.5845 70.2068H24.1015Z" fill="white"/>
<path d="M24.1015 70.2068L24.3665 47.9658H23.8495L23.5845 70.2068H24.1015Z" fill="white"/>
<path d="M25.8115 47.9648L26.0765 70.2058H26.5935L26.3285 47.9648H25.8115Z" fill="white"/>
<path d="M25.8115 47.9648L26.0765 70.2058H26.5935L26.3285 47.9648H25.8115Z" fill="white"/>
<path d="M26.0755 70.207H22.7095V72.007H27.4705V70.207H26.0755ZM26.9505 70.724V71.493H23.2255V70.724H26.9505Z" fill="white"/>
<path d="M26.0755 70.207H22.7095V72.007H27.4705V70.207H26.0755ZM26.9505 70.724V71.493H23.2255V70.724H26.9505Z" fill="white"/>
<path d="M26.6005 47.0371V47.4491H23.5765V47.0371H23.0595V47.9651H27.1155V47.0371H26.6005Z" fill="white"/>
<path d="M26.6005 47.0371V47.4491H23.5765V47.0371H23.0595V47.9651H27.1155V47.0371H26.6005Z" fill="white"/>
<path d="M15.7405 70.2068L16.0055 47.9658H15.4885L15.2235 70.2068H15.7405Z" fill="white"/>
<path d="M15.7405 70.2068L16.0055 47.9658H15.4885L15.2235 70.2068H15.7405Z" fill="white"/>
<path d="M17.4505 47.9648L17.7155 70.2058H18.2325L17.9675 47.9648H17.4505Z" fill="white"/>
<path d="M17.4505 47.9648L17.7155 70.2058H18.2325L17.9675 47.9648H17.4505Z" fill="white"/>
<path d="M17.7155 70.207H14.3485V72.007H19.1065V70.207H17.7155ZM18.5905 70.724V71.493H14.8665V70.724H18.5905Z" fill="white"/>
<path d="M17.7155 70.207H14.3485V72.007H19.1065V70.207H17.7155ZM18.5905 70.724V71.493H14.8665V70.724H18.5905Z" fill="white"/>
<path d="M18.2395 47.0371V47.4491H15.2165V47.0371H14.6995V47.9651H18.7565V47.0371H18.2395Z" fill="white"/>
<path d="M18.2395 47.0371V47.4491H15.2165V47.0371H14.6995V47.9651H18.7565V47.0371H18.2395Z" fill="white"/>
<path d="M9.09048 47.9648L9.35548 70.2058H9.87248L9.60748 47.9648H9.09048Z" fill="white"/>
<path d="M9.09048 47.9648L9.35548 70.2058H9.87248L9.60748 47.9648H9.09048Z" fill="white"/>
<path d="M7.3795 70.2068L7.6445 47.9658H7.12849L6.86349 70.2068H7.3795Z" fill="white"/>
<path d="M7.3795 70.2068L7.6445 47.9658H7.12849L6.86349 70.2068H7.3795Z" fill="white"/>
<path d="M9.3545 70.207H5.98849V72.007H10.7465V70.207H9.3545ZM10.2295 70.724V71.493H6.50449V70.724H10.2255H10.2295Z" fill="white"/>
<path d="M9.3545 70.207H5.98849V72.007H10.7465V70.207H9.3545ZM10.2295 70.724V71.493H6.50449V70.724H10.2255H10.2295Z" fill="white"/>
<path d="M9.87847 47.0371V47.4491H6.85547V47.0371H6.33847V47.9651H10.3955V47.0371H9.87847Z" fill="white"/>
<path d="M9.87847 47.0371V47.4491H6.85547V47.0371H6.33847V47.9651H10.3955V47.0371H9.87847Z" fill="white"/>
<path d="M48.6595 47.0371H53.3075V45.0371H52.6495V45.5541H52.7915V46.5231H5.74948V45.5541H5.89148V45.0371H5.23248V47.0371H48.6595Z" fill="white"/>
<path d="M48.6595 47.0371H53.3075V45.0371H52.6495V45.5541H52.7915V46.5231H5.74948V45.5541H5.89148V45.0371H5.23248V47.0371H48.6595Z" fill="white"/>
<path d="M5.89148 45.5511H7.61948V45.0341H6.40848V43.6191H5.89148V45.5511Z" fill="white"/>
<path d="M5.89148 45.5511H7.61948V45.0341H6.40848V43.6191H5.89148V45.5511Z" fill="white"/>
<path d="M52.1305 43.6201V45.0351H50.9185V45.5521H52.6465V43.6211L52.1305 43.6201Z" fill="white"/>
<path d="M52.1305 43.6201V45.0351H50.9185V45.5521H52.6465V43.6211L52.1305 43.6201Z" fill="white"/>
<path d="M47.4925 45.0352H45.9345V45.5522H47.4925V45.0352Z" fill="white"/>
<path d="M47.4925 45.0352H45.9345V45.5522H47.4925V45.0352Z" fill="white"/>
<path d="M32.5405 45.0352H30.9825V45.5522H32.5405V45.0352Z" fill="white"/>
<path d="M32.5405 45.0352H30.9825V45.5522H32.5405V45.0352Z" fill="white"/>
<path d="M17.5885 45.0352H16.0305V45.5522H17.5885V45.0352Z" fill="white"/>
<path d="M17.5885 45.0352H16.0305V45.5522H17.5885V45.0352Z" fill="white"/>
<path d="M22.5725 45.0352H21.0145V45.5522H22.5725V45.0352Z" fill="white"/>
<path d="M22.5725 45.0352H21.0145V45.5522H22.5725V45.0352Z" fill="white"/>
<path d="M12.6045 45.0352H11.0465V45.5522H12.6045V45.0352Z" fill="white"/>
<path d="M12.6045 45.0352H11.0465V45.5522H12.6045V45.0352Z" fill="white"/>
<path d="M37.5245 45.0352H35.9665V45.5522H37.5245V45.0352Z" fill="white"/>
<path d="M37.5245 45.0352H35.9665V45.5522H37.5245V45.0352Z" fill="white"/>
<path d="M42.5085 45.0352H40.9505V45.5522H42.5085V45.0352Z" fill="white"/>
<path d="M42.5085 45.0352H40.9505V45.5522H42.5085V45.0352Z" fill="white"/>
<path d="M27.5565 45.0352H25.9985V45.5522H27.5565V45.0352Z" fill="white"/>
<path d="M27.5565 45.0352H25.9985V45.5522H27.5565V45.0352Z" fill="white"/>
<path d="M27.5555 45.5511H28.3955V45.0341H28.0725V43.6191H27.5555V45.5511Z" fill="white"/>
<path d="M27.5555 45.5511H28.3955V45.0341H28.0725V43.6191H27.5555V45.5511Z" fill="white"/>
<path d="M30.1425 45.0351V45.5521H30.9825V43.6211H30.4655V45.0361L30.1425 45.0351Z" fill="white"/>
<path d="M30.1425 45.0351V45.5521H30.9825V43.6211H30.4655V45.0361L30.1425 45.0351Z" fill="white"/>
<path d="M28.3955 45.5511H30.1425V43.6201H29.6265V45.0351H28.9125V43.6201H28.3955V45.5511Z" fill="white"/>
<path d="M28.3955 45.5511H30.1425V43.6201H29.6265V45.0351H28.9125V43.6201H28.3955V45.5511Z" fill="white"/>
<path d="M8.45948 45.0351H8.13648V43.6201H7.61948V45.5511H8.45948V45.0351Z" fill="white"/>
<path d="M8.45948 45.0351H8.13648V43.6201H7.61948V45.5511H8.45948V45.0351Z" fill="white"/>
<path d="M10.2065 45.0351V45.5521H11.0465V43.6211H10.5295V45.0361L10.2065 45.0351Z" fill="white"/>
<path d="M10.2065 45.0351V45.5521H11.0465V43.6211H10.5295V45.0361L10.2065 45.0351Z" fill="white"/>
<path d="M8.45947 45.5511H10.2105V43.6201H9.69047V45.0351H8.97647V43.6201H8.45947V45.5511Z" fill="white"/>
<path d="M8.45947 45.5511H10.2105V43.6201H9.69047V45.0351H8.97647V43.6201H8.45947V45.5511Z" fill="white"/>
<path d="M12.6035 45.5511H13.4435V45.0341H13.1185V43.6191H12.6015V45.5501L12.6035 45.5511Z" fill="white"/>
<path d="M12.6035 45.5511H13.4435V45.0341H13.1185V43.6191H12.6015V45.5501L12.6035 45.5511Z" fill="white"/>
<path d="M15.1905 45.0351V45.5521H16.0305V43.6211H15.5135V45.0361L15.1905 45.0351Z" fill="white"/>
<path d="M15.1905 45.0351V45.5521H16.0305V43.6211H15.5135V45.0361L15.1905 45.0351Z" fill="white"/>
<path d="M13.4435 45.5511H15.1915V43.6201H14.6745V45.0351H13.9605V43.6201H13.4435V45.5511Z" fill="white"/>
<path d="M13.4435 45.5511H15.1915V43.6201H14.6745V45.0351H13.9605V43.6201H13.4435V45.5511Z" fill="white"/>
<path d="M17.5875 45.5511H18.4275V45.0341H18.1045V43.6191H17.5875V45.5511Z" fill="white"/>
<path d="M17.5875 45.5511H18.4275V45.0341H18.1045V43.6191H17.5875V45.5511Z" fill="white"/>
<path d="M20.1745 45.0351V45.5521H21.0145V43.6211H20.4975V45.0361L20.1745 45.0351Z" fill="white"/>
<path d="M20.1745 45.0351V45.5521H21.0145V43.6211H20.4975V45.0361L20.1745 45.0351Z" fill="white"/>
<path d="M18.4275 45.5511H20.1755V43.6201H19.6585V45.0351H18.9425V43.6201H18.4255V45.5511H18.4275Z" fill="white"/>
<path d="M18.4275 45.5511H20.1755V43.6201H19.6585V45.0351H18.9425V43.6201H18.4255V45.5511H18.4275Z" fill="white"/>
<path d="M22.5715 45.5511H23.4115V45.0341H23.0885V43.6191H22.5715V45.5511Z" fill="white"/>
<path d="M22.5715 45.5511H23.4115V45.0341H23.0885V43.6191H22.5715V45.5511Z" fill="white"/>
<path d="M25.1585 45.0351V45.5521H25.9985V43.6211H25.4855V45.0361L25.1585 45.0351Z" fill="white"/>
<path d="M25.1585 45.0351V45.5521H25.9985V43.6211H25.4855V45.0361L25.1585 45.0351Z" fill="white"/>
<path d="M23.4115 45.5511H25.1585V43.6201H24.6425V45.0351H23.9285V43.6201H23.4115V45.5511Z" fill="white"/>
<path d="M23.4115 45.5511H25.1585V43.6201H24.6425V45.0351H23.9285V43.6201H23.4115V45.5511Z" fill="white"/>
<path d="M32.5395 45.5511H33.3795V45.0341H33.0565V43.6191H32.5395V45.5511Z" fill="white"/>
<path d="M32.5395 45.5511H33.3795V45.0341H33.0565V43.6191H32.5395V45.5511Z" fill="white"/>
<path d="M35.1265 45.0351V45.5521H35.9665V43.6211H35.4495V45.0361L35.1265 45.0351Z" fill="white"/>
<path d="M35.1265 45.0351V45.5521H35.9665V43.6211H35.4495V45.0361L35.1265 45.0351Z" fill="white"/>
<path d="M33.3795 45.5511H35.1265V43.6201H34.6105V45.0351H33.8965V43.6201H33.3795V45.5511Z" fill="white"/>
<path d="M33.3795 45.5511H35.1265V43.6201H34.6105V45.0351H33.8965V43.6201H33.3795V45.5511Z" fill="white"/>
<path d="M37.5235 45.5511H38.3635V45.0341H38.0405V43.6191H37.5235V45.5511Z" fill="white"/>
<path d="M37.5235 45.5511H38.3635V45.0341H38.0405V43.6191H37.5235V45.5511Z" fill="white"/>
<path d="M40.1105 45.0351V45.5521H40.9505V43.6211H40.4335V45.0361L40.1105 45.0351Z" fill="white"/>
<path d="M40.1105 45.0351V45.5521H40.9505V43.6211H40.4335V45.0361L40.1105 45.0351Z" fill="white"/>
<path d="M38.3635 45.5511H40.1065V43.6201H39.5905V45.0351H38.8765V43.6201H38.3595V45.5511H38.3635Z" fill="white"/>
<path d="M38.3635 45.5511H40.1065V43.6201H39.5905V45.0351H38.8765V43.6201H38.3595V45.5511H38.3635Z" fill="white"/>
<path d="M42.5085 45.5511H43.3485V45.0341H43.0255V43.6191H42.5085V45.5511Z" fill="white"/>
<path d="M42.5085 45.5511H43.3485V45.0341H43.0255V43.6191H42.5085V45.5511Z" fill="white"/>
<path d="M45.0945 45.0351V45.5521H45.9345V43.6211H45.4175V45.0361L45.0945 45.0351Z" fill="white"/>
<path d="M45.0945 45.0351V45.5521H45.9345V43.6211H45.4175V45.0361L45.0945 45.0351Z" fill="white"/>
<path d="M43.3475 45.5511H45.0955V43.6201H44.5785V45.0351H43.8645V43.6201H43.3475V45.5511Z" fill="white"/>
<path d="M43.3475 45.5511H45.0955V43.6201H44.5785V45.0351H43.8645V43.6201H43.3475V45.5511Z" fill="white"/>
<path d="M47.4915 45.5511H48.3315V45.0341H48.0085V43.6191H47.4915V45.5511Z" fill="white"/>
<path d="M47.4915 45.5511H48.3315V45.0341H48.0085V43.6191H47.4915V45.5511Z" fill="white"/>
<path d="M50.0785 45.0351V45.5521H50.9185V43.6211H50.4015V45.0361L50.0785 45.0351Z" fill="white"/>
<path d="M50.0785 45.0351V45.5521H50.9185V43.6211H50.4015V45.0361L50.0785 45.0351Z" fill="white"/>
<path d="M48.3315 45.5511H50.0795V43.6201H49.5625V45.0351H48.8485V43.6201H48.3315V45.5511Z" fill="white"/>
<path d="M48.3315 45.5511H50.0795V43.6201H49.5625V45.0351H48.8485V43.6201H48.3315V45.5511Z" fill="white"/>
<path d="M6.40749 43.6217H53.1025V41.8867H36.8195V42.4037H52.5855V43.1037H5.95149V42.4037H21.7175V41.8867H5.43549V43.6217H6.40749Z" fill="white"/>
<path d="M6.40749 43.6217H53.1025V41.8867H36.8195V42.4037H52.5855V43.1037H5.95149V42.4037H21.7175V41.8867H5.43549V43.6217H6.40749Z" fill="white"/>
<path d="M36.8195 39.901V39.46H36.3025V41.886H22.2345V39.46H21.7175V42.402H36.8175V39.902L36.8195 39.901Z" fill="white"/>
<path d="M36.8195 39.901V39.46H36.3025V41.886H22.2345V39.46H21.7175V42.402H36.8175V39.902L36.8195 39.901Z" fill="white"/>
<path d="M20.9425 39.46H37.5945V37.877H33.9845V38.393H37.0785V38.943H21.4595V38.393H24.5535V37.877H20.9425V39.46Z" fill="white"/>
<path d="M20.9425 39.46H37.5945V37.877H33.9845V38.393H37.0785V38.943H21.4595V38.393H24.5535V37.877H20.9425V39.46Z" fill="white"/>
<path d="M27.8855 37.877H27.3215V38.394H27.8855V37.877Z" fill="white"/>
<path d="M27.8855 37.877H27.3215V38.394H27.8855V37.877Z" fill="white"/>
<path d="M31.2165 37.877H30.6525V38.394H31.2165V37.877Z" fill="white"/>
<path d="M31.2165 37.877H30.6525V38.394H31.2165V37.877Z" fill="white"/>
<path d="M27.8855 38.3957H30.6535V33.6817H30.0015V34.1957H30.1385V37.8747H28.4025V34.1957H28.5385V33.6787H27.8865L27.8855 38.3957Z" fill="white"/>
<path d="M27.8855 38.3957H30.6535V33.6817H30.0015V34.1957H30.1385V37.8747H28.4025V34.1957H28.5385V33.6787H27.8865L27.8855 38.3957Z" fill="white"/>
<path d="M31.2165 38.3938H33.9845V34.5088H31.2165V38.3938ZM31.7335 35.0258H33.4685V37.8768H31.7335V35.0258Z" fill="white"/>
<path d="M31.2165 38.3938H33.9845V34.5088H31.2165V38.3938ZM31.7335 35.0258H33.4685V37.8768H31.7335V35.0258Z" fill="white"/>
<path d="M24.5535 38.3938H27.3215V34.5088H24.5535V38.3938ZM25.0705 35.0258H26.8045V37.8768H25.0725L25.0705 35.0258Z" fill="white"/>
<path d="M24.5535 38.3938H27.3215V34.5088H24.5535V38.3938ZM25.0705 35.0258H26.8045V37.8768H25.0725L25.0705 35.0258Z" fill="white"/>
<path d="M28.5375 34.1982H30.0005V30.0732H28.5375V34.1982ZM29.0545 30.5902H29.4835V33.6812H29.0545V30.5902Z" fill="white"/>
<path d="M28.5375 34.1982H30.0005V30.0732H28.5375V34.1982ZM29.0545 30.5902H29.4835V33.6812H29.0545V30.5902Z" fill="white"/>
<path d="M105.567 71.6548H100.496V69.1488C100.496 69.0645 100.463 68.9836 100.403 68.924C100.344 68.8643 100.263 68.8308 100.178 68.8308H96.3275V66.8768C96.3275 66.8718 96.3275 66.8668 96.3275 66.8618C96.3263 66.8277 96.3195 66.7939 96.3075 66.7618C96.3037 66.752 96.2993 66.7423 96.2945 66.7328C96.2846 66.7122 96.2726 66.6928 96.2585 66.6748L94.8505 64.9518V48.5448H96.0065C96.0482 48.5448 96.0896 48.5366 96.1282 48.5206C96.1667 48.5047 96.2018 48.4812 96.2313 48.4517C96.2609 48.4222 96.2843 48.3871 96.3003 48.3485C96.3162 48.31 96.3245 48.2686 96.3245 48.2268V46.3448C96.3245 46.3031 96.3162 46.2617 96.3003 46.2232C96.2843 46.1846 96.2609 46.1495 96.2313 46.12C96.2018 46.0905 96.1667 46.067 96.1282 46.0511C96.0896 46.0351 96.0482 46.0269 96.0065 46.0269H94.8205L94.1675 38.0468C94.1575 37.9068 93.5135 29.1468 93.0405 22.4298L93.3705 22.6988C93.4267 22.7456 93.4974 22.7714 93.5705 22.7718H93.6135C93.6561 22.7655 93.6971 22.7507 93.734 22.7284C93.7709 22.7061 93.803 22.6767 93.8285 22.6418L95.1795 20.7618L95.4375 20.9618C95.5505 21.0482 95.6932 21.0861 95.8342 21.0674C95.9751 21.0486 96.1029 20.9747 96.1895 20.8618L97.2355 19.4858C97.3215 19.3727 97.3593 19.2301 97.3406 19.0892C97.3218 18.9483 97.2481 18.8206 97.1355 18.7338L96.8625 18.5258L97.7795 17.2618C97.827 17.196 97.8476 17.1145 97.8371 17.034C97.8265 16.9535 97.7855 16.8801 97.7225 16.8288L94.4785 14.1838C94.4453 14.1561 94.4068 14.1354 94.3653 14.1232C94.3238 14.1109 94.2803 14.1073 94.2373 14.1125C94.1944 14.1178 94.153 14.1318 94.1157 14.1537C94.0784 14.1756 94.046 14.2049 94.0205 14.2398L92.9275 15.7148L92.5645 15.3308C92.5515 15.0758 92.5445 14.9118 92.5465 14.8588C92.598 14.5703 92.5615 14.2728 92.4416 14.0053C92.3217 13.7378 92.1241 13.5125 91.8745 13.3588L91.3005 13.0418L90.3865 9.13585C90.4948 8.90186 90.5695 8.65374 90.6085 8.39885L91.2295 7.76585C92.3605 6.82385 93.6535 5.76585 93.7795 5.68985L93.9285 5.58985L93.9185 5.56585C93.9477 5.51457 93.9605 5.45563 93.9555 5.39685C93.9508 5.31549 93.9152 5.23902 93.8558 5.18319C93.7965 5.12737 93.7179 5.09646 93.6365 5.09685H93.5915C93.5195 5.10585 92.3565 5.20885 91.1985 5.30985C91.531 4.53094 91.7986 3.72586 91.9985 2.90285C91.9979 2.84252 91.9809 2.7835 91.9491 2.7322C91.9174 2.68089 91.8722 2.63927 91.8185 2.61185C91.6295 2.51885 91.5465 2.47885 89.2575 4.15085L88.3215 1.45085C88.2991 1.38903 88.2584 1.33552 88.2048 1.29746C88.1512 1.2594 88.0872 1.2386 88.0215 1.23785C87.9571 1.23704 87.894 1.25571 87.8405 1.2914C87.787 1.32709 87.7455 1.37814 87.7215 1.43785L86.6975 4.06885L84.5905 2.64885C84.5367 2.61282 84.4732 2.59407 84.4084 2.5951C84.3437 2.59613 84.2808 2.61689 84.2282 2.65462C84.1756 2.69234 84.1358 2.74522 84.114 2.8062C84.0922 2.86718 84.0896 2.93334 84.1065 2.99585L84.6745 5.12585L83.3745 4.89585L82.6745 2.36385C82.8745 1.48185 83.1055 0.521849 83.1665 0.358849C83.3035 -0.00715113 82.8765 -0.741151 82.4665 -1.31215C82.388 -1.3848 82.3014 -1.44821 82.2085 -1.50115L82.2465 -2.35215C82.492 -2.49643 82.7047 -2.69043 82.8708 -2.9217C83.037 -3.15297 83.1531 -3.41642 83.2115 -3.69515C83.221 -3.74142 83.22 -3.78922 83.2088 -3.83509C83.1975 -3.88095 83.1761 -3.92373 83.1463 -3.96031C83.1164 -3.99689 83.0787 -4.02636 83.036 -4.04657C82.9934 -4.06678 82.9467 -4.07723 82.8995 -4.07715H81.4835V-4.37715C81.4835 -4.41891 81.4752 -4.46026 81.4593 -4.49884C81.4433 -4.53743 81.4198 -4.57248 81.3903 -4.60201C81.3608 -4.63154 81.3257 -4.65496 81.2872 -4.67094C81.2486 -4.68693 81.2072 -4.69515 81.1655 -4.69515H80.4275C80.332 -4.69515 80.2404 -4.73308 80.1729 -4.80059C80.1054 -4.86811 80.0675 -4.95967 80.0675 -5.05515C80.0675 -5.15063 80.1054 -5.2422 80.1729 -5.30971C80.2404 -5.37722 80.332 -5.41515 80.4275 -5.41515H82.2505C82.5157 -5.41515 82.77 -5.52051 82.9576 -5.70804C83.1451 -5.89558 83.2505 -6.14993 83.2505 -6.41515C83.2529 -6.45834 83.2465 -6.50158 83.2316 -6.54221C83.2168 -6.58284 83.1938 -6.62001 83.164 -6.65144C83.1343 -6.68288 83.0985 -6.70792 83.0588 -6.72504C83.019 -6.74215 82.9762 -6.75098 82.933 -6.75098C82.8897 -6.75098 82.8469 -6.74215 82.8072 -6.72504C82.7674 -6.70792 82.7316 -6.68288 82.7019 -6.65144C82.6722 -6.62001 82.6492 -6.58284 82.6343 -6.54221C82.6195 -6.50158 82.613 -6.45834 82.6155 -6.41515C82.6152 -6.31975 82.5772 -6.22834 82.5097 -6.16088C82.4423 -6.09343 82.3509 -6.05541 82.2555 -6.05515H80.4325C80.1828 -6.05509 79.9423 -5.96106 79.7587 -5.79176C79.5752 -5.62246 79.4621 -5.39029 79.4419 -5.14141C79.4218 -4.89254 79.496 -4.64519 79.6499 -4.44856C79.8038 -4.25192 80.026 -4.1204 80.2725 -4.08015H79.3915C79.3443 -4.0802 79.2978 -4.06976 79.2552 -4.04961C79.2126 -4.02946 79.175 -4.00009 79.1451 -3.96363C79.1153 -3.92716 79.0939 -3.88452 79.0825 -3.83878C79.0712 -3.79304 79.0701 -3.74535 79.0795 -3.69915C79.1425 -3.39933 79.2718 -3.11743 79.458 -2.87413C79.6442 -2.63084 79.8825 -2.43232 80.1555 -2.29315L80.1745 -1.66915H80.1365C80.0664 -1.65982 79.9989 -1.63673 79.9378 -1.6012C79.8767 -1.56568 79.8232 -1.51842 79.7805 -1.46215C79.7379 -1.40557 79.7071 -1.34101 79.6899 -1.27229C79.6727 -1.20358 79.6695 -1.13212 79.6805 -1.06215L79.9095 0.650849C79.9229 0.747788 79.9624 0.839241 80.0239 0.915362C80.0854 0.991484 80.1665 1.04939 80.2585 1.08285L80.2845 1.95985C80.2868 2.04253 80.3214 2.12101 80.3808 2.17856C80.4402 2.2361 80.5198 2.26814 80.6025 2.26785H80.9835C80.9575 3.10885 80.8665 6.07985 80.8645 6.22985V6.26885C80.8263 6.70689 80.8725 7.14819 81.0005 7.56885C81.0335 7.85963 81.0412 8.15273 81.0235 8.44485C80.7925 8.65014 80.6224 8.91494 80.5318 9.21034C80.4412 9.50573 80.4334 9.82036 80.5095 10.1198C80.606 10.5089 80.8312 10.8539 81.1485 11.0988L81.4365 14.6208C81.4365 14.6288 81.4415 14.6348 81.4435 14.6428L81.0515 15.7298C81.0352 15.7758 81.0298 15.8248 81.0355 15.8732C81.0412 15.9216 81.058 15.968 81.0845 16.0088L81.8055 17.1248C81.7128 17.3106 81.6583 17.513 81.6453 17.7201C81.6322 17.9273 81.6608 18.135 81.7295 18.3308C81.7945 18.749 81.7867 19.1753 81.7065 19.5908L80.7165 27.9698C79.7805 31.4868 78.7765 35.2479 78.0445 37.9849C78.0271 38.048 78.0297 38.1149 78.0519 38.1765C78.0741 38.2381 78.1148 38.2913 78.1685 38.3288C78.1924 38.3445 78.2183 38.3569 78.2455 38.3658L76.3095 46.0258H75.1335C75.0492 46.0261 74.9685 46.0597 74.9089 46.1193C74.8493 46.1789 74.8157 46.2596 74.8155 46.3438V48.2258C74.8155 48.3102 74.849 48.3911 74.9086 48.4507C74.9682 48.5103 75.0491 48.5438 75.1335 48.5438H76.2385V64.9578L74.8845 66.6808C74.8728 66.6968 74.8628 66.7139 74.8545 66.7318C74.8489 66.7398 74.8439 66.7482 74.8395 66.7568C74.8264 66.7904 74.8193 66.8259 74.8185 66.8618C74.8185 66.8618 74.8185 66.8708 74.8185 66.8748V68.8288H70.9675C70.8831 68.8288 70.8022 68.8624 70.7426 68.922C70.683 68.9816 70.6495 69.0625 70.6495 69.1468V71.6538H65.8145C65.7727 71.6538 65.7314 71.6621 65.6928 71.6781C65.6542 71.694 65.6191 71.7175 65.5896 71.747C65.5601 71.7765 65.5367 71.8116 65.5207 71.8502C65.5047 71.8887 65.4965 71.9301 65.4965 71.9718V74.4828C65.4965 74.5246 65.5047 74.566 65.5207 74.6045C65.5367 74.6431 65.5601 74.6782 65.5896 74.7077C65.6191 74.7372 65.6542 74.7607 65.6928 74.7766C65.7314 74.7926 65.7727 74.8008 65.8145 74.8008H105.565C105.65 74.8008 105.731 74.7673 105.79 74.7077C105.85 74.6481 105.883 74.5672 105.883 74.4828V71.9688C105.883 71.8845 105.85 71.8036 105.79 71.744C105.731 71.6843 105.65 71.6508 105.565 71.6508M70.9655 72.2868H105.245V74.1688H66.1335V72.2908L70.9655 72.2868ZM71.2835 69.4628H99.8565V71.6518H71.2865L71.2835 69.4628ZM76.8755 48.5409H94.2095V64.7498H76.8785L76.8755 48.5409ZM76.7125 65.3828H94.3765L95.3345 66.5558H75.7935L76.7125 65.3828ZM75.4525 67.2468H95.6885V68.8278H75.4555L75.4525 67.2468ZM75.4525 46.6589H95.6885V47.9089H75.4555L75.4525 46.6589ZM81.6895 15.7988L82.7425 12.8768C82.7569 12.8376 82.7633 12.796 82.7615 12.7542C82.7596 12.7125 82.7494 12.6716 82.7315 12.6338C82.7048 12.5769 82.6618 12.5291 82.6079 12.4966C82.5541 12.4641 82.4918 12.4483 82.4289 12.4512C82.3661 12.4541 82.3055 12.4756 82.2549 12.5129C82.2043 12.5502 82.1658 12.6017 82.1445 12.6608L81.9445 13.2128L81.7905 11.3268C81.8556 11.2953 81.9077 11.2419 81.9375 11.1758C81.9719 11.0989 81.9744 11.0115 81.9444 10.9327C81.9144 10.854 81.8543 10.7904 81.7775 10.7558C81.6171 10.688 81.4743 10.5844 81.3599 10.4531C81.2456 10.3217 81.1626 10.166 81.1175 9.99785C81.0816 9.82861 81.0793 9.654 81.1105 9.48385C81.1279 9.49743 81.1466 9.50916 81.1665 9.51885C81.498 9.65449 81.8523 9.72576 82.2105 9.72885C82.4294 9.72953 82.647 9.69579 82.8555 9.62885C83.3397 9.47723 83.7469 9.14488 83.9925 8.70085L84.0375 9.09085L84.0635 9.68485C84.0681 9.76603 84.1036 9.84236 84.1627 9.89816C84.2219 9.95396 84.3002 9.98498 84.3815 9.98485H84.3955C84.4791 9.98198 84.5583 9.94601 84.6155 9.88485C84.6441 9.85428 84.6662 9.81822 84.6805 9.77885L86.4715 11.3608L85.7065 13.7278C85.6937 13.7675 85.6889 13.8093 85.6923 13.8508C85.6957 13.8924 85.7073 13.9328 85.7265 13.9698C85.7449 14.0068 85.7704 14.0397 85.8017 14.0666C85.8329 14.0936 85.8692 14.1141 85.9085 14.1268L86.0085 14.1438C86.0752 14.1433 86.1402 14.1218 86.194 14.0823C86.2478 14.0428 86.2879 13.9874 86.3085 13.9238L87.0245 11.7148L88.2795 12.2198L86.8795 14.6928L82.4065 18.8458C82.4048 18.6149 82.3796 18.3847 82.3315 18.1588C82.2837 17.9659 82.2823 17.7644 82.3273 17.5708C82.3723 17.3772 82.4625 17.1969 82.5905 17.0448L83.6355 15.7988C83.6882 15.7343 83.7136 15.6518 83.7065 15.5688C83.7008 15.5063 83.6768 15.4469 83.6374 15.398C83.598 15.3492 83.545 15.3131 83.4851 15.2942C83.4252 15.2754 83.3611 15.2747 83.3009 15.2923C83.2406 15.3098 83.1869 15.3448 83.1465 15.3928L82.1765 16.5508L81.6895 15.7988ZM82.4475 -3.44515C82.3169 -3.21359 82.127 -3.0209 81.8975 -2.88682C81.6679 -2.75273 81.4068 -2.68208 81.141 -2.68208C80.8751 -2.68208 80.614 -2.75273 80.3845 -2.88682C80.1549 -3.0209 79.9651 -3.21359 79.8345 -3.44515H82.4475ZM81.1415 -2.04515C81.295 -2.04675 81.4478 -2.06486 81.5975 -2.09915L81.5865 -1.84615C81.5665 -1.84615 81.5465 -1.85215 81.5275 -1.84615L80.8015 -1.74615L80.7915 -2.06815C80.9071 -2.04868 81.0242 -2.03865 81.1415 -2.03815M81.5135 -1.20015L81.7135 0.315849L80.5135 0.476849L80.3135 -1.03915L81.5135 -1.20015ZM81.4595 0.991849L81.4305 1.63985H80.9005L80.8835 1.06785L81.4595 0.991849ZM81.7365 2.26885C81.8177 2.26921 81.896 2.23824 81.9551 2.18237C82.0141 2.1265 82.0494 2.05003 82.0535 1.96885L82.1035 0.857849C82.1625 0.822824 82.2144 0.77703 82.2565 0.722849C82.2999 0.666609 82.3317 0.602249 82.3499 0.533556C82.3681 0.464862 82.3724 0.393222 82.3625 0.322849L82.2545 -0.477151C82.3812 -0.277399 82.482 -0.0623398 82.5545 0.162849C82.4485 0.475849 82.1545 1.74185 82.0295 2.30285C82.0171 2.35344 82.0171 2.40626 82.0295 2.45685L82.8005 5.24285L83.5465 7.94285C83.5266 8.19388 83.4307 8.4329 83.2715 8.62801C83.1123 8.82312 82.8974 8.96505 82.6555 9.03485C82.3157 9.12547 81.9573 9.11819 81.6215 9.01385C81.6674 8.48107 81.6593 7.94501 81.5975 7.41385C81.4855 7.04938 81.4467 6.66636 81.4835 6.28685V6.24685C81.4835 6.18285 81.5055 5.44685 81.6025 2.29385V2.26885H81.7365ZM91.9685 15.9318L91.2615 16.5318H91.2535L91.2475 16.5388L89.5165 17.9988C89.9451 16.5988 90.4015 15.1085 90.8855 13.5278L91.6015 13.9218C91.6155 13.9288 91.9425 14.0908 91.9135 14.8218C91.9135 14.9158 91.9295 15.3098 91.9675 15.9298M94.7855 19.6508L95.7115 18.4338L96.6765 19.1668L95.7505 20.3838L94.7855 19.6508ZM96.0165 17.8668C95.9035 17.7809 95.7611 17.7431 95.6203 17.7618C95.4796 17.7806 95.352 17.8543 95.2655 17.9668L94.2185 19.3428C94.1327 19.4561 94.095 19.5986 94.1138 19.7394C94.1325 19.8802 94.2061 20.008 94.3185 20.0948L94.6765 20.3668L93.5135 21.9858L92.9795 21.5508C92.8585 19.8278 92.7525 18.2818 92.6795 17.1078L94.3375 14.8718L97.0925 17.1178L96.3615 18.1268L96.0165 17.8668ZM81.3165 28.1869C81.7265 26.6449 82.1365 25.1028 82.5065 23.7078L82.5205 23.6908L89.9085 14.5388C88.5085 19.1108 84.4365 32.4049 84.1085 33.4328C83.7635 33.7328 81.3355 35.5199 78.8945 37.2839C79.3325 35.6469 80.3275 31.9169 81.3205 28.1838M85.8605 16.5038L83.1435 21.3098C83.6435 19.4338 83.8435 18.6488 83.9085 18.3098L85.8605 16.5038ZM84.6605 8.90385L84.5985 8.37385C84.6019 8.25756 84.5809 8.14183 84.5368 8.03417C84.4927 7.92651 84.4265 7.8293 84.3425 7.74885C84.2798 7.69359 84.2077 7.65021 84.1295 7.62085L83.9925 7.12085C84.1595 7.30785 84.3275 7.49285 84.4765 7.64785L85.1225 8.37685V8.39485C85.1305 8.44785 85.1465 8.49485 85.1575 8.54985C85.1765 8.63585 85.1925 8.72285 85.2185 8.80685L85.2355 8.85485L85.0615 9.25485L84.6605 8.90385ZM89.2405 8.83285C89.2405 9.19726 89.0957 9.54674 88.838 9.80441C88.5804 10.0621 88.2309 10.2068 87.8665 10.2068C87.5021 10.2068 87.1526 10.0621 86.8949 9.80441C86.6372 9.54674 86.4925 9.19726 86.4925 8.83285V8.21385C87.0395 8.01042 87.5226 7.66532 87.8925 7.21385C88.2048 7.73301 88.6802 8.13421 89.2445 8.35485L89.2405 8.83285ZM86.2935 10.0688C86.3806 10.1787 86.4787 10.2792 86.5865 10.3688V10.6048L86.2435 10.3048L86.2935 10.0688ZM87.2215 10.7278C87.6703 10.8915 88.1642 10.8808 88.6055 10.6978V11.6528L87.2215 11.0958V10.7278ZM89.1075 12.5408L90.2075 13.1488L84.4455 20.2858L88.8765 12.4498L89.1075 12.5408ZM89.4645 12.0128L89.2415 11.8898V10.2898C89.2755 10.2578 89.3065 10.2238 89.3415 10.1898L89.4645 12.0128ZM89.9815 7.94185C88.3925 7.53085 88.2695 6.46585 88.2655 6.41985C88.258 6.34834 88.2265 6.28148 88.1762 6.23016C88.1258 6.17884 88.0595 6.14611 87.9882 6.13729C87.9168 6.12847 87.8446 6.14409 87.7833 6.18161C87.7219 6.21912 87.6751 6.27631 87.6505 6.34385C87.4642 6.71569 87.1945 7.03948 86.8625 7.28995C86.5305 7.54043 86.1452 7.71083 85.7365 7.78785C85.781 7.23799 86.0363 6.7266 86.449 6.36049C86.8616 5.99439 87.3998 5.80188 87.951 5.82318C88.5023 5.84447 89.024 6.07793 89.4072 6.47478C89.7904 6.87163 90.0055 7.40119 90.0075 7.95285C89.9994 7.9484 89.991 7.94439 89.9825 7.94085M81.8825 46.0168L82.5145 40.9169C82.516 40.8999 82.516 40.8828 82.5145 40.8658L84.2615 37.2779L83.1785 46.0159L81.8825 46.0168ZM80.0025 46.0168L81.6655 42.6028L81.2425 46.0168H80.0025ZM84.6775 33.7258C84.7225 33.6259 86.2345 28.7148 89.1775 19.1128L91.0925 17.4968L89.6255 38.5689L83.9175 34.3858C84.6255 33.8419 84.6545 33.7809 84.6745 33.7349M85.0545 36.0079L86.1465 36.8078L85.0665 46.0258H83.8125L85.0545 36.0079ZM86.7365 37.2408L87.9725 38.1459L87.0495 46.0258H85.7065L86.7365 37.2408ZM88.5625 38.5788L89.7145 39.4229C89.7407 39.4418 89.7697 39.4567 89.8005 39.4669L89.0325 46.0258H87.6905L88.5625 38.5788ZM90.6425 37.7468L91.9545 38.0098L91.0155 46.0258H89.6735L90.6425 37.7468ZM93.7065 40.2019L92.9975 46.0269H91.6565L92.5805 38.1368L93.5565 38.3368L93.7065 40.2019ZM93.6375 46.0269L93.9635 43.3489L94.1825 46.0269H93.6375ZM90.3655 37.0438L91.7655 16.9348L92.0165 16.7228C92.3375 21.7338 93.3095 35.0089 93.5055 37.6739L90.3655 37.0438ZM90.1255 12.3878L89.9685 10.1318L90.5515 12.6238L90.1255 12.3878ZM91.2095 6.95085C91.1008 6.60153 90.9378 6.27149 90.7265 5.97285C90.7373 5.97543 90.7483 5.97711 90.7595 5.97785L92.2125 5.85085L92.5865 5.81785C92.2405 6.09885 91.7785 6.47785 91.2095 6.95085ZM90.4335 5.55085C90.432 5.56782 90.432 5.58488 90.4335 5.60185C90.3186 5.4794 90.1953 5.36512 90.0645 5.25985C90.0571 5.25003 90.049 5.24068 90.0405 5.23185C90.0305 5.22592 90.0201 5.22058 90.0095 5.21585C89.8181 5.06658 89.6121 4.93724 89.3945 4.82985C89.9785 4.40285 90.6415 3.92985 91.1295 3.59185C90.9365 4.15585 90.6635 4.92785 90.4385 5.55085M88.0665 4.48885C88.0514 4.48421 88.0361 4.48086 88.0205 4.47885C88.0105 4.47885 88.0015 4.48385 87.9915 4.48485C87.9495 4.48485 87.9085 4.47885 87.8665 4.47885C87.6407 4.47937 87.4154 4.50045 87.1935 4.54185L88.0065 2.46885L88.7435 4.59185C88.5228 4.53455 88.2971 4.49938 88.0695 4.48685M85.4215 5.45085C85.4215 5.45085 85.4215 5.44485 85.4215 5.44185L84.9425 3.64885L86.5485 4.72785C86.1287 4.89249 85.7457 5.13855 85.4215 5.45185M84.5555 6.80985C84.1555 6.36385 83.7355 5.87185 83.6005 5.70985L83.5615 5.56985L85.0615 5.83585C85.0665 5.83585 85.0715 5.83585 85.0775 5.83585C84.8525 6.13008 84.6756 6.45816 84.5535 6.80785M82.3265 19.7818L83.0695 19.0938C82.8145 20.0748 82.3865 21.6938 81.8695 23.6358L82.3265 19.7818ZM83.3895 34.7878L84.4045 35.5318L79.2935 46.0269H76.9695L78.9995 37.9958C81.2255 36.3899 82.5725 35.4008 83.3895 34.7878Z" fill="white"/>
<path d="M105.567 71.6548H100.496V69.1488C100.496 69.0645 100.463 68.9836 100.403 68.924C100.344 68.8643 100.263 68.8308 100.178 68.8308H96.3275V66.8768C96.3275 66.8718 96.3275 66.8668 96.3275 66.8618C96.3263 66.8277 96.3195 66.7939 96.3075 66.7618C96.3037 66.752 96.2993 66.7423 96.2945 66.7328C96.2846 66.7122 96.2726 66.6928 96.2585 66.6748L94.8505 64.9518V48.5448H96.0065C96.0482 48.5448 96.0896 48.5366 96.1282 48.5206C96.1667 48.5047 96.2018 48.4812 96.2313 48.4517C96.2609 48.4222 96.2843 48.3871 96.3003 48.3485C96.3162 48.31 96.3245 48.2686 96.3245 48.2268V46.3448C96.3245 46.3031 96.3162 46.2617 96.3003 46.2232C96.2843 46.1846 96.2609 46.1495 96.2313 46.12C96.2018 46.0905 96.1667 46.067 96.1282 46.0511C96.0896 46.0351 96.0482 46.0269 96.0065 46.0269H94.8205L94.1675 38.0468C94.1575 37.9068 93.5135 29.1468 93.0405 22.4298L93.3705 22.6988C93.4267 22.7456 93.4974 22.7714 93.5705 22.7718H93.6135C93.6561 22.7655 93.6971 22.7507 93.734 22.7284C93.7709 22.7061 93.803 22.6767 93.8285 22.6418L95.1795 20.7618L95.4375 20.9618C95.5505 21.0482 95.6932 21.0861 95.8342 21.0674C95.9751 21.0486 96.1029 20.9747 96.1895 20.8618L97.2355 19.4858C97.3215 19.3727 97.3593 19.2301 97.3406 19.0892C97.3218 18.9483 97.2481 18.8206 97.1355 18.7338L96.8625 18.5258L97.7795 17.2618C97.827 17.196 97.8476 17.1145 97.8371 17.034C97.8265 16.9535 97.7855 16.8801 97.7225 16.8288L94.4785 14.1838C94.4453 14.1561 94.4068 14.1354 94.3653 14.1232C94.3238 14.1109 94.2803 14.1073 94.2373 14.1125C94.1944 14.1178 94.153 14.1318 94.1157 14.1537C94.0784 14.1756 94.046 14.2049 94.0205 14.2398L92.9275 15.7148L92.5645 15.3308C92.5515 15.0758 92.5445 14.9118 92.5465 14.8588C92.598 14.5703 92.5615 14.2728 92.4416 14.0053C92.3217 13.7378 92.1241 13.5125 91.8745 13.3588L91.3005 13.0418L90.3865 9.13585C90.4948 8.90186 90.5695 8.65374 90.6085 8.39885L91.2295 7.76585C92.3605 6.82385 93.6535 5.76585 93.7795 5.68985L93.9285 5.58985L93.9185 5.56585C93.9477 5.51457 93.9605 5.45563 93.9555 5.39685C93.9508 5.31549 93.9152 5.23902 93.8558 5.18319C93.7965 5.12737 93.7179 5.09646 93.6365 5.09685H93.5915C93.5195 5.10585 92.3565 5.20885 91.1985 5.30985C91.531 4.53094 91.7986 3.72586 91.9985 2.90285C91.9979 2.84252 91.9809 2.7835 91.9491 2.7322C91.9174 2.68089 91.8722 2.63927 91.8185 2.61185C91.6295 2.51885 91.5465 2.47885 89.2575 4.15085L88.3215 1.45085C88.2991 1.38903 88.2584 1.33552 88.2048 1.29746C88.1512 1.2594 88.0872 1.2386 88.0215 1.23785C87.9571 1.23704 87.894 1.25571 87.8405 1.2914C87.787 1.32709 87.7455 1.37814 87.7215 1.43785L86.6975 4.06885L84.5905 2.64885C84.5367 2.61282 84.4732 2.59407 84.4084 2.5951C84.3437 2.59613 84.2808 2.61689 84.2282 2.65462C84.1756 2.69234 84.1358 2.74522 84.114 2.8062C84.0922 2.86718 84.0896 2.93334 84.1065 2.99585L84.6745 5.12585L83.3745 4.89585L82.6745 2.36385C82.8745 1.48185 83.1055 0.521849 83.1665 0.358849C83.3035 -0.00715113 82.8765 -0.741151 82.4665 -1.31215C82.388 -1.3848 82.3014 -1.44821 82.2085 -1.50115L82.2465 -2.35215C82.492 -2.49643 82.7047 -2.69043 82.8708 -2.9217C83.037 -3.15297 83.1531 -3.41642 83.2115 -3.69515C83.221 -3.74142 83.22 -3.78922 83.2088 -3.83509C83.1975 -3.88095 83.1761 -3.92373 83.1463 -3.96031C83.1164 -3.99689 83.0787 -4.02636 83.036 -4.04657C82.9934 -4.06678 82.9467 -4.07723 82.8995 -4.07715H81.4835V-4.37715C81.4835 -4.41891 81.4752 -4.46026 81.4593 -4.49884C81.4433 -4.53743 81.4198 -4.57248 81.3903 -4.60201C81.3608 -4.63154 81.3257 -4.65496 81.2872 -4.67094C81.2486 -4.68693 81.2072 -4.69515 81.1655 -4.69515H80.4275C80.332 -4.69515 80.2404 -4.73308 80.1729 -4.80059C80.1054 -4.86811 80.0675 -4.95967 80.0675 -5.05515C80.0675 -5.15063 80.1054 -5.2422 80.1729 -5.30971C80.2404 -5.37722 80.332 -5.41515 80.4275 -5.41515H82.2505C82.5157 -5.41515 82.77 -5.52051 82.9576 -5.70804C83.1451 -5.89558 83.2505 -6.14993 83.2505 -6.41515C83.2529 -6.45834 83.2465 -6.50158 83.2316 -6.54221C83.2168 -6.58284 83.1938 -6.62001 83.164 -6.65144C83.1343 -6.68288 83.0985 -6.70792 83.0588 -6.72504C83.019 -6.74215 82.9762 -6.75098 82.933 -6.75098C82.8897 -6.75098 82.8469 -6.74215 82.8072 -6.72504C82.7674 -6.70792 82.7316 -6.68288 82.7019 -6.65144C82.6722 -6.62001 82.6492 -6.58284 82.6343 -6.54221C82.6195 -6.50158 82.613 -6.45834 82.6155 -6.41515C82.6152 -6.31975 82.5772 -6.22834 82.5097 -6.16088C82.4423 -6.09343 82.3509 -6.05541 82.2555 -6.05515H80.4325C80.1828 -6.05509 79.9423 -5.96106 79.7587 -5.79176C79.5752 -5.62246 79.4621 -5.39029 79.4419 -5.14141C79.4218 -4.89254 79.496 -4.64519 79.6499 -4.44856C79.8038 -4.25192 80.026 -4.1204 80.2725 -4.08015H79.3915C79.3443 -4.0802 79.2978 -4.06976 79.2552 -4.04961C79.2126 -4.02946 79.175 -4.00009 79.1451 -3.96363C79.1153 -3.92716 79.0939 -3.88452 79.0825 -3.83878C79.0712 -3.79304 79.0701 -3.74535 79.0795 -3.69915C79.1425 -3.39933 79.2718 -3.11743 79.458 -2.87413C79.6442 -2.63084 79.8825 -2.43232 80.1555 -2.29315L80.1745 -1.66915H80.1365C80.0664 -1.65982 79.9989 -1.63673 79.9378 -1.6012C79.8767 -1.56568 79.8232 -1.51842 79.7805 -1.46215C79.7379 -1.40557 79.7071 -1.34101 79.6899 -1.27229C79.6727 -1.20358 79.6695 -1.13212 79.6805 -1.06215L79.9095 0.650849C79.9229 0.747788 79.9624 0.839241 80.0239 0.915362C80.0854 0.991484 80.1665 1.04939 80.2585 1.08285L80.2845 1.95985C80.2868 2.04253 80.3214 2.12101 80.3808 2.17856C80.4402 2.2361 80.5198 2.26814 80.6025 2.26785H80.9835C80.9575 3.10885 80.8665 6.07985 80.8645 6.22985V6.26885C80.8263 6.70689 80.8725 7.14819 81.0005 7.56885C81.0335 7.85963 81.0412 8.15273 81.0235 8.44485C80.7925 8.65014 80.6224 8.91494 80.5318 9.21034C80.4412 9.50573 80.4334 9.82036 80.5095 10.1198C80.606 10.5089 80.8312 10.8539 81.1485 11.0988L81.4365 14.6208C81.4365 14.6288 81.4415 14.6348 81.4435 14.6428L81.0515 15.7298C81.0352 15.7758 81.0298 15.8248 81.0355 15.8732C81.0412 15.9216 81.058 15.968 81.0845 16.0088L81.8055 17.1248C81.7128 17.3106 81.6583 17.513 81.6453 17.7201C81.6322 17.9273 81.6608 18.135 81.7295 18.3308C81.7945 18.749 81.7867 19.1753 81.7065 19.5908L80.7165 27.9698C79.7805 31.4868 78.7765 35.2479 78.0445 37.9849C78.0271 38.048 78.0297 38.1149 78.0519 38.1765C78.0741 38.2381 78.1148 38.2913 78.1685 38.3288C78.1924 38.3445 78.2183 38.3569 78.2455 38.3658L76.3095 46.0258H75.1335C75.0492 46.0261 74.9685 46.0597 74.9089 46.1193C74.8493 46.1789 74.8157 46.2596 74.8155 46.3438V48.2258C74.8155 48.3102 74.849 48.3911 74.9086 48.4507C74.9682 48.5103 75.0491 48.5438 75.1335 48.5438H76.2385V64.9578L74.8845 66.6808C74.8728 66.6968 74.8628 66.7139 74.8545 66.7318C74.8489 66.7398 74.8439 66.7482 74.8395 66.7568C74.8264 66.7904 74.8193 66.8259 74.8185 66.8618C74.8185 66.8618 74.8185 66.8708 74.8185 66.8748V68.8288H70.9675C70.8831 68.8288 70.8022 68.8624 70.7426 68.922C70.683 68.9816 70.6495 69.0625 70.6495 69.1468V71.6538H65.8145C65.7727 71.6538 65.7314 71.6621 65.6928 71.6781C65.6542 71.694 65.6191 71.7175 65.5896 71.747C65.5601 71.7765 65.5367 71.8116 65.5207 71.8502C65.5047 71.8887 65.4965 71.9301 65.4965 71.9718V74.4828C65.4965 74.5246 65.5047 74.566 65.5207 74.6045C65.5367 74.6431 65.5601 74.6782 65.5896 74.7077C65.6191 74.7372 65.6542 74.7607 65.6928 74.7766C65.7314 74.7926 65.7727 74.8008 65.8145 74.8008H105.565C105.65 74.8008 105.731 74.7673 105.79 74.7077C105.85 74.6481 105.883 74.5672 105.883 74.4828V71.9688C105.882 71.8856 105.849 71.806 105.79 71.7473C105.731 71.6886 105.651 71.6554 105.567 71.6548ZM70.9675 72.2908H105.247V74.1688H66.1335V72.2908H70.9675ZM71.2855 69.4668H99.8585V71.6558H71.2865L71.2855 69.4668ZM76.8775 48.5448H94.2115V64.7498H76.8785L76.8775 48.5448ZM76.7145 65.3868H94.3785L95.3365 66.5598H75.7935L76.7145 65.3868ZM75.4545 67.2508H95.6905V68.8318H75.4555L75.4545 67.2508ZM75.4545 46.6628H95.6905V47.9089H75.4555L75.4545 46.6628ZM81.6915 15.8028L82.7445 12.8808C82.7589 12.8416 82.7653 12.8 82.7635 12.7582C82.7616 12.7165 82.7514 12.6756 82.7335 12.6378C82.7068 12.5809 82.6638 12.5331 82.6099 12.5006C82.5561 12.4681 82.4938 12.4523 82.4309 12.4552C82.3681 12.4581 82.3076 12.4796 82.2569 12.5169C82.2063 12.5542 82.1678 12.6057 82.1465 12.6648L81.9465 13.2168L81.7925 11.3308C81.8576 11.2993 81.9097 11.2459 81.9395 11.1798C81.9739 11.1029 81.9764 11.0155 81.9464 10.9367C81.9164 10.858 81.8563 10.7944 81.7795 10.7598C81.6191 10.692 81.4763 10.5884 81.3619 10.4571C81.2476 10.3257 81.1646 10.17 81.1195 10.0018C81.0836 9.83261 81.0813 9.658 81.1125 9.48785C81.1299 9.50143 81.1486 9.51316 81.1685 9.52285C81.5 9.65849 81.8543 9.72976 82.2125 9.73285C82.4314 9.73353 82.649 9.69979 82.8575 9.63285C83.3417 9.48123 83.7489 9.14888 83.9945 8.70485L84.0395 9.09485L84.0655 9.68885C84.0701 9.77003 84.1056 9.84636 84.1647 9.90216C84.2239 9.95796 84.3022 9.98898 84.3835 9.98885H84.3975C84.4811 9.98598 84.5603 9.95001 84.6175 9.88885C84.6461 9.85828 84.6682 9.82222 84.6825 9.78285L86.4735 11.3648L85.7065 13.7278C85.6937 13.7675 85.6889 13.8093 85.6923 13.8508C85.6957 13.8924 85.7073 13.9328 85.7265 13.9698C85.7449 14.0068 85.7704 14.0397 85.8017 14.0666C85.8329 14.0936 85.8692 14.1141 85.9085 14.1268L86.0085 14.1438C86.0752 14.1433 86.1402 14.1218 86.194 14.0823C86.2478 14.0428 86.2879 13.9874 86.3085 13.9238L87.0245 11.7148L88.2795 12.2198L86.8795 14.6928L82.4065 18.8458C82.4048 18.6149 82.3796 18.3847 82.3315 18.1588C82.2837 17.9659 82.2823 17.7644 82.3273 17.5708C82.3723 17.3772 82.4625 17.1969 82.5905 17.0448L83.6355 15.7988C83.6882 15.7343 83.7136 15.6518 83.7065 15.5688C83.7008 15.5063 83.6768 15.4469 83.6374 15.398C83.598 15.3492 83.545 15.3131 83.4851 15.2942C83.4252 15.2754 83.3611 15.2747 83.3009 15.2923C83.2406 15.3098 83.1869 15.3448 83.1465 15.3928L82.1765 16.5508L81.6915 15.8028ZM82.4495 -3.44115C82.3189 -3.20959 82.129 -3.0169 81.8995 -2.88282C81.6699 -2.74873 81.4088 -2.67808 81.143 -2.67808C80.8771 -2.67808 80.616 -2.74873 80.3865 -2.88282C80.1569 -3.0169 79.9671 -3.20959 79.8365 -3.44115H82.4495ZM81.1435 -2.04115C81.297 -2.04275 81.4498 -2.06086 81.5995 -2.09515L81.5885 -1.84215C81.5685 -1.84215 81.5485 -1.84815 81.5295 -1.84215L80.8035 -1.74215L80.7935 -2.06415C80.9094 -2.04803 81.0264 -2.04134 81.1435 -2.04415V-2.04115ZM81.5155 -1.20315L81.7155 0.312849L80.5155 0.473849L80.3155 -1.04215L81.5155 -1.20315ZM81.4615 0.988849L81.4325 1.63685H80.9025L80.8855 1.06485L81.4615 0.988849ZM81.7365 2.26885C81.8177 2.26921 81.896 2.23824 81.9551 2.18237C82.0141 2.1265 82.0494 2.05003 82.0535 1.96885L82.1035 0.857849C82.1625 0.822824 82.2144 0.77703 82.2565 0.722849C82.2999 0.666609 82.3317 0.602249 82.3499 0.533556C82.3681 0.464862 82.3724 0.393222 82.3625 0.322849L82.2545 -0.477151C82.3812 -0.277399 82.482 -0.0623398 82.5545 0.162849C82.4485 0.475849 82.1545 1.74185 82.0295 2.30285C82.0171 2.35344 82.0171 2.40626 82.0295 2.45685L82.8005 5.24285L83.5465 7.94285C83.5266 8.19388 83.4307 8.4329 83.2715 8.62801C83.1123 8.82312 82.8974 8.96505 82.6555 9.03485C82.3157 9.12547 81.9573 9.11819 81.6215 9.01385C81.6674 8.48107 81.6593 7.94501 81.5975 7.41385C81.4855 7.04938 81.4467 6.66636 81.4835 6.28685V6.24685C81.4835 6.18285 81.5055 5.44685 81.6025 2.29385V2.26885H81.7365ZM91.9685 15.9318L91.2615 16.5318H91.2535L91.2475 16.5388L89.5165 17.9988C89.9451 16.5988 90.4015 15.1085 90.8855 13.5278L91.6015 13.9218C91.6155 13.9288 91.9425 14.0908 91.9135 14.8218C91.9065 14.9188 91.9305 15.3128 91.9685 15.9338V15.9318ZM94.7865 19.6528L95.7125 18.4358L96.6775 19.1688L95.7515 20.3858L94.7865 19.6528ZM96.0175 17.8688C95.9045 17.7829 95.7621 17.7451 95.6213 17.7638C95.4806 17.7826 95.353 17.8563 95.2665 17.9688L94.2195 19.3448C94.1337 19.4581 94.0961 19.6006 94.1148 19.7414C94.1335 19.8822 94.2071 20.01 94.3195 20.0968L94.6775 20.3688L93.5145 21.9878L92.9805 21.5528C92.8595 19.8298 92.7535 18.2838 92.6805 17.1098L94.3385 14.8738L97.0935 17.1198L96.3625 18.1288L96.0175 17.8688ZM81.3175 28.1889C81.7275 26.6469 82.1375 25.1048 82.5075 23.7098L82.5215 23.6928L89.9095 14.5408C88.5095 19.1128 84.4375 32.4068 84.1095 33.4348C83.7645 33.7348 81.3365 35.5219 78.8955 37.2859C79.3305 35.6509 80.3265 31.9208 81.3195 28.1908L81.3175 28.1889ZM85.8575 16.5088L83.1405 21.3148C83.6405 19.4388 83.8405 18.6538 83.9055 18.3148L85.8575 16.5088ZM84.6575 8.90885L84.5955 8.37885C84.5989 8.26256 84.5779 8.14683 84.5338 8.03917C84.4897 7.93151 84.4235 7.8343 84.3395 7.75385C84.2768 7.69859 84.2047 7.65521 84.1265 7.62585L83.9895 7.12585C84.1565 7.31285 84.3245 7.49785 84.4735 7.65285L85.1195 8.38185V8.39985C85.1275 8.45285 85.1435 8.49985 85.1545 8.55485C85.1735 8.64085 85.1895 8.72785 85.2155 8.81185L85.2325 8.85985L85.0585 9.25985L84.6575 8.90885ZM89.2375 8.83785C89.2375 9.01828 89.2019 9.19695 89.1329 9.36366C89.0638 9.53036 88.9626 9.68182 88.835 9.80941C88.7074 9.937 88.556 10.0382 88.3893 10.1073C88.2226 10.1763 88.0439 10.2118 87.8635 10.2118C87.683 10.2118 87.5044 10.1763 87.3377 10.1073C87.171 10.0382 87.0195 9.937 86.8919 9.80941C86.7643 9.68182 86.6631 9.53036 86.5941 9.36366C86.525 9.19695 86.4895 9.01828 86.4895 8.83785V8.21885C87.0365 8.01542 87.5196 7.67032 87.8895 7.21885C88.2018 7.73801 88.6772 8.13921 89.2415 8.35985L89.2375 8.83785ZM86.2905 10.0738C86.3776 10.1837 86.4757 10.2842 86.5835 10.3738V10.6098L86.2405 10.3098L86.2905 10.0738ZM87.2185 10.7328C87.6673 10.8965 88.1612 10.8858 88.6025 10.7028V11.6578L87.2185 11.1008V10.7328ZM89.1045 12.5458L90.2045 13.1538L84.4425 20.2908L88.8735 12.4548L89.1045 12.5458ZM89.4615 12.0178L89.2385 11.8948V10.2948C89.2725 10.2628 89.3035 10.2288 89.3385 10.1948L89.4615 12.0178ZM89.9785 7.94685C88.3895 7.53585 88.2665 6.47085 88.2625 6.42485C88.255 6.35334 88.2235 6.28648 88.1732 6.23516C88.1228 6.18384 88.0565 6.15111 87.9852 6.14229C87.9138 6.13347 87.8416 6.14909 87.7803 6.18661C87.7189 6.22412 87.6721 6.28131 87.6475 6.34885C87.4612 6.72069 87.1915 7.04448 86.8595 7.29495C86.5275 7.54543 86.1422 7.71583 85.7335 7.79285C85.778 7.24299 86.0333 6.7316 86.446 6.36549C86.8586 5.99939 87.3968 5.80688 87.9481 5.82818C88.4993 5.84947 89.021 6.08293 89.4042 6.47978C89.7874 6.87663 90.0025 7.40619 90.0045 7.95785C89.9969 7.95516 89.9892 7.95282 89.9815 7.95085L89.9785 7.94685ZM81.8785 46.0229L82.5105 40.9229C82.512 40.9059 82.512 40.8888 82.5105 40.8718L84.2575 37.2839L83.1745 46.0219L81.8785 46.0229ZM79.9985 46.0229L81.6615 42.6088L81.2385 46.0229H79.9985ZM84.6735 33.7318C84.7185 33.6319 86.2305 28.7208 89.1735 19.1188L91.0885 17.5028L89.6255 38.5689L83.9175 34.3858C84.6255 33.8428 84.6545 33.7808 84.6745 33.7359L84.6735 33.7318ZM85.0535 36.0048L86.1455 36.8049L85.0655 46.0229H83.8115L85.0535 36.0048ZM86.7355 37.2379L87.9715 38.1428L87.0485 46.0229H85.7065L86.7355 37.2379ZM88.5615 38.5759L89.7135 39.4198C89.7397 39.4388 89.7687 39.4537 89.7995 39.4638L89.0315 46.0229H87.6895L88.5615 38.5759ZM90.6415 37.7439L91.9535 38.0069L91.0145 46.0229H89.6725L90.6415 37.7439ZM93.7065 40.2019L92.9975 46.0269H91.6565L92.5805 38.1368L93.5565 38.3368L93.7065 40.2019ZM93.6375 46.0269L93.9635 43.3489L94.1825 46.0269H93.6375ZM90.3655 37.0438L91.7655 16.9348L92.0165 16.7228C92.3375 21.7338 93.3095 35.0089 93.5055 37.6739L90.3655 37.0438ZM90.1255 12.3878L89.9685 10.1318L90.5515 12.6238L90.1255 12.3878ZM91.2095 6.95085C91.1008 6.60153 90.9378 6.27149 90.7265 5.97285C90.7373 5.97543 90.7483 5.97711 90.7595 5.97785L92.2125 5.85085L92.5865 5.81785C92.2435 6.09885 91.7825 6.47785 91.2135 6.95085H91.2095ZM90.4325 5.55085C90.431 5.56782 90.431 5.58488 90.4325 5.60185C90.3176 5.4794 90.1943 5.36512 90.0635 5.25985C90.056 5.25003 90.048 5.24068 90.0395 5.23185C90.0294 5.22592 90.0191 5.22058 90.0085 5.21585C89.8171 5.06658 89.6111 4.93724 89.3935 4.82985C89.9775 4.40285 90.6405 3.92985 91.1285 3.59185C90.9335 4.15885 90.6605 4.93085 90.4355 5.55385L90.4325 5.55085ZM88.0665 4.48885C88.0514 4.48421 88.0361 4.48086 88.0205 4.47885C88.0105 4.47885 88.0015 4.48385 87.9915 4.48485C87.9495 4.48485 87.9085 4.47885 87.8665 4.47885C87.6407 4.47937 87.4154 4.50045 87.1935 4.54185L88.0065 2.46885L88.7435 4.59185C88.5218 4.53503 88.295 4.50053 88.0665 4.48885ZM85.4185 5.45285C85.4185 5.45285 85.4185 5.44685 85.4185 5.44385L84.9395 3.65085L86.5455 4.72985C86.1258 4.89419 85.7428 5.1399 85.4185 5.45285ZM84.5525 6.81085C84.1525 6.36485 83.7325 5.87285 83.5975 5.71085L83.5585 5.57085L85.0585 5.83685C85.0635 5.83685 85.0685 5.83685 85.0745 5.83685C84.8501 6.13152 84.6739 6.45994 84.5525 6.80985V6.81085ZM82.3265 19.7818L83.0695 19.0938C82.8145 20.0748 82.3865 21.6938 81.8695 23.6358L82.3265 19.7818ZM83.3895 34.7878L84.4045 35.5318L79.2935 46.0269H76.9695L78.9995 37.9958C81.2245 36.3899 82.5725 35.4008 83.3895 34.7878Z" fill="white"/>
</g>
</g>
</g>
<defs>
<clipPath id="clip0_96_750">
<rect width="127.643" height="75.373" fill="white" transform="translate(0.178497 0.225586)"/>
</clipPath>
<clipPath id="clip1_96_750">
<rect width="123.488" height="81.62" fill="white" transform="translate(5.1785 -6.77441)"/>
</clipPath>
</defs>
</svg>
