<svg xmlns="http://www.w3.org/2000/svg" baseProfile="tiny" version="1.2" viewBox="0 0 377.097 327.103"><g fill="#050033"><path d="m337.607 287.613-13.029-15.502c6.861-1.579 11.047-5.517 11.047-12.369 0-7.741-6.56-11.619-14.869-11.619h-26.039v39.49h6.904v-14.942h15.487l11.931 14.942h8.568Zm-35.986-33.361h19.326c4.76 0 7.602 2.233 7.602 5.972 0 3.839-2.984 6.319-7.602 6.319h-19.326v-12.292ZM59.856 248.123l-20.366 39.49h7.81l4.344-8.795h23.193l4.344 8.795h7.988l-20.366-39.49h-6.947Zm-5.184 24.567 8.569-17.349 8.569 17.349H54.671ZM123.693 253.317c6.493 0 11.846 2.45 14.591 6.752l5.569-3.745c-3.899-5.468-10.798-9.249-20.16-9.249-15.134 0-23.828 9.879-23.828 20.793s8.694 20.794 23.828 20.794c9.363 0 16.261-3.78 20.16-9.248l-5.569-3.745c-2.745 4.302-8.098 6.751-14.591 6.751-10.175 0-16.749-5.712-16.749-14.551s6.574-14.551 16.749-14.551ZM186.398 253.317c6.493 0 11.846 2.45 14.591 6.752l5.569-3.745c-3.899-5.468-10.798-9.249-20.16-9.249-15.134 0-23.828 9.879-23.828 20.793s8.694 20.794 23.828 20.794c9.363 0 16.261-3.78 20.16-9.248l-5.569-3.745c-2.745 4.302-8.098 6.751-14.591 6.751-10.175 0-16.749-5.712-16.749-14.551s6.574-14.551 16.749-14.551ZM249.111 247.075c-15.134 0-23.828 9.879-23.828 20.793s8.694 20.793 23.828 20.793 23.828-9.879 23.828-20.793-8.694-20.793-23.828-20.793Zm0 35.412c-10.175 0-16.749-5.738-16.749-14.619s6.574-14.619 16.749-14.619 16.749 5.739 16.749 14.619-6.574 14.619-16.749 14.619Z"/></g><g fill="#050033"><path d="M271.653 215.402h-25.472c-10.734 0-16.136-2.358-20.072-7.497-4.193-5.475-4.193-13.816-4.193-21.72V39.49h32.746v151.402c0 11.985 1.344 20.562 16.992 23.98v.531ZM205.418 215.377h-40.979L134.316 152.6c-16.442 8.939-25.822 29.639-42.495 43.311-8.495 6.966-18.438 13.177-30.829 17.378-5.609 1.901-15.138 4.36-18.725 4.716-1.497.148-2.551.088-2.774-.453-.172-.418.241-.738 1.838-1.509 1.821-.88 9.346-3.994 14.061-7.281 5.886-4.102 9.258-8.54 9.523-11.963-1.62-5.705-13.146-18.368-1.355-41.603 4.231-8.337 7.89-14.337 10.511-20.367 3.011-6.927 5.141-16.685 5.866-23.937.042-.423.118-.402.349-.167 5.742 5.804 27.995 28.717 24.778 51.493 7.399-2.843 20.232-11.475 26.15-16.082 6.246-4.862 10.317-9.935 16.933-10.048 5.925-.101 6.435 2.731 11.154 3.354 1.169.154 2.899-.073 3.793-.511.363-.177.274-.573-.274-.702-6.435-1.518-7.976-6.762-16.294-6.762-7.461 0-13.4 6.87-17.701 9.691l-21.043-43.854c-8.801-18.341-6.114-31.67 13.202-57.889l84.433 175.962ZM337.608 215.402h-25.472c-10.734 0-16.136-2.358-20.072-7.497-4.193-5.475-4.193-13.816-4.193-21.72V39.49h32.746v151.402c0 11.985 1.344 20.562 16.992 23.98v.531Z"/></g></svg>