<svg width="525" height="127" viewBox="0 0 525 127" fill="none" xmlns="http://www.w3.org/2000/svg">
<g clip-path="url(#clip0_2041_22409)">
<path d="M33.3253 61.7854C35.2082 60.1227 36.1497 57.9039 36.1497 55.1289V54.9429C36.1497 51.8617 35.1621 49.5499 33.187 48.0074C31.2118 46.465 28.4619 45.6947 24.9371 45.6965H10.7676V64.2964H25.2252C28.7424 64.287 31.4425 63.45 33.3253 61.7854Z" fill="#49525B"/>
<path d="M100.015 97.5703V71.5868H73.6976V97.5703H59.4235V32.8399H73.6976V58.457H100.015V32.8399H111.207C105.739 22.8956 97.6935 14.6004 87.9116 8.82239C78.1296 3.04436 66.9711 -0.00415039 55.6036 -0.00415039C44.2362 -0.00415039 33.0777 3.04436 23.2957 8.82239C13.5137 14.6004 5.46786 22.8956 0 32.8399H26.7123C34.9292 32.8399 41.2312 35.0286 45.6183 39.4062C49.3238 43.1074 51.1765 48.0401 51.1765 54.2044V54.3875C51.1765 59.6293 49.8952 63.8988 47.3326 67.1961C44.7383 70.5159 41.2525 73.0325 37.2809 74.4529L53.1281 97.5618H36.4336L22.5324 76.8483H11.3311V97.5618H2.32723C8.07064 106.452 15.9569 113.763 25.2643 118.826C34.5717 123.889 45.003 126.542 55.6036 126.542C66.2042 126.542 76.6355 123.889 85.943 118.826C95.2504 113.763 103.137 106.452 108.88 97.5618L100.015 97.5703Z" fill="#49525B"/>
<path d="M524.159 72.4775H143.368V73.9402H524.159V72.4775Z" fill="#49525B"/>
<path d="M217.497 18.6392L225.515 38.0479H209.544L217.497 18.6392ZM213.065 5.2417L189.954 60.565H200.472L205.765 47.5818H229.3L234.513 60.565H245.328L222.216 5.2417H213.065Z" fill="#49525B"/>
<path d="M287.889 33.1754C287.889 43.7181 280.946 50.8001 270.618 50.8001H261.06V15.3899H270.618C280.785 15.3899 287.889 22.7031 287.889 33.1754ZM270.618 5.625H250.848V60.5792H270.618C286.79 60.5792 298.528 48.9937 298.528 33.0316C298.528 17.1569 286.79 5.6391 270.618 5.6391" fill="#49525B"/>
<path d="M459.591 33.1697C459.591 43.7012 452.386 51.6456 442.835 51.6456C433.195 51.6456 425.928 43.6392 425.928 33.0176C425.928 22.4861 433.133 14.5445 442.688 14.5445C452.324 14.5445 459.591 22.5537 459.591 33.1697ZM442.835 4.7063C427.134 4.7063 415.289 16.9456 415.289 33.1697C415.289 49.315 427.069 61.4866 442.685 61.4866C458.388 61.4866 470.228 49.2474 470.228 33.0232C470.228 16.8808 458.453 4.70911 442.832 4.70911" fill="#49525B"/>
<path d="M176.207 23.7995C176.207 29.0328 172.377 32.2849 166.208 32.2849H153.567V15.3901H166.138C172.634 15.3901 176.207 18.3745 176.207 23.7995ZM186.555 23.2584C186.555 12.3831 179.014 5.62231 166.872 5.62231H143.371V60.5765H153.567V41.8188H163.989L176.627 60.5652H188.687L174.628 39.9475C182.327 37.445 186.555 31.5438 186.555 23.2612" fill="#49525B"/>
<path d="M317.189 5.625H306.99V60.5651H317.189V5.625Z" fill="#49525B"/>
<path d="M348.488 28.2324C338.51 25.7383 336.733 23.9741 336.733 20.2626C336.733 16.7512 339.862 14.3896 344.528 14.3896C349.01 14.3896 353.461 16.1622 358.127 19.7976L358.619 20.1809L364.109 12.0928L363.711 11.7546C358.181 7.11306 351.953 4.85571 344.675 4.85571C333.991 4.85571 326.532 11.5404 326.532 21.1109C326.532 31.3662 332.971 34.996 344.093 37.8057C353.648 40.1137 355.263 42.0583 355.263 45.5415C355.263 49.4024 351.993 51.7978 346.731 51.7978C340.919 51.7978 336.18 49.7519 330.884 44.961L330.429 44.5439L324.267 52.2037L324.662 52.57C330.802 58.3022 338.354 61.3345 346.508 61.3345C358.02 61.3345 365.459 54.7738 365.459 44.6172C365.459 36.0443 360.542 31.2985 348.488 28.2324Z" fill="#49525B"/>
<path d="M392.941 28.2324C382.963 25.7383 381.186 23.9741 381.186 20.2626C381.186 16.7512 384.318 14.3896 388.979 14.3896C393.464 14.3896 397.912 16.1622 402.58 19.7976L403.069 20.1809L408.562 12.0928L408.164 11.7546C402.634 7.11306 396.409 4.85571 389.125 4.85571C378.444 4.85571 370.985 11.5404 370.985 21.1109C370.985 31.3662 377.424 34.996 388.546 37.8057C398.101 40.1137 399.714 42.0583 399.714 45.5415C399.714 49.4024 396.446 51.7978 391.184 51.7978C385.378 51.7978 380.635 49.7519 375.337 44.961L374.882 44.5439L368.72 52.2037L369.115 52.57C375.25 58.3022 382.807 61.3345 390.961 61.3345C402.476 61.3345 409.912 54.7738 409.912 44.6172C409.912 36.0443 404.995 31.2985 392.941 28.2324Z" fill="#49525B"/>
<path d="M514.111 5.62793V41.6328L487.61 5.86184L487.435 5.62793H478.186V60.568H488.234V23.4866L515.546 60.3313L515.721 60.568H524.16V5.62793H514.111Z" fill="#49525B"/>
<path d="M524.139 72.4324H143.396V73.8922H524.139V72.4324Z" fill="#49525B"/>
<path d="M143.14 85.5593H149.483V100.535H166.711V85.5593H173.055V121.587H166.711V106.394H149.483V121.578H143.14V85.5593Z" fill="#49525B"/>
<path d="M211.541 103.675V103.576C211.541 93.4306 219.381 84.9451 230.464 84.9451C241.547 84.9451 249.291 93.3347 249.291 103.472V103.576C249.291 113.721 241.45 122.207 230.368 122.207C219.285 122.207 211.541 113.814 211.541 103.675ZM242.642 103.675V103.576C242.642 96.5756 237.536 90.8125 230.368 90.8125C223.2 90.8125 218.195 96.4742 218.195 103.472V103.576C218.195 110.576 223.301 116.339 230.47 116.339C237.638 116.339 242.631 110.675 242.631 103.675H242.642Z" fill="#49525B"/>
<path d="M297.401 91.4267H285.9V85.5593H315.248V91.4267H303.744V121.581H297.401V91.4267Z" fill="#49525B"/>
<path d="M358.497 85.5593H385.266V91.221H364.84V100.589H382.944V106.301H364.84V115.925H385.52V121.587H358.491L358.497 85.5593Z" fill="#49525B"/>
<path d="M432.966 85.5593H439.309V115.821H458.291V121.587H432.966V85.5593Z" fill="#49525B"/>
<path d="M497.046 116.337L500.864 111.808C504.319 114.792 507.826 116.492 512.263 116.492C516.181 116.492 518.658 114.637 518.658 111.963V111.859C518.658 109.286 517.214 107.896 510.509 106.352C502.824 104.5 498.489 102.235 498.489 95.5949V95.4935C498.489 89.316 503.649 85.0437 510.817 85.0437C516.079 85.0437 520.256 86.6416 523.919 89.5753L520.513 94.3662C517.265 91.9482 514.017 90.6603 510.716 90.6603C507.002 90.6603 504.835 92.5654 504.835 94.9326V95.0341C504.835 97.8128 506.485 99.05 513.447 100.696C521.072 102.55 525.001 105.275 525.001 111.247V111.348C525.001 118.092 519.688 122.105 512.108 122.105C506.541 122.13 501.166 120.072 497.046 116.337Z" fill="#49525B"/>
</g>
<defs>
<clipPath id="clip0_2041_22409">
<rect width="525" height="126.55" fill="white"/>
</clipPath>
</defs>
</svg>
